<?xml version="1.0" encoding="utf-8"?>
<svg xmlns="http://www.w3.org/2000/svg" xmlns:xlink="http://www.w3.org/1999/xlink" width="600" height="400" viewBox="0 0 2400 1600">
<defs>
  <clipPath id="clip150">
    <rect x="0" y="0" width="2400" height="1600"/>
  </clipPath>
</defs>
<path clip-path="url(#clip150)" d="M0 1600 L2400 1600 L2400 0 L0 0  Z" fill="#ffffff" fill-rule="evenodd" fill-opacity="1"/>
<defs>
  <clipPath id="clip151">
    <rect x="202" y="123" width="1912" height="1301"/>
  </clipPath>
</defs>
<path clip-path="url(#clip150)" d="M219.866 1423.18 L2352.76 1423.18 L2352.76 123.472 L219.866 123.472  Z" fill="#ffffff" fill-rule="evenodd" fill-opacity="1"/>
<defs>
  <clipPath id="clip152">
    <rect x="219" y="123" width="2134" height="1301"/>
  </clipPath>
</defs>
<polyline clip-path="url(#clip152)" style="stroke:#000000; stroke-linecap:round; stroke-linejoin:round; stroke-width:2; stroke-opacity:0.1; fill:none" points="597.941,1423.18 597.941,123.472 "/>
<polyline clip-path="url(#clip152)" style="stroke:#000000; stroke-linecap:round; stroke-linejoin:round; stroke-width:2; stroke-opacity:0.1; fill:none" points="1021.55,1423.18 1021.55,123.472 "/>
<polyline clip-path="url(#clip152)" style="stroke:#000000; stroke-linecap:round; stroke-linejoin:round; stroke-width:2; stroke-opacity:0.1; fill:none" points="1445.17,1423.18 1445.17,123.472 "/>
<polyline clip-path="url(#clip152)" style="stroke:#000000; stroke-linecap:round; stroke-linejoin:round; stroke-width:2; stroke-opacity:0.1; fill:none" points="1868.78,1423.18 1868.78,123.472 "/>
<polyline clip-path="url(#clip152)" style="stroke:#000000; stroke-linecap:round; stroke-linejoin:round; stroke-width:2; stroke-opacity:0.1; fill:none" points="2292.39,1423.18 2292.39,123.472 "/>
<polyline clip-path="url(#clip152)" style="stroke:#000000; stroke-linecap:round; stroke-linejoin:round; stroke-width:2; stroke-opacity:0.1; fill:none" points="219.866,1187.11 2352.76,1187.11 "/>
<polyline clip-path="url(#clip152)" style="stroke:#000000; stroke-linecap:round; stroke-linejoin:round; stroke-width:2; stroke-opacity:0.1; fill:none" points="219.866,930.016 2352.76,930.016 "/>
<polyline clip-path="url(#clip152)" style="stroke:#000000; stroke-linecap:round; stroke-linejoin:round; stroke-width:2; stroke-opacity:0.1; fill:none" points="219.866,672.918 2352.76,672.918 "/>
<polyline clip-path="url(#clip152)" style="stroke:#000000; stroke-linecap:round; stroke-linejoin:round; stroke-width:2; stroke-opacity:0.1; fill:none" points="219.866,415.821 2352.76,415.821 "/>
<polyline clip-path="url(#clip152)" style="stroke:#000000; stroke-linecap:round; stroke-linejoin:round; stroke-width:2; stroke-opacity:0.1; fill:none" points="219.866,158.724 2352.76,158.724 "/>
<polyline clip-path="url(#clip150)" style="stroke:#000000; stroke-linecap:round; stroke-linejoin:round; stroke-width:4; stroke-opacity:1; fill:none" points="219.866,1423.18 2352.76,1423.18 "/>
<polyline clip-path="url(#clip150)" style="stroke:#000000; stroke-linecap:round; stroke-linejoin:round; stroke-width:4; stroke-opacity:1; fill:none" points="597.941,1423.18 597.941,1404.28 "/>
<polyline clip-path="url(#clip150)" style="stroke:#000000; stroke-linecap:round; stroke-linejoin:round; stroke-width:4; stroke-opacity:1; fill:none" points="1021.55,1423.18 1021.55,1404.28 "/>
<polyline clip-path="url(#clip150)" style="stroke:#000000; stroke-linecap:round; stroke-linejoin:round; stroke-width:4; stroke-opacity:1; fill:none" points="1445.17,1423.18 1445.17,1404.28 "/>
<polyline clip-path="url(#clip150)" style="stroke:#000000; stroke-linecap:round; stroke-linejoin:round; stroke-width:4; stroke-opacity:1; fill:none" points="1868.78,1423.18 1868.78,1404.28 "/>
<polyline clip-path="url(#clip150)" style="stroke:#000000; stroke-linecap:round; stroke-linejoin:round; stroke-width:4; stroke-opacity:1; fill:none" points="2292.39,1423.18 2292.39,1404.28 "/>
<path clip-path="url(#clip150)" d="M592.593 1481.64 L608.913 1481.64 L608.913 1485.58 L586.968 1485.58 L586.968 1481.64 Q589.63 1478.89 594.214 1474.26 Q598.82 1469.61 600.001 1468.27 Q602.246 1465.74 603.126 1464.01 Q604.028 1462.25 604.028 1460.56 Q604.028 1457.8 602.084 1456.07 Q600.163 1454.33 597.061 1454.33 Q594.862 1454.33 592.408 1455.09 Q589.978 1455.86 587.2 1457.41 L587.2 1452.69 Q590.024 1451.55 592.478 1450.97 Q594.931 1450.39 596.968 1450.39 Q602.339 1450.39 605.533 1453.08 Q608.728 1455.77 608.728 1460.26 Q608.728 1462.39 607.917 1464.31 Q607.13 1466.2 605.024 1468.8 Q604.445 1469.47 601.343 1472.69 Q598.241 1475.88 592.593 1481.64 Z" fill="#000000" fill-rule="nonzero" fill-opacity="1" /><path clip-path="url(#clip150)" d="M1024.56 1455.09 L1012.76 1473.54 L1024.56 1473.54 L1024.56 1455.09 M1023.34 1451.02 L1029.22 1451.02 L1029.22 1473.54 L1034.15 1473.54 L1034.15 1477.43 L1029.22 1477.43 L1029.22 1485.58 L1024.56 1485.58 L1024.56 1477.43 L1008.96 1477.43 L1008.96 1472.92 L1023.34 1451.02 Z" fill="#000000" fill-rule="nonzero" fill-opacity="1" /><path clip-path="url(#clip150)" d="M1445.57 1466.44 Q1442.42 1466.44 1440.57 1468.59 Q1438.74 1470.74 1438.74 1474.49 Q1438.74 1478.22 1440.57 1480.39 Q1442.42 1482.55 1445.57 1482.55 Q1448.72 1482.55 1450.55 1480.39 Q1452.4 1478.22 1452.4 1474.49 Q1452.4 1470.74 1450.55 1468.59 Q1448.72 1466.44 1445.57 1466.44 M1454.85 1451.78 L1454.85 1456.04 Q1453.09 1455.21 1451.29 1454.77 Q1449.51 1454.33 1447.75 1454.33 Q1443.12 1454.33 1440.66 1457.45 Q1438.23 1460.58 1437.89 1466.9 Q1439.25 1464.89 1441.31 1463.82 Q1443.37 1462.73 1445.85 1462.73 Q1451.06 1462.73 1454.07 1465.9 Q1457.1 1469.05 1457.1 1474.49 Q1457.1 1479.82 1453.95 1483.03 Q1450.8 1486.25 1445.57 1486.25 Q1439.58 1486.25 1436.4 1481.67 Q1433.23 1477.06 1433.23 1468.33 Q1433.23 1460.14 1437.12 1455.28 Q1441.01 1450.39 1447.56 1450.39 Q1449.32 1450.39 1451.1 1450.74 Q1452.91 1451.09 1454.85 1451.78 Z" fill="#000000" fill-rule="nonzero" fill-opacity="1" /><path clip-path="url(#clip150)" d="M1868.78 1469.17 Q1865.45 1469.17 1863.52 1470.95 Q1861.63 1472.73 1861.63 1475.86 Q1861.63 1478.98 1863.52 1480.77 Q1865.45 1482.55 1868.78 1482.55 Q1872.11 1482.55 1874.03 1480.77 Q1875.95 1478.96 1875.95 1475.86 Q1875.95 1472.73 1874.03 1470.95 Q1872.13 1469.17 1868.78 1469.17 M1864.1 1467.18 Q1861.09 1466.44 1859.4 1464.38 Q1857.74 1462.32 1857.74 1459.35 Q1857.74 1455.21 1860.68 1452.8 Q1863.64 1450.39 1868.78 1450.39 Q1873.94 1450.39 1876.88 1452.8 Q1879.82 1455.21 1879.82 1459.35 Q1879.82 1462.32 1878.13 1464.38 Q1876.46 1466.44 1873.48 1467.18 Q1876.86 1467.96 1878.73 1470.26 Q1880.63 1472.55 1880.63 1475.86 Q1880.63 1480.88 1877.55 1483.57 Q1874.5 1486.25 1868.78 1486.25 Q1863.06 1486.25 1859.98 1483.57 Q1856.93 1480.88 1856.93 1475.86 Q1856.93 1472.55 1858.82 1470.26 Q1860.72 1467.96 1864.1 1467.18 M1862.39 1459.79 Q1862.39 1462.48 1864.06 1463.98 Q1865.75 1465.49 1868.78 1465.49 Q1871.79 1465.49 1873.48 1463.98 Q1875.19 1462.48 1875.19 1459.79 Q1875.19 1457.11 1873.48 1455.6 Q1871.79 1454.1 1868.78 1454.1 Q1865.75 1454.1 1864.06 1455.6 Q1862.39 1457.11 1862.39 1459.79 Z" fill="#000000" fill-rule="nonzero" fill-opacity="1" /><path clip-path="url(#clip150)" d="M2267.08 1481.64 L2274.72 1481.64 L2274.72 1455.28 L2266.41 1456.95 L2266.41 1452.69 L2274.67 1451.02 L2279.35 1451.02 L2279.35 1481.64 L2286.99 1481.64 L2286.99 1485.58 L2267.08 1485.58 L2267.08 1481.64 Z" fill="#000000" fill-rule="nonzero" fill-opacity="1" /><path clip-path="url(#clip150)" d="M2306.43 1454.1 Q2302.82 1454.1 2300.99 1457.66 Q2299.19 1461.2 2299.19 1468.33 Q2299.19 1475.44 2300.99 1479.01 Q2302.82 1482.55 2306.43 1482.55 Q2310.06 1482.55 2311.87 1479.01 Q2313.7 1475.44 2313.7 1468.33 Q2313.7 1461.2 2311.87 1457.66 Q2310.06 1454.1 2306.43 1454.1 M2306.43 1450.39 Q2312.24 1450.39 2315.3 1455 Q2318.37 1459.58 2318.37 1468.33 Q2318.37 1477.06 2315.3 1481.67 Q2312.24 1486.25 2306.43 1486.25 Q2300.62 1486.25 2297.54 1481.67 Q2294.49 1477.06 2294.49 1468.33 Q2294.49 1459.58 2297.54 1455 Q2300.62 1450.39 2306.43 1450.39 Z" fill="#000000" fill-rule="nonzero" fill-opacity="1" /><path clip-path="url(#clip150)" d="M1102.68 1522.08 L1102.68 1528.35 Q1099.02 1526.6 1095.77 1525.74 Q1092.52 1524.88 1089.5 1524.88 Q1084.25 1524.88 1081.38 1526.92 Q1078.55 1528.96 1078.55 1532.71 Q1078.55 1535.87 1080.43 1537.49 Q1082.34 1539.08 1087.62 1540.07 L1091.5 1540.86 Q1098.7 1542.23 1102.1 1545.7 Q1105.54 1549.14 1105.54 1554.93 Q1105.54 1561.84 1100.89 1565.4 Q1096.28 1568.97 1087.34 1568.97 Q1083.96 1568.97 1080.14 1568.2 Q1076.35 1567.44 1072.28 1565.94 L1072.28 1559.32 Q1076.2 1561.52 1079.95 1562.63 Q1083.71 1563.75 1087.34 1563.75 Q1092.84 1563.75 1095.83 1561.58 Q1098.83 1559.42 1098.83 1555.41 Q1098.83 1551.91 1096.66 1549.93 Q1094.53 1547.96 1089.63 1546.97 L1085.71 1546.21 Q1078.52 1544.78 1075.3 1541.72 Q1072.09 1538.67 1072.09 1533.22 Q1072.09 1526.92 1076.51 1523.29 Q1080.97 1519.66 1088.77 1519.66 Q1092.11 1519.66 1095.58 1520.27 Q1099.05 1520.87 1102.68 1522.08 Z" fill="#000000" fill-rule="nonzero" fill-opacity="1" /><path clip-path="url(#clip150)" d="M1115.31 1532.4 L1121.17 1532.4 L1121.17 1568.04 L1115.31 1568.04 L1115.31 1532.4 M1115.31 1518.52 L1121.17 1518.52 L1121.17 1525.93 L1115.31 1525.93 L1115.31 1518.52 Z" fill="#000000" fill-rule="nonzero" fill-opacity="1" /><path clip-path="url(#clip150)" d="M1130.88 1532.4 L1158.69 1532.4 L1158.69 1537.74 L1136.67 1563.37 L1158.69 1563.37 L1158.69 1568.04 L1130.08 1568.04 L1130.08 1562.7 L1152.11 1537.07 L1130.88 1537.07 L1130.88 1532.4 Z" fill="#000000" fill-rule="nonzero" fill-opacity="1" /><path clip-path="url(#clip150)" d="M1198.13 1548.76 L1198.13 1551.62 L1171.2 1551.62 Q1171.59 1557.67 1174.83 1560.85 Q1178.11 1564 1183.93 1564 Q1187.31 1564 1190.46 1563.17 Q1193.64 1562.35 1196.76 1560.69 L1196.76 1566.23 Q1193.61 1567.57 1190.3 1568.27 Q1186.99 1568.97 1183.58 1568.97 Q1175.05 1568.97 1170.06 1564 Q1165.09 1559.04 1165.09 1550.57 Q1165.09 1541.82 1169.8 1536.69 Q1174.55 1531.54 1182.57 1531.54 Q1189.76 1531.54 1193.93 1536.18 Q1198.13 1540.8 1198.13 1548.76 M1192.27 1547.04 Q1192.21 1542.23 1189.57 1539.37 Q1186.96 1536.5 1182.63 1536.5 Q1177.73 1536.5 1174.77 1539.27 Q1171.84 1542.04 1171.39 1547.07 L1192.27 1547.04 Z" fill="#000000" fill-rule="nonzero" fill-opacity="1" /><path clip-path="url(#clip150)" d="M1244.66 1550.12 Q1237.57 1550.12 1234.83 1551.75 Q1232.09 1553.37 1232.09 1557.29 Q1232.09 1560.4 1234.13 1562.25 Q1236.2 1564.07 1239.73 1564.07 Q1244.6 1564.07 1247.53 1560.63 Q1250.49 1557.16 1250.49 1551.43 L1250.49 1550.12 L1244.66 1550.12 M1256.34 1547.71 L1256.34 1568.04 L1250.49 1568.04 L1250.49 1562.63 Q1248.48 1565.88 1245.49 1567.44 Q1242.5 1568.97 1238.17 1568.97 Q1232.7 1568.97 1229.45 1565.91 Q1226.23 1562.82 1226.23 1557.67 Q1226.23 1551.65 1230.25 1548.6 Q1234.29 1545.54 1242.28 1545.54 L1250.49 1545.54 L1250.49 1544.97 Q1250.49 1540.93 1247.81 1538.73 Q1245.17 1536.5 1240.37 1536.5 Q1237.31 1536.5 1234.41 1537.23 Q1231.52 1537.97 1228.84 1539.43 L1228.84 1534.02 Q1232.06 1532.78 1235.08 1532.17 Q1238.11 1531.54 1240.97 1531.54 Q1248.71 1531.54 1252.53 1535.55 Q1256.34 1539.56 1256.34 1547.71 Z" fill="#000000" fill-rule="nonzero" fill-opacity="1" /><path clip-path="url(#clip150)" d="M1274.2 1522.27 L1274.2 1532.4 L1286.26 1532.4 L1286.26 1536.95 L1274.2 1536.95 L1274.2 1556.3 Q1274.2 1560.66 1275.38 1561.9 Q1276.59 1563.14 1280.25 1563.14 L1286.26 1563.14 L1286.26 1568.04 L1280.25 1568.04 Q1273.47 1568.04 1270.89 1565.53 Q1268.31 1562.98 1268.31 1556.3 L1268.31 1536.95 L1264.02 1536.95 L1264.02 1532.4 L1268.31 1532.4 L1268.31 1522.27 L1274.2 1522.27 Z" fill="#000000" fill-rule="nonzero" fill-opacity="1" /><path clip-path="url(#clip150)" d="M1320.48 1522.27 L1320.48 1532.4 L1332.54 1532.4 L1332.54 1536.95 L1320.48 1536.95 L1320.48 1556.3 Q1320.48 1560.66 1321.66 1561.9 Q1322.87 1563.14 1326.53 1563.14 L1332.54 1563.14 L1332.54 1568.04 L1326.53 1568.04 Q1319.75 1568.04 1317.17 1565.53 Q1314.59 1562.98 1314.59 1556.3 L1314.59 1536.95 L1310.29 1536.95 L1310.29 1532.4 L1314.59 1532.4 L1314.59 1522.27 L1320.48 1522.27 Z" fill="#000000" fill-rule="nonzero" fill-opacity="1" /><path clip-path="url(#clip150)" d="M1340.24 1532.4 L1346.1 1532.4 L1346.1 1568.04 L1340.24 1568.04 L1340.24 1532.4 M1340.24 1518.52 L1346.1 1518.52 L1346.1 1525.93 L1340.24 1525.93 L1340.24 1518.52 Z" fill="#000000" fill-rule="nonzero" fill-opacity="1" /><path clip-path="url(#clip150)" d="M1386.11 1539.24 Q1388.31 1535.29 1391.36 1533.41 Q1394.42 1531.54 1398.55 1531.54 Q1404.12 1531.54 1407.15 1535.45 Q1410.17 1539.33 1410.17 1546.53 L1410.17 1568.04 L1404.28 1568.04 L1404.28 1546.72 Q1404.28 1541.59 1402.47 1539.11 Q1400.66 1536.63 1396.93 1536.63 Q1392.38 1536.63 1389.74 1539.65 Q1387.1 1542.68 1387.1 1547.9 L1387.1 1568.04 L1381.21 1568.04 L1381.21 1546.72 Q1381.21 1541.56 1379.39 1539.11 Q1377.58 1536.63 1373.79 1536.63 Q1369.3 1536.63 1366.66 1539.68 Q1364.02 1542.71 1364.02 1547.9 L1364.02 1568.04 L1358.13 1568.04 L1358.13 1532.4 L1364.02 1532.4 L1364.02 1537.93 Q1366.03 1534.66 1368.83 1533.1 Q1371.63 1531.54 1375.48 1531.54 Q1379.36 1531.54 1382.07 1533.51 Q1384.8 1535.48 1386.11 1539.24 Z" fill="#000000" fill-rule="nonzero" fill-opacity="1" /><path clip-path="url(#clip150)" d="M1452.34 1548.76 L1452.34 1551.62 L1425.42 1551.62 Q1425.8 1557.67 1429.05 1560.85 Q1432.32 1564 1438.15 1564 Q1441.52 1564 1444.67 1563.17 Q1447.86 1562.35 1450.98 1560.69 L1450.98 1566.23 Q1447.82 1567.57 1444.51 1568.27 Q1441.2 1568.97 1437.8 1568.97 Q1429.27 1568.97 1424.27 1564 Q1419.31 1559.04 1419.31 1550.57 Q1419.31 1541.82 1424.02 1536.69 Q1428.76 1531.54 1436.78 1531.54 Q1443.97 1531.54 1448.14 1536.18 Q1452.34 1540.8 1452.34 1548.76 M1446.49 1547.04 Q1446.42 1542.23 1443.78 1539.37 Q1441.17 1536.5 1436.84 1536.5 Q1431.94 1536.5 1428.98 1539.27 Q1426.05 1542.04 1425.61 1547.07 L1446.49 1547.04 Z" fill="#000000" fill-rule="nonzero" fill-opacity="1" /><path clip-path="url(#clip150)" d="M1488.47 1522.27 L1488.47 1532.4 L1500.53 1532.4 L1500.53 1536.95 L1488.47 1536.95 L1488.47 1556.3 Q1488.47 1560.66 1489.65 1561.9 Q1490.86 1563.14 1494.52 1563.14 L1500.53 1563.14 L1500.53 1568.04 L1494.52 1568.04 Q1487.74 1568.04 1485.16 1565.53 Q1482.58 1562.98 1482.58 1556.3 L1482.58 1536.95 L1478.28 1536.95 L1478.28 1532.4 L1482.58 1532.4 L1482.58 1522.27 L1488.47 1522.27 Z" fill="#000000" fill-rule="nonzero" fill-opacity="1" /><polyline clip-path="url(#clip150)" style="stroke:#000000; stroke-linecap:round; stroke-linejoin:round; stroke-width:4; stroke-opacity:1; fill:none" points="219.866,1423.18 219.866,123.472 "/>
<polyline clip-path="url(#clip150)" style="stroke:#000000; stroke-linecap:round; stroke-linejoin:round; stroke-width:4; stroke-opacity:1; fill:none" points="219.866,1187.11 238.764,1187.11 "/>
<polyline clip-path="url(#clip150)" style="stroke:#000000; stroke-linecap:round; stroke-linejoin:round; stroke-width:4; stroke-opacity:1; fill:none" points="219.866,930.016 238.764,930.016 "/>
<polyline clip-path="url(#clip150)" style="stroke:#000000; stroke-linecap:round; stroke-linejoin:round; stroke-width:4; stroke-opacity:1; fill:none" points="219.866,672.918 238.764,672.918 "/>
<polyline clip-path="url(#clip150)" style="stroke:#000000; stroke-linecap:round; stroke-linejoin:round; stroke-width:4; stroke-opacity:1; fill:none" points="219.866,415.821 238.764,415.821 "/>
<polyline clip-path="url(#clip150)" style="stroke:#000000; stroke-linecap:round; stroke-linejoin:round; stroke-width:4; stroke-opacity:1; fill:none" points="219.866,158.724 238.764,158.724 "/>
<path clip-path="url(#clip150)" d="M127.917 1172.91 Q124.306 1172.91 122.478 1176.48 Q120.672 1180.02 120.672 1187.15 Q120.672 1194.25 122.478 1197.82 Q124.306 1201.36 127.917 1201.36 Q131.552 1201.36 133.357 1197.82 Q135.186 1194.25 135.186 1187.15 Q135.186 1180.02 133.357 1176.48 Q131.552 1172.91 127.917 1172.91 M127.917 1169.21 Q133.728 1169.21 136.783 1173.81 Q139.862 1178.4 139.862 1187.15 Q139.862 1195.87 136.783 1200.48 Q133.728 1205.06 127.917 1205.06 Q122.107 1205.06 119.029 1200.48 Q115.973 1195.87 115.973 1187.15 Q115.973 1178.4 119.029 1173.81 Q122.107 1169.21 127.917 1169.21 Z" fill="#000000" fill-rule="nonzero" fill-opacity="1" /><path clip-path="url(#clip150)" d="M148.079 1198.51 L152.964 1198.51 L152.964 1204.39 L148.079 1204.39 L148.079 1198.51 Z" fill="#000000" fill-rule="nonzero" fill-opacity="1" /><path clip-path="url(#clip150)" d="M163.959 1200.46 L171.598 1200.46 L171.598 1174.09 L163.288 1175.76 L163.288 1171.5 L171.552 1169.83 L176.227 1169.83 L176.227 1200.46 L183.866 1200.46 L183.866 1204.39 L163.959 1204.39 L163.959 1200.46 Z" fill="#000000" fill-rule="nonzero" fill-opacity="1" /><path clip-path="url(#clip150)" d="M128.288 915.814 Q124.677 915.814 122.848 919.379 Q121.043 922.921 121.043 930.05 Q121.043 937.157 122.848 940.722 Q124.677 944.263 128.288 944.263 Q131.922 944.263 133.728 940.722 Q135.556 937.157 135.556 930.05 Q135.556 922.921 133.728 919.379 Q131.922 915.814 128.288 915.814 M128.288 912.111 Q134.098 912.111 137.154 916.717 Q140.232 921.301 140.232 930.05 Q140.232 938.777 137.154 943.384 Q134.098 947.967 128.288 947.967 Q122.478 947.967 119.399 943.384 Q116.343 938.777 116.343 930.05 Q116.343 921.301 119.399 916.717 Q122.478 912.111 128.288 912.111 Z" fill="#000000" fill-rule="nonzero" fill-opacity="1" /><path clip-path="url(#clip150)" d="M148.45 941.416 L153.334 941.416 L153.334 947.296 L148.45 947.296 L148.45 941.416 Z" fill="#000000" fill-rule="nonzero" fill-opacity="1" /><path clip-path="url(#clip150)" d="M167.547 943.361 L183.866 943.361 L183.866 947.296 L161.922 947.296 L161.922 943.361 Q164.584 940.606 169.167 935.976 Q173.774 931.324 174.954 929.981 Q177.2 927.458 178.079 925.722 Q178.982 923.963 178.982 922.273 Q178.982 919.518 177.038 917.782 Q175.116 916.046 172.014 916.046 Q169.815 916.046 167.362 916.81 Q164.931 917.574 162.153 919.125 L162.153 914.402 Q164.977 913.268 167.431 912.689 Q169.885 912.111 171.922 912.111 Q177.292 912.111 180.487 914.796 Q183.681 917.481 183.681 921.972 Q183.681 924.101 182.871 926.023 Q182.084 927.921 179.977 930.513 Q179.399 931.185 176.297 934.402 Q173.195 937.597 167.547 943.361 Z" fill="#000000" fill-rule="nonzero" fill-opacity="1" /><path clip-path="url(#clip150)" d="M127.339 658.717 Q123.728 658.717 121.899 662.282 Q120.093 665.824 120.093 672.953 Q120.093 680.06 121.899 683.624 Q123.728 687.166 127.339 687.166 Q130.973 687.166 132.779 683.624 Q134.607 680.06 134.607 672.953 Q134.607 665.824 132.779 662.282 Q130.973 658.717 127.339 658.717 M127.339 655.013 Q133.149 655.013 136.204 659.62 Q139.283 664.203 139.283 672.953 Q139.283 681.68 136.204 686.286 Q133.149 690.87 127.339 690.87 Q121.529 690.87 118.45 686.286 Q115.394 681.68 115.394 672.953 Q115.394 664.203 118.45 659.62 Q121.529 655.013 127.339 655.013 Z" fill="#000000" fill-rule="nonzero" fill-opacity="1" /><path clip-path="url(#clip150)" d="M147.501 684.319 L152.385 684.319 L152.385 690.198 L147.501 690.198 L147.501 684.319 Z" fill="#000000" fill-rule="nonzero" fill-opacity="1" /><path clip-path="url(#clip150)" d="M176.737 671.564 Q180.093 672.282 181.968 674.55 Q183.866 676.819 183.866 680.152 Q183.866 685.268 180.348 688.069 Q176.829 690.87 170.348 690.87 Q168.172 690.87 165.857 690.43 Q163.565 690.013 161.112 689.157 L161.112 684.643 Q163.056 685.777 165.371 686.356 Q167.686 686.935 170.209 686.935 Q174.607 686.935 176.899 685.198 Q179.214 683.462 179.214 680.152 Q179.214 677.097 177.061 675.384 Q174.931 673.648 171.112 673.648 L167.084 673.648 L167.084 669.805 L171.297 669.805 Q174.746 669.805 176.575 668.439 Q178.403 667.05 178.403 664.458 Q178.403 661.796 176.505 660.384 Q174.63 658.949 171.112 658.949 Q169.19 658.949 166.991 659.365 Q164.792 659.782 162.153 660.662 L162.153 656.495 Q164.815 655.754 167.13 655.384 Q169.468 655.013 171.528 655.013 Q176.852 655.013 179.954 657.444 Q183.056 659.851 183.056 663.972 Q183.056 666.842 181.413 668.833 Q179.769 670.8 176.737 671.564 Z" fill="#000000" fill-rule="nonzero" fill-opacity="1" /><path clip-path="url(#clip150)" d="M126.205 401.62 Q122.593 401.62 120.765 405.185 Q118.959 408.726 118.959 415.856 Q118.959 422.962 120.765 426.527 Q122.593 430.069 126.205 430.069 Q129.839 430.069 131.644 426.527 Q133.473 422.962 133.473 415.856 Q133.473 408.726 131.644 405.185 Q129.839 401.62 126.205 401.62 M126.205 397.916 Q132.015 397.916 135.07 402.523 Q138.149 407.106 138.149 415.856 Q138.149 424.583 135.07 429.189 Q132.015 433.772 126.205 433.772 Q120.394 433.772 117.316 429.189 Q114.26 424.583 114.26 415.856 Q114.26 407.106 117.316 402.523 Q120.394 397.916 126.205 397.916 Z" fill="#000000" fill-rule="nonzero" fill-opacity="1" /><path clip-path="url(#clip150)" d="M146.366 427.221 L151.251 427.221 L151.251 433.101 L146.366 433.101 L146.366 427.221 Z" fill="#000000" fill-rule="nonzero" fill-opacity="1" /><path clip-path="url(#clip150)" d="M174.283 402.615 L162.477 421.064 L174.283 421.064 L174.283 402.615 M173.056 398.541 L178.936 398.541 L178.936 421.064 L183.866 421.064 L183.866 424.953 L178.936 424.953 L178.936 433.101 L174.283 433.101 L174.283 424.953 L158.681 424.953 L158.681 420.439 L173.056 398.541 Z" fill="#000000" fill-rule="nonzero" fill-opacity="1" /><path clip-path="url(#clip150)" d="M127.686 144.522 Q124.075 144.522 122.246 148.087 Q120.441 151.629 120.441 158.758 Q120.441 165.865 122.246 169.43 Q124.075 172.971 127.686 172.971 Q131.32 172.971 133.126 169.43 Q134.954 165.865 134.954 158.758 Q134.954 151.629 133.126 148.087 Q131.32 144.522 127.686 144.522 M127.686 140.819 Q133.496 140.819 136.552 145.425 Q139.63 150.008 139.63 158.758 Q139.63 167.485 136.552 172.092 Q133.496 176.675 127.686 176.675 Q121.876 176.675 118.797 172.092 Q115.742 167.485 115.742 158.758 Q115.742 150.008 118.797 145.425 Q121.876 140.819 127.686 140.819 Z" fill="#000000" fill-rule="nonzero" fill-opacity="1" /><path clip-path="url(#clip150)" d="M147.848 170.124 L152.732 170.124 L152.732 176.004 L147.848 176.004 L147.848 170.124 Z" fill="#000000" fill-rule="nonzero" fill-opacity="1" /><path clip-path="url(#clip150)" d="M162.964 141.444 L181.32 141.444 L181.32 145.379 L167.246 145.379 L167.246 153.851 Q168.264 153.504 169.283 153.342 Q170.302 153.157 171.32 153.157 Q177.107 153.157 180.487 156.328 Q183.866 159.499 183.866 164.916 Q183.866 170.494 180.394 173.596 Q176.922 176.675 170.602 176.675 Q168.427 176.675 166.158 176.305 Q163.913 175.934 161.505 175.194 L161.505 170.494 Q163.589 171.629 165.811 172.184 Q168.033 172.74 170.51 172.74 Q174.514 172.74 176.852 170.633 Q179.19 168.527 179.19 164.916 Q179.19 161.305 176.852 159.198 Q174.514 157.092 170.51 157.092 Q168.635 157.092 166.76 157.508 Q164.908 157.925 162.964 158.805 L162.964 141.444 Z" fill="#000000" fill-rule="nonzero" fill-opacity="1" /><path clip-path="url(#clip150)" d="M18.0438 1055.28 L24.314 1055.28 Q22.5634 1058.94 21.704 1062.19 Q20.8447 1065.43 20.8447 1068.46 Q20.8447 1073.71 22.8817 1076.57 Q24.9187 1079.41 28.6745 1079.41 Q31.8255 1079.41 33.4488 1077.53 Q35.0402 1075.62 36.0269 1070.33 L36.8226 1066.45 Q38.1912 1059.26 41.6605 1055.85 Q45.098 1052.41 50.8908 1052.41 Q57.7976 1052.41 61.3624 1057.06 Q64.9272 1061.68 64.9272 1070.62 Q64.9272 1073.99 64.1633 1077.81 Q63.3994 1081.6 61.9035 1085.68 L55.2831 1085.68 Q57.4793 1081.76 58.5933 1078 Q59.7073 1074.25 59.7073 1070.62 Q59.7073 1065.11 57.543 1062.12 Q55.3786 1059.13 51.3682 1059.13 Q47.8671 1059.13 45.8937 1061.29 Q43.9204 1063.43 42.9337 1068.33 L42.1698 1072.24 Q40.7375 1079.44 37.682 1082.65 Q34.6264 1085.87 29.1837 1085.87 Q22.8817 1085.87 19.2532 1081.44 Q15.6248 1076.99 15.6248 1069.19 Q15.6248 1065.85 16.2295 1062.38 Q16.8343 1058.91 18.0438 1055.28 Z" fill="#000000" fill-rule="nonzero" fill-opacity="1" /><path clip-path="url(#clip150)" d="M49.9359 1043.25 L28.3562 1043.25 L28.3562 1037.39 L49.7131 1037.39 Q54.7739 1037.39 57.3202 1035.42 Q59.8346 1033.44 59.8346 1029.5 Q59.8346 1024.76 56.8109 1022.02 Q53.7872 1019.25 48.5673 1019.25 L28.3562 1019.25 L28.3562 1013.39 L64.0042 1013.39 L64.0042 1019.25 L58.5296 1019.25 Q61.7762 1021.38 63.3676 1024.21 Q64.9272 1027.02 64.9272 1030.74 Q64.9272 1036.88 61.1078 1040.07 Q57.2883 1043.25 49.9359 1043.25 M27.4968 1028.51 L27.4968 1028.51 Z" fill="#000000" fill-rule="nonzero" fill-opacity="1" /><path clip-path="url(#clip150)" d="M33.8307 980.673 Q33.2578 981.66 33.0032 982.837 Q32.7167 983.983 32.7167 985.384 Q32.7167 990.349 35.9632 993.022 Q39.1779 995.664 45.2253 995.664 L64.0042 995.664 L64.0042 1001.55 L28.3562 1001.55 L28.3562 995.664 L33.8944 995.664 Q30.6479 993.818 29.0883 990.858 Q27.4968 987.898 27.4968 983.665 Q27.4968 983.06 27.5923 982.328 Q27.656 981.596 27.8151 980.705 L33.8307 980.673 Z" fill="#000000" fill-rule="nonzero" fill-opacity="1" /><path clip-path="url(#clip150)" d="M28.3562 978.731 L28.3562 972.525 L58.275 961.385 L28.3562 950.245 L28.3562 944.038 L64.0042 957.406 L64.0042 965.363 L28.3562 978.731 Z" fill="#000000" fill-rule="nonzero" fill-opacity="1" /><path clip-path="url(#clip150)" d="M28.3562 935.954 L28.3562 930.097 L64.0042 930.097 L64.0042 935.954 L28.3562 935.954 M14.479 935.954 L14.479 930.097 L21.895 930.097 L21.895 935.954 L14.479 935.954 Z" fill="#000000" fill-rule="nonzero" fill-opacity="1" /><path clip-path="url(#clip150)" d="M28.3562 922.045 L28.3562 915.838 L58.275 904.698 L28.3562 893.558 L28.3562 887.352 L64.0042 900.72 L64.0042 908.677 L28.3562 922.045 Z" fill="#000000" fill-rule="nonzero" fill-opacity="1" /><path clip-path="url(#clip150)" d="M46.0847 863.067 Q46.0847 870.164 47.7079 872.902 Q49.3312 875.639 53.2461 875.639 Q56.3653 875.639 58.2114 873.602 Q60.0256 871.533 60.0256 868 Q60.0256 863.13 56.5881 860.202 Q53.1188 857.242 47.3897 857.242 L46.0847 857.242 L46.0847 863.067 M43.6657 851.385 L64.0042 851.385 L64.0042 857.242 L58.5933 857.242 Q61.8398 859.247 63.3994 862.239 Q64.9272 865.231 64.9272 869.56 Q64.9272 875.034 61.8716 878.281 Q58.7843 881.495 53.6281 881.495 Q47.6125 881.495 44.5569 877.485 Q41.5014 873.443 41.5014 865.454 L41.5014 857.242 L40.9285 857.242 Q36.8862 857.242 34.6901 859.916 Q32.4621 862.557 32.4621 867.363 Q32.4621 870.419 33.1941 873.315 Q33.9262 876.212 35.3903 878.885 L29.9795 878.885 Q28.7381 875.671 28.1334 872.647 Q27.4968 869.623 27.4968 866.759 Q27.4968 859.024 31.5072 855.205 Q35.5176 851.385 43.6657 851.385 Z" fill="#000000" fill-rule="nonzero" fill-opacity="1" /><path clip-path="url(#clip150)" d="M14.479 839.322 L14.479 833.466 L64.0042 833.466 L64.0042 839.322 L14.479 839.322 Z" fill="#000000" fill-rule="nonzero" fill-opacity="1" /><path clip-path="url(#clip150)" d="M58.657 794.826 L77.5631 794.826 L77.5631 800.714 L28.3562 800.714 L28.3562 794.826 L33.7671 794.826 Q30.5842 792.98 29.0564 790.179 Q27.4968 787.346 27.4968 783.432 Q27.4968 776.939 32.6531 772.896 Q37.8093 768.822 46.212 768.822 Q54.6147 768.822 59.771 772.896 Q64.9272 776.939 64.9272 783.432 Q64.9272 787.346 63.3994 790.179 Q61.8398 792.98 58.657 794.826 M46.212 774.901 Q39.7508 774.901 36.0905 777.575 Q32.3984 780.217 32.3984 784.864 Q32.3984 789.511 36.0905 792.184 Q39.7508 794.826 46.212 794.826 Q52.6732 794.826 56.3653 792.184 Q60.0256 789.511 60.0256 784.864 Q60.0256 780.217 56.3653 777.575 Q52.6732 774.901 46.212 774.901 Z" fill="#000000" fill-rule="nonzero" fill-opacity="1" /><path clip-path="url(#clip150)" d="M33.8307 738.458 Q33.2578 739.445 33.0032 740.622 Q32.7167 741.768 32.7167 743.168 Q32.7167 748.134 35.9632 750.807 Q39.1779 753.449 45.2253 753.449 L64.0042 753.449 L64.0042 759.337 L28.3562 759.337 L28.3562 753.449 L33.8944 753.449 Q30.6479 751.603 29.0883 748.643 Q27.4968 745.683 27.4968 741.45 Q27.4968 740.845 27.5923 740.113 Q27.656 739.381 27.8151 738.49 L33.8307 738.458 Z" fill="#000000" fill-rule="nonzero" fill-opacity="1" /><path clip-path="url(#clip150)" d="M32.4621 719.934 Q32.4621 724.644 36.1542 727.381 Q39.8145 730.119 46.212 730.119 Q52.6095 730.119 56.3017 727.413 Q59.9619 724.676 59.9619 719.934 Q59.9619 715.255 56.2698 712.518 Q52.5777 709.78 46.212 709.78 Q39.8781 709.78 36.186 712.518 Q32.4621 715.255 32.4621 719.934 M27.4968 719.934 Q27.4968 712.295 32.4621 707.934 Q37.4273 703.574 46.212 703.574 Q54.9649 703.574 59.9619 707.934 Q64.9272 712.295 64.9272 719.934 Q64.9272 727.604 59.9619 731.965 Q54.9649 736.293 46.212 736.293 Q37.4273 736.293 32.4621 731.965 Q27.4968 727.604 27.4968 719.934 Z" fill="#000000" fill-rule="nonzero" fill-opacity="1" /><path clip-path="url(#clip150)" d="M46.212 668.276 Q39.7508 668.276 36.0905 670.95 Q32.3984 673.591 32.3984 678.238 Q32.3984 682.885 36.0905 685.559 Q39.7508 688.201 46.212 688.201 Q52.6732 688.201 56.3653 685.559 Q60.0256 682.885 60.0256 678.238 Q60.0256 673.591 56.3653 670.95 Q52.6732 668.276 46.212 668.276 M33.7671 688.201 Q30.5842 686.355 29.0564 683.554 Q27.4968 680.721 27.4968 676.806 Q27.4968 670.313 32.6531 666.271 Q37.8093 662.197 46.212 662.197 Q54.6147 662.197 59.771 666.271 Q64.9272 670.313 64.9272 676.806 Q64.9272 680.721 63.3994 683.554 Q61.8398 686.355 58.657 688.201 L64.0042 688.201 L64.0042 694.089 L14.479 694.089 L14.479 688.201 L33.7671 688.201 Z" fill="#000000" fill-rule="nonzero" fill-opacity="1" /><path clip-path="url(#clip150)" d="M46.0847 636.288 Q46.0847 643.386 47.7079 646.123 Q49.3312 648.861 53.2461 648.861 Q56.3653 648.861 58.2114 646.823 Q60.0256 644.755 60.0256 641.222 Q60.0256 636.352 56.5881 633.424 Q53.1188 630.464 47.3897 630.464 L46.0847 630.464 L46.0847 636.288 M43.6657 624.607 L64.0042 624.607 L64.0042 630.464 L58.5933 630.464 Q61.8398 632.469 63.3994 635.461 Q64.9272 638.453 64.9272 642.781 Q64.9272 648.256 61.8716 651.502 Q58.7843 654.717 53.6281 654.717 Q47.6125 654.717 44.5569 650.707 Q41.5014 646.664 41.5014 638.675 L41.5014 630.464 L40.9285 630.464 Q36.8862 630.464 34.6901 633.137 Q32.4621 635.779 32.4621 640.585 Q32.4621 643.641 33.1941 646.537 Q33.9262 649.433 35.3903 652.107 L29.9795 652.107 Q28.7381 648.892 28.1334 645.869 Q27.4968 642.845 27.4968 639.98 Q27.4968 632.246 31.5072 628.427 Q35.5176 624.607 43.6657 624.607 Z" fill="#000000" fill-rule="nonzero" fill-opacity="1" /><path clip-path="url(#clip150)" d="M46.212 586.954 Q39.7508 586.954 36.0905 589.628 Q32.3984 592.269 32.3984 596.916 Q32.3984 601.563 36.0905 604.237 Q39.7508 606.879 46.212 606.879 Q52.6732 606.879 56.3653 604.237 Q60.0256 601.563 60.0256 596.916 Q60.0256 592.269 56.3653 589.628 Q52.6732 586.954 46.212 586.954 M33.7671 606.879 Q30.5842 605.033 29.0564 602.232 Q27.4968 599.399 27.4968 595.484 Q27.4968 588.991 32.6531 584.949 Q37.8093 580.875 46.212 580.875 Q54.6147 580.875 59.771 584.949 Q64.9272 588.991 64.9272 595.484 Q64.9272 599.399 63.3994 602.232 Q61.8398 605.033 58.657 606.879 L64.0042 606.879 L64.0042 612.767 L14.479 612.767 L14.479 606.879 L33.7671 606.879 Z" fill="#000000" fill-rule="nonzero" fill-opacity="1" /><path clip-path="url(#clip150)" d="M28.3562 571.167 L28.3562 565.311 L64.0042 565.311 L64.0042 571.167 L28.3562 571.167 M14.479 571.167 L14.479 565.311 L21.895 565.311 L21.895 571.167 L14.479 571.167 Z" fill="#000000" fill-rule="nonzero" fill-opacity="1" /><path clip-path="url(#clip150)" d="M14.479 553.057 L14.479 547.2 L64.0042 547.2 L64.0042 553.057 L14.479 553.057 Z" fill="#000000" fill-rule="nonzero" fill-opacity="1" /><path clip-path="url(#clip150)" d="M28.3562 534.946 L28.3562 529.09 L64.0042 529.09 L64.0042 534.946 L28.3562 534.946 M14.479 534.946 L14.479 529.09 L21.895 529.09 L21.895 534.946 L14.479 534.946 Z" fill="#000000" fill-rule="nonzero" fill-opacity="1" /><path clip-path="url(#clip150)" d="M18.2347 511.043 L28.3562 511.043 L28.3562 498.98 L32.9077 498.98 L32.9077 511.043 L52.2594 511.043 Q56.6199 511.043 57.8613 509.865 Q59.1026 508.656 59.1026 504.996 L59.1026 498.98 L64.0042 498.98 L64.0042 504.996 Q64.0042 511.775 61.4897 514.353 Q58.9434 516.931 52.2594 516.931 L32.9077 516.931 L32.9077 521.228 L28.3562 521.228 L28.3562 516.931 L18.2347 516.931 L18.2347 511.043 Z" fill="#000000" fill-rule="nonzero" fill-opacity="1" /><path clip-path="url(#clip150)" d="M67.3143 476.445 Q73.68 478.928 75.6216 481.283 Q77.5631 483.639 77.5631 487.585 L77.5631 492.264 L72.6615 492.264 L72.6615 488.827 Q72.6615 486.408 71.5157 485.071 Q70.3699 483.734 66.1048 482.111 L63.4312 481.06 L28.3562 495.479 L28.3562 489.272 L56.238 478.132 L28.3562 466.992 L28.3562 460.786 L67.3143 476.445 Z" fill="#000000" fill-rule="nonzero" fill-opacity="1" /><path clip-path="url(#clip150)" d="M666.462 43.6931 L666.462 65.8515 L679.587 65.8515 Q686.19 65.8515 689.35 63.1374 Q692.55 60.3828 692.55 54.752 Q692.55 49.0808 689.35 46.4072 Q686.19 43.6931 679.587 43.6931 L666.462 43.6931 M666.462 18.8205 L666.462 37.0496 L678.574 37.0496 Q684.57 37.0496 687.486 34.8216 Q690.443 32.5531 690.443 27.935 Q690.443 23.3575 687.486 21.089 Q684.57 18.8205 678.574 18.8205 L666.462 18.8205 M658.279 12.096 L679.182 12.096 Q688.539 12.096 693.603 15.9849 Q698.667 19.8737 698.667 27.0438 Q698.667 32.5936 696.074 35.8748 Q693.482 39.156 688.458 39.9662 Q694.494 41.2625 697.816 45.3944 Q701.178 49.4858 701.178 55.6432 Q701.178 63.745 695.669 68.1605 Q690.16 72.576 679.992 72.576 L658.279 72.576 L658.279 12.096 Z" fill="#000000" fill-rule="nonzero" fill-opacity="1" /><path clip-path="url(#clip150)" d="M753.678 48.0275 L753.678 51.6733 L719.407 51.6733 Q719.893 59.3701 724.025 63.421 Q728.198 67.4314 735.611 67.4314 Q739.905 67.4314 743.915 66.3781 Q747.966 65.3249 751.936 63.2184 L751.936 70.267 Q747.926 71.9684 743.713 72.8596 Q739.5 73.7508 735.165 73.7508 Q724.309 73.7508 717.949 67.4314 Q711.63 61.1119 711.63 50.3365 Q711.63 39.1965 717.625 32.6746 Q723.661 26.1121 733.869 26.1121 Q743.024 26.1121 748.331 32.0264 Q753.678 37.9003 753.678 48.0275 M746.224 45.84 Q746.143 39.7232 742.781 36.0774 Q739.459 32.4315 733.95 32.4315 Q727.712 32.4315 723.944 35.9558 Q720.217 39.4801 719.65 45.8805 L746.224 45.84 Z" fill="#000000" fill-rule="nonzero" fill-opacity="1" /><path clip-path="url(#clip150)" d="M794.835 28.5427 L794.835 35.5912 Q791.675 33.9709 788.273 33.1607 Q784.87 32.3505 781.224 32.3505 Q775.674 32.3505 772.879 34.0519 Q770.125 35.7533 770.125 39.156 Q770.125 41.7486 772.11 43.2475 Q774.095 44.7058 780.09 46.0426 L782.642 46.6097 Q790.582 48.3111 793.903 51.4303 Q797.266 54.509 797.266 60.0587 Q797.266 66.3781 792.243 70.0644 Q787.26 73.7508 778.51 73.7508 Q774.864 73.7508 770.894 73.0216 Q766.965 72.3329 762.59 70.9151 L762.59 63.2184 Q766.722 65.3654 770.732 66.4591 Q774.743 67.5124 778.672 67.5124 Q783.938 67.5124 786.774 65.73 Q789.609 63.9071 789.609 60.6258 Q789.609 57.5877 787.544 55.9673 Q785.518 54.3469 778.591 52.8481 L775.998 52.2405 Q769.071 50.7821 765.993 47.7845 Q762.914 44.7463 762.914 39.4801 Q762.914 33.0797 767.451 29.5959 Q771.988 26.1121 780.333 26.1121 Q784.465 26.1121 788.111 26.7198 Q791.756 27.3274 794.835 28.5427 Z" fill="#000000" fill-rule="nonzero" fill-opacity="1" /><path clip-path="url(#clip150)" d="M816.507 14.324 L816.507 27.2059 L831.86 27.2059 L831.86 32.9987 L816.507 32.9987 L816.507 57.6282 Q816.507 63.1779 818.006 64.7578 Q819.546 66.3376 824.204 66.3376 L831.86 66.3376 L831.86 72.576 L824.204 72.576 Q815.576 72.576 812.295 69.3758 Q809.013 66.1351 809.013 57.6282 L809.013 32.9987 L803.545 32.9987 L803.545 27.2059 L809.013 27.2059 L809.013 14.324 L816.507 14.324 Z" fill="#000000" fill-rule="nonzero" fill-opacity="1" /><path clip-path="url(#clip150)" d="M837.896 46.5287 L859.731 46.5287 L859.731 53.1722 L837.896 53.1722 L837.896 46.5287 Z" fill="#000000" fill-rule="nonzero" fill-opacity="1" /><path clip-path="url(#clip150)" d="M900.523 28.5427 L900.523 35.5912 Q897.364 33.9709 893.961 33.1607 Q890.558 32.3505 886.912 32.3505 Q881.362 32.3505 878.567 34.0519 Q875.813 35.7533 875.813 39.156 Q875.813 41.7486 877.798 43.2475 Q879.783 44.7058 885.778 46.0426 L888.33 46.6097 Q896.27 48.3111 899.592 51.4303 Q902.954 54.509 902.954 60.0587 Q902.954 66.3781 897.931 70.0644 Q892.948 73.7508 884.198 73.7508 Q880.552 73.7508 876.582 73.0216 Q872.653 72.3329 868.278 70.9151 L868.278 63.2184 Q872.41 65.3654 876.42 66.4591 Q880.431 67.5124 884.36 67.5124 Q889.626 67.5124 892.462 65.73 Q895.298 63.9071 895.298 60.6258 Q895.298 57.5877 893.232 55.9673 Q891.206 54.3469 884.279 52.8481 L881.687 52.2405 Q874.759 50.7821 871.681 47.7845 Q868.602 44.7463 868.602 39.4801 Q868.602 33.0797 873.139 29.5959 Q877.676 26.1121 886.021 26.1121 Q890.153 26.1121 893.799 26.7198 Q897.445 27.3274 900.523 28.5427 Z" fill="#000000" fill-rule="nonzero" fill-opacity="1" /><path clip-path="url(#clip150)" d="M914.053 54.671 L914.053 27.2059 L921.507 27.2059 L921.507 54.3874 Q921.507 60.8284 924.018 64.0691 Q926.53 67.2693 931.553 67.2693 Q937.589 67.2693 941.073 63.421 Q944.597 59.5726 944.597 52.9291 L944.597 27.2059 L952.051 27.2059 L952.051 72.576 L944.597 72.576 L944.597 65.6084 Q941.883 69.7404 938.278 71.7658 Q934.713 73.7508 929.973 73.7508 Q922.155 73.7508 918.104 68.8897 Q914.053 64.0286 914.053 54.671 M932.809 26.1121 L932.809 26.1121 Z" fill="#000000" fill-rule="nonzero" fill-opacity="1" /><path clip-path="url(#clip150)" d="M974.614 65.7705 L974.614 89.8329 L967.12 89.8329 L967.12 27.2059 L974.614 27.2059 L974.614 34.0924 Q976.964 30.0415 980.529 28.0971 Q984.134 26.1121 989.116 26.1121 Q997.38 26.1121 1002.52 32.6746 Q1007.71 39.2371 1007.71 49.9314 Q1007.71 60.6258 1002.52 67.1883 Q997.38 73.7508 989.116 73.7508 Q984.134 73.7508 980.529 71.8063 Q976.964 69.8214 974.614 65.7705 M999.973 49.9314 Q999.973 41.7081 996.57 37.0496 Q993.208 32.3505 987.294 32.3505 Q981.379 32.3505 977.977 37.0496 Q974.614 41.7081 974.614 49.9314 Q974.614 58.1548 977.977 62.8538 Q981.379 67.5124 987.294 67.5124 Q993.208 67.5124 996.57 62.8538 Q999.973 58.1548 999.973 49.9314 Z" fill="#000000" fill-rule="nonzero" fill-opacity="1" /><path clip-path="url(#clip150)" d="M1027.28 65.7705 L1027.28 89.8329 L1019.78 89.8329 L1019.78 27.2059 L1027.28 27.2059 L1027.28 34.0924 Q1029.63 30.0415 1033.19 28.0971 Q1036.8 26.1121 1041.78 26.1121 Q1050.04 26.1121 1055.19 32.6746 Q1060.37 39.2371 1060.37 49.9314 Q1060.37 60.6258 1055.19 67.1883 Q1050.04 73.7508 1041.78 73.7508 Q1036.8 73.7508 1033.19 71.8063 Q1029.63 69.8214 1027.28 65.7705 M1052.63 49.9314 Q1052.63 41.7081 1049.23 37.0496 Q1045.87 32.3505 1039.96 32.3505 Q1034.04 32.3505 1030.64 37.0496 Q1027.28 41.7081 1027.28 49.9314 Q1027.28 58.1548 1030.64 62.8538 Q1034.04 67.5124 1039.96 67.5124 Q1045.87 67.5124 1049.23 62.8538 Q1052.63 58.1548 1052.63 49.9314 Z" fill="#000000" fill-rule="nonzero" fill-opacity="1" /><path clip-path="url(#clip150)" d="M1090.31 32.4315 Q1084.31 32.4315 1080.83 37.1306 Q1077.35 41.7891 1077.35 49.9314 Q1077.35 58.0738 1080.79 62.7728 Q1084.27 67.4314 1090.31 67.4314 Q1096.26 67.4314 1099.75 62.7323 Q1103.23 58.0333 1103.23 49.9314 Q1103.23 41.8701 1099.75 37.1711 Q1096.26 32.4315 1090.31 32.4315 M1090.31 26.1121 Q1100.03 26.1121 1105.58 32.4315 Q1111.13 38.7509 1111.13 49.9314 Q1111.13 61.0714 1105.58 67.4314 Q1100.03 73.7508 1090.31 73.7508 Q1080.55 73.7508 1075 67.4314 Q1069.49 61.0714 1069.49 49.9314 Q1069.49 38.7509 1075 32.4315 Q1080.55 26.1121 1090.31 26.1121 Z" fill="#000000" fill-rule="nonzero" fill-opacity="1" /><path clip-path="url(#clip150)" d="M1149.78 34.1734 Q1148.52 33.4443 1147.02 33.1202 Q1145.56 32.7556 1143.78 32.7556 Q1137.46 32.7556 1134.06 36.8875 Q1130.7 40.9789 1130.7 48.6757 L1130.7 72.576 L1123.2 72.576 L1123.2 27.2059 L1130.7 27.2059 L1130.7 34.2544 Q1133.05 30.1225 1136.81 28.1376 Q1140.58 26.1121 1145.97 26.1121 Q1146.74 26.1121 1147.67 26.2337 Q1148.6 26.3147 1149.73 26.5172 L1149.78 34.1734 Z" fill="#000000" fill-rule="nonzero" fill-opacity="1" /><path clip-path="url(#clip150)" d="M1164.97 14.324 L1164.97 27.2059 L1180.32 27.2059 L1180.32 32.9987 L1164.97 32.9987 L1164.97 57.6282 Q1164.97 63.1779 1166.47 64.7578 Q1168 66.3376 1172.66 66.3376 L1180.32 66.3376 L1180.32 72.576 L1172.66 72.576 Q1164.03 72.576 1160.75 69.3758 Q1157.47 66.1351 1157.47 57.6282 L1157.47 32.9987 L1152 32.9987 L1152 27.2059 L1157.47 27.2059 L1157.47 14.324 L1164.97 14.324 Z" fill="#000000" fill-rule="nonzero" fill-opacity="1" /><path clip-path="url(#clip150)" d="M1228.93 48.0275 L1228.93 51.6733 L1194.66 51.6733 Q1195.15 59.3701 1199.28 63.421 Q1203.45 67.4314 1210.86 67.4314 Q1215.16 67.4314 1219.17 66.3781 Q1223.22 65.3249 1227.19 63.2184 L1227.19 70.267 Q1223.18 71.9684 1218.96 72.8596 Q1214.75 73.7508 1210.42 73.7508 Q1199.56 73.7508 1193.2 67.4314 Q1186.88 61.1119 1186.88 50.3365 Q1186.88 39.1965 1192.88 32.6746 Q1198.91 26.1121 1209.12 26.1121 Q1218.28 26.1121 1223.58 32.0264 Q1228.93 37.9003 1228.93 48.0275 M1221.48 45.84 Q1221.4 39.7232 1218.03 36.0774 Q1214.71 32.4315 1209.2 32.4315 Q1202.96 32.4315 1199.2 35.9558 Q1195.47 39.4801 1194.9 45.8805 L1221.48 45.84 Z" fill="#000000" fill-rule="nonzero" fill-opacity="1" /><path clip-path="url(#clip150)" d="M1271.02 34.0924 L1271.02 9.54393 L1278.47 9.54393 L1278.47 72.576 L1271.02 72.576 L1271.02 65.7705 Q1268.67 69.8214 1265.06 71.8063 Q1261.5 73.7508 1256.48 73.7508 Q1248.25 73.7508 1243.07 67.1883 Q1237.92 60.6258 1237.92 49.9314 Q1237.92 39.2371 1243.07 32.6746 Q1248.25 26.1121 1256.48 26.1121 Q1261.5 26.1121 1265.06 28.0971 Q1268.67 30.0415 1271.02 34.0924 M1245.62 49.9314 Q1245.62 58.1548 1248.98 62.8538 Q1252.38 67.5124 1258.3 67.5124 Q1264.21 67.5124 1267.62 62.8538 Q1271.02 58.1548 1271.02 49.9314 Q1271.02 41.7081 1267.62 37.0496 Q1264.21 32.3505 1258.3 32.3505 Q1252.38 32.3505 1248.98 37.0496 Q1245.62 41.7081 1245.62 49.9314 Z" fill="#000000" fill-rule="nonzero" fill-opacity="1" /><path clip-path="url(#clip150)" d="M1349.12 28.5427 L1349.12 35.5912 Q1345.96 33.9709 1342.56 33.1607 Q1339.16 32.3505 1335.51 32.3505 Q1329.96 32.3505 1327.16 34.0519 Q1324.41 35.7533 1324.41 39.156 Q1324.41 41.7486 1326.39 43.2475 Q1328.38 44.7058 1334.38 46.0426 L1336.93 46.6097 Q1344.87 48.3111 1348.19 51.4303 Q1351.55 54.509 1351.55 60.0587 Q1351.55 66.3781 1346.53 70.0644 Q1341.55 73.7508 1332.8 73.7508 Q1329.15 73.7508 1325.18 73.0216 Q1321.25 72.3329 1316.88 70.9151 L1316.88 63.2184 Q1321.01 65.3654 1325.02 66.4591 Q1329.03 67.5124 1332.96 67.5124 Q1338.22 67.5124 1341.06 65.73 Q1343.89 63.9071 1343.89 60.6258 Q1343.89 57.5877 1341.83 55.9673 Q1339.8 54.3469 1332.88 52.8481 L1330.28 52.2405 Q1323.36 50.7821 1320.28 47.7845 Q1317.2 44.7463 1317.2 39.4801 Q1317.2 33.0797 1321.74 29.5959 Q1326.27 26.1121 1334.62 26.1121 Q1338.75 26.1121 1342.4 26.7198 Q1346.04 27.3274 1349.12 28.5427 Z" fill="#000000" fill-rule="nonzero" fill-opacity="1" /><path clip-path="url(#clip150)" d="M1362.65 54.671 L1362.65 27.2059 L1370.1 27.2059 L1370.1 54.3874 Q1370.1 60.8284 1372.62 64.0691 Q1375.13 67.2693 1380.15 67.2693 Q1386.19 67.2693 1389.67 63.421 Q1393.19 59.5726 1393.19 52.9291 L1393.19 27.2059 L1400.65 27.2059 L1400.65 72.576 L1393.19 72.576 L1393.19 65.6084 Q1390.48 69.7404 1386.87 71.7658 Q1383.31 73.7508 1378.57 73.7508 Q1370.75 73.7508 1366.7 68.8897 Q1362.65 64.0286 1362.65 54.671 M1381.41 26.1121 L1381.41 26.1121 Z" fill="#000000" fill-rule="nonzero" fill-opacity="1" /><path clip-path="url(#clip150)" d="M1442.29 34.1734 Q1441.04 33.4443 1439.54 33.1202 Q1438.08 32.7556 1436.3 32.7556 Q1429.98 32.7556 1426.57 36.8875 Q1423.21 40.9789 1423.21 48.6757 L1423.21 72.576 L1415.72 72.576 L1415.72 27.2059 L1423.21 27.2059 L1423.21 34.2544 Q1425.56 30.1225 1429.33 28.1376 Q1433.1 26.1121 1438.48 26.1121 Q1439.25 26.1121 1440.18 26.2337 Q1441.12 26.3147 1442.25 26.5172 L1442.29 34.1734 Z" fill="#000000" fill-rule="nonzero" fill-opacity="1" /><path clip-path="url(#clip150)" d="M1444.76 27.2059 L1452.66 27.2059 L1466.84 65.2844 L1481.02 27.2059 L1488.92 27.2059 L1471.9 72.576 L1461.78 72.576 L1444.76 27.2059 Z" fill="#000000" fill-rule="nonzero" fill-opacity="1" /><path clip-path="url(#clip150)" d="M1499.21 27.2059 L1506.66 27.2059 L1506.66 72.576 L1499.21 72.576 L1499.21 27.2059 M1499.21 9.54393 L1506.66 9.54393 L1506.66 18.9825 L1499.21 18.9825 L1499.21 9.54393 Z" fill="#000000" fill-rule="nonzero" fill-opacity="1" /><path clip-path="url(#clip150)" d="M1516.91 27.2059 L1524.81 27.2059 L1538.99 65.2844 L1553.16 27.2059 L1561.06 27.2059 L1544.05 72.576 L1533.92 72.576 L1516.91 27.2059 Z" fill="#000000" fill-rule="nonzero" fill-opacity="1" /><path clip-path="url(#clip150)" d="M1591.97 49.7694 Q1582.94 49.7694 1579.45 51.8354 Q1575.97 53.9013 1575.97 58.8839 Q1575.97 62.8538 1578.56 65.2034 Q1581.2 67.5124 1585.69 67.5124 Q1591.89 67.5124 1595.62 63.1374 Q1599.39 58.7219 1599.39 51.4303 L1599.39 49.7694 L1591.97 49.7694 M1606.84 46.6907 L1606.84 72.576 L1599.39 72.576 L1599.39 65.6895 Q1596.83 69.8214 1593.03 71.8063 Q1589.22 73.7508 1583.71 73.7508 Q1576.74 73.7508 1572.61 69.8619 Q1568.52 65.9325 1568.52 59.3701 Q1568.52 51.7138 1573.62 47.825 Q1578.77 43.9361 1588.93 43.9361 L1599.39 43.9361 L1599.39 43.2069 Q1599.39 38.0623 1595.98 35.2672 Q1592.62 32.4315 1586.5 32.4315 Q1582.61 32.4315 1578.93 33.3632 Q1575.24 34.295 1571.84 36.1584 L1571.84 29.2718 Q1575.93 27.692 1579.78 26.9223 Q1583.63 26.1121 1587.27 26.1121 Q1597.12 26.1121 1601.98 31.2163 Q1606.84 36.3204 1606.84 46.6907 Z" fill="#000000" fill-rule="nonzero" fill-opacity="1" /><path clip-path="url(#clip150)" d="M1622.19 9.54393 L1629.65 9.54393 L1629.65 72.576 L1622.19 72.576 L1622.19 9.54393 Z" fill="#000000" fill-rule="nonzero" fill-opacity="1" /><path clip-path="url(#clip150)" d="M1706.94 35.9153 Q1709.73 30.8922 1713.62 28.5022 Q1717.51 26.1121 1722.78 26.1121 Q1729.86 26.1121 1733.71 31.0947 Q1737.56 36.0368 1737.56 45.1919 L1737.56 72.576 L1730.07 72.576 L1730.07 45.4349 Q1730.07 38.913 1727.76 35.7533 Q1725.45 32.5936 1720.71 32.5936 Q1714.92 32.5936 1711.55 36.4419 Q1708.19 40.2903 1708.19 46.9338 L1708.19 72.576 L1700.7 72.576 L1700.7 45.4349 Q1700.7 38.8725 1698.39 35.7533 Q1696.08 32.5936 1691.26 32.5936 Q1685.55 32.5936 1682.19 36.4824 Q1678.82 40.3308 1678.82 46.9338 L1678.82 72.576 L1671.33 72.576 L1671.33 27.2059 L1678.82 27.2059 L1678.82 34.2544 Q1681.38 30.082 1684.94 28.0971 Q1688.51 26.1121 1693.41 26.1121 Q1698.35 26.1121 1701.79 28.6237 Q1705.28 31.1352 1706.94 35.9153 Z" fill="#000000" fill-rule="nonzero" fill-opacity="1" /><path clip-path="url(#clip150)" d="M1770.01 32.4315 Q1764.01 32.4315 1760.53 37.1306 Q1757.05 41.7891 1757.05 49.9314 Q1757.05 58.0738 1760.49 62.7728 Q1763.97 67.4314 1770.01 67.4314 Q1775.96 67.4314 1779.45 62.7323 Q1782.93 58.0333 1782.93 49.9314 Q1782.93 41.8701 1779.45 37.1711 Q1775.96 32.4315 1770.01 32.4315 M1770.01 26.1121 Q1779.73 26.1121 1785.28 32.4315 Q1790.83 38.7509 1790.83 49.9314 Q1790.83 61.0714 1785.28 67.4314 Q1779.73 73.7508 1770.01 73.7508 Q1760.25 73.7508 1754.7 67.4314 Q1749.19 61.0714 1749.19 49.9314 Q1749.19 38.7509 1754.7 32.4315 Q1760.25 26.1121 1770.01 26.1121 Z" fill="#000000" fill-rule="nonzero" fill-opacity="1" /><path clip-path="url(#clip150)" d="M1833.04 34.0924 L1833.04 9.54393 L1840.5 9.54393 L1840.5 72.576 L1833.04 72.576 L1833.04 65.7705 Q1830.69 69.8214 1827.09 71.8063 Q1823.52 73.7508 1818.5 73.7508 Q1810.28 73.7508 1805.09 67.1883 Q1799.95 60.6258 1799.95 49.9314 Q1799.95 39.2371 1805.09 32.6746 Q1810.28 26.1121 1818.5 26.1121 Q1823.52 26.1121 1827.09 28.0971 Q1830.69 30.0415 1833.04 34.0924 M1807.64 49.9314 Q1807.64 58.1548 1811 62.8538 Q1814.41 67.5124 1820.32 67.5124 Q1826.24 67.5124 1829.64 62.8538 Q1833.04 58.1548 1833.04 49.9314 Q1833.04 41.7081 1829.64 37.0496 Q1826.24 32.3505 1820.32 32.3505 Q1814.41 32.3505 1811 37.0496 Q1807.64 41.7081 1807.64 49.9314 Z" fill="#000000" fill-rule="nonzero" fill-opacity="1" /><path clip-path="url(#clip150)" d="M1894.66 48.0275 L1894.66 51.6733 L1860.38 51.6733 Q1860.87 59.3701 1865 63.421 Q1869.18 67.4314 1876.59 67.4314 Q1880.88 67.4314 1884.89 66.3781 Q1888.94 65.3249 1892.91 63.2184 L1892.91 70.267 Q1888.9 71.9684 1884.69 72.8596 Q1880.48 73.7508 1876.14 73.7508 Q1865.29 73.7508 1858.93 67.4314 Q1852.61 61.1119 1852.61 50.3365 Q1852.61 39.1965 1858.6 32.6746 Q1864.64 26.1121 1874.85 26.1121 Q1884 26.1121 1889.31 32.0264 Q1894.66 37.9003 1894.66 48.0275 M1887.2 45.84 Q1887.12 39.7232 1883.76 36.0774 Q1880.44 32.4315 1874.93 32.4315 Q1868.69 32.4315 1864.92 35.9558 Q1861.2 39.4801 1860.63 45.8805 L1887.2 45.84 Z" fill="#000000" fill-rule="nonzero" fill-opacity="1" /><path clip-path="url(#clip150)" d="M1906.89 9.54393 L1914.34 9.54393 L1914.34 72.576 L1906.89 72.576 L1906.89 9.54393 Z" fill="#000000" fill-rule="nonzero" fill-opacity="1" /><polyline clip-path="url(#clip152)" style="stroke:#009af9; stroke-linecap:round; stroke-linejoin:round; stroke-width:12; stroke-opacity:1; fill:none" points="280.231,1194.59 293.735,1178.78 307.24,1162.35 320.744,1145.32 334.249,1127.69 347.753,1109.49 361.258,1090.73 374.762,1071.44 388.267,1051.63 401.771,1031.33 415.275,1010.58 428.78,989.4 442.284,967.83 455.789,945.905 469.293,923.663 482.798,901.145 496.302,878.39 509.806,855.44 523.311,832.34 536.815,809.133 550.32,785.861 563.824,762.57 577.329,739.302 590.833,716.101 604.337,693.009 617.842,670.067 631.346,647.317 644.851,624.795 658.355,602.541 671.86,580.591 685.364,558.977 698.868,537.734 712.373,516.892 725.877,496.479 739.382,476.523 752.886,457.048 766.391,438.079 779.895,419.635 793.399,401.738 806.904,384.404 820.408,367.649 833.913,351.489 847.417,335.937 860.922,321.003 874.426,306.698 887.93,293.032 901.435,280.012 914.939,267.644 928.444,255.935 941.948,244.89 955.453,234.513 968.957,224.806 982.461,215.774 995.966,207.417 1009.47,199.739 1022.97,192.74 1036.48,186.422 1049.98,180.785 1063.49,175.83 1076.99,171.557 1090.5,167.967 1104,165.059 1117.51,162.834 1131.01,161.292 1144.51,160.433 1158.02,160.256 1171.52,160.763 1185.03,161.952 1198.53,163.824 1212.04,166.379 1225.54,169.617 1239.05,173.537 1252.55,178.14 1266.05,183.424 1279.56,189.391 1293.06,196.038 1306.57,203.366 1320.07,211.372 1333.58,220.055 1347.08,229.414 1360.59,239.445 1374.09,250.146 1387.59,261.513 1401.1,273.54 1414.6,286.224 1428.11,299.558 1441.61,313.534 1455.12,328.143 1468.62,343.378 1482.13,359.225 1495.63,375.674 1509.13,392.711 1522.64,410.319 1536.14,428.483 1549.65,447.184 1563.15,466.4 1576.66,486.11 1590.16,506.291 1603.67,526.915 1617.17,547.954 1630.67,569.38 1644.18,591.161 1657.68,613.262 1671.19,635.65 1684.69,658.287 1698.2,681.135 1711.7,704.155 1725.21,727.305 1738.71,750.543 1752.21,773.828 1765.72,797.115 1779.22,820.361 1792.73,843.522 1806.23,866.555 1819.74,889.415 1833.24,912.061 1846.74,934.451 1860.25,956.545 1873.75,978.303 1887.26,999.688 1900.76,1020.66 1914.27,1041.2 1927.77,1061.27 1941.28,1080.83 1954.78,1099.87 1968.28,1118.36 1981.79,1136.29 1995.29,1153.63 2008.8,1170.37 2022.3,1186.5 2035.81,1202.02 2049.31,1216.91 2062.82,1231.18 2076.32,1244.83 2089.82,1257.85 2103.33,1270.26 2116.83,1282.06 2130.34,1293.26 2143.84,1303.87 2157.35,1313.91 2170.85,1323.39 2184.36,1332.32 2197.86,1340.73 2211.36,1348.63 2224.87,1356.04 2238.37,1362.97 2251.88,1369.46 2265.38,1375.51 2278.89,1381.15 2292.39,1386.4 "/>
<path clip-path="url(#clip150)" d="M1811.89 270.476 L2281.66 270.476 L2281.66 166.796 L1811.89 166.796  Z" fill="#ffffff" fill-rule="evenodd" fill-opacity="1"/>
<polyline clip-path="url(#clip150)" style="stroke:#000000; stroke-linecap:round; stroke-linejoin:round; stroke-width:4; stroke-opacity:1; fill:none" points="1811.89,270.476 2281.66,270.476 2281.66,166.796 1811.89,166.796 1811.89,270.476 "/>
<polyline clip-path="url(#clip150)" style="stroke:#009af9; stroke-linecap:round; stroke-linejoin:round; stroke-width:12; stroke-opacity:1; fill:none" points="1835.59,218.636 1977.78,218.636 "/>
<path clip-path="url(#clip150)" d="M2020.25 222.976 Q2020.25 218.277 2018.31 215.615 Q2016.39 212.93 2013.01 212.93 Q2009.63 212.93 2007.68 215.615 Q2005.76 218.277 2005.76 222.976 Q2005.76 227.675 2007.68 230.36 Q2009.63 233.022 2013.01 233.022 Q2016.39 233.022 2018.31 230.36 Q2020.25 227.675 2020.25 222.976 M2005.76 213.925 Q2007.11 211.61 2009.14 210.499 Q2011.2 209.365 2014.05 209.365 Q2018.77 209.365 2021.71 213.115 Q2024.68 216.865 2024.68 222.976 Q2024.68 229.087 2021.71 232.837 Q2018.77 236.587 2014.05 236.587 Q2011.2 236.587 2009.14 235.476 Q2007.11 234.342 2005.76 232.027 L2005.76 235.916 L2001.48 235.916 L2001.48 199.897 L2005.76 199.897 L2005.76 213.925 Z" fill="#000000" fill-rule="nonzero" fill-opacity="1" /><path clip-path="url(#clip150)" d="M2053.91 221.888 L2053.91 223.971 L2034.33 223.971 Q2034.61 228.369 2036.97 230.684 Q2039.35 232.976 2043.59 232.976 Q2046.04 232.976 2048.33 232.374 Q2050.65 231.772 2052.92 230.569 L2052.92 234.596 Q2050.62 235.568 2048.22 236.078 Q2045.81 236.587 2043.33 236.587 Q2037.13 236.587 2033.49 232.976 Q2029.88 229.365 2029.88 223.207 Q2029.88 216.842 2033.31 213.115 Q2036.76 209.365 2042.59 209.365 Q2047.82 209.365 2050.86 212.745 Q2053.91 216.101 2053.91 221.888 M2049.65 220.638 Q2049.61 217.143 2047.68 215.059 Q2045.79 212.976 2042.64 212.976 Q2039.07 212.976 2036.92 214.99 Q2034.79 217.004 2034.47 220.661 L2049.65 220.638 Z" fill="#000000" fill-rule="nonzero" fill-opacity="1" /><path clip-path="url(#clip150)" d="M2077.43 210.754 L2077.43 214.782 Q2075.62 213.856 2073.68 213.393 Q2071.73 212.93 2069.65 212.93 Q2066.48 212.93 2064.88 213.902 Q2063.31 214.874 2063.31 216.819 Q2063.31 218.3 2064.44 219.157 Q2065.58 219.99 2069 220.754 L2070.46 221.078 Q2075 222.05 2076.9 223.832 Q2078.82 225.592 2078.82 228.763 Q2078.82 232.374 2075.95 234.481 Q2073.1 236.587 2068.1 236.587 Q2066.02 236.587 2063.75 236.17 Q2061.5 235.777 2059 234.967 L2059 230.569 Q2061.36 231.795 2063.66 232.42 Q2065.95 233.022 2068.19 233.022 Q2071.2 233.022 2072.82 232.004 Q2074.44 230.962 2074.44 229.087 Q2074.44 227.351 2073.26 226.425 Q2072.11 225.499 2068.15 224.643 L2066.67 224.295 Q2062.71 223.462 2060.95 221.749 Q2059.19 220.013 2059.19 217.004 Q2059.19 213.346 2061.78 211.356 Q2064.37 209.365 2069.14 209.365 Q2071.5 209.365 2073.59 209.712 Q2075.67 210.059 2077.43 210.754 Z" fill="#000000" fill-rule="nonzero" fill-opacity="1" /><path clip-path="url(#clip150)" d="M2089.81 202.629 L2089.81 209.99 L2098.59 209.99 L2098.59 213.3 L2089.81 213.3 L2089.81 227.374 Q2089.81 230.545 2090.67 231.448 Q2091.55 232.351 2094.21 232.351 L2098.59 232.351 L2098.59 235.916 L2094.21 235.916 Q2089.28 235.916 2087.41 234.087 Q2085.53 232.235 2085.53 227.374 L2085.53 213.3 L2082.41 213.3 L2082.41 209.99 L2085.53 209.99 L2085.53 202.629 L2089.81 202.629 Z" fill="#000000" fill-rule="nonzero" fill-opacity="1" /><path clip-path="url(#clip150)" d="M2139.44 214.967 Q2141.04 212.096 2143.26 210.731 Q2145.48 209.365 2148.49 209.365 Q2152.54 209.365 2154.74 212.212 Q2156.94 215.036 2156.94 220.268 L2156.94 235.916 L2152.66 235.916 L2152.66 220.407 Q2152.66 216.68 2151.34 214.874 Q2150.02 213.069 2147.31 213.069 Q2144 213.069 2142.08 215.268 Q2140.16 217.467 2140.16 221.263 L2140.16 235.916 L2135.88 235.916 L2135.88 220.407 Q2135.88 216.657 2134.56 214.874 Q2133.24 213.069 2130.48 213.069 Q2127.22 213.069 2125.3 215.291 Q2123.38 217.49 2123.38 221.263 L2123.38 235.916 L2119.1 235.916 L2119.1 209.99 L2123.38 209.99 L2123.38 214.018 Q2124.84 211.633 2126.87 210.499 Q2128.91 209.365 2131.71 209.365 Q2134.54 209.365 2136.5 210.8 Q2138.49 212.235 2139.44 214.967 Z" fill="#000000" fill-rule="nonzero" fill-opacity="1" /><path clip-path="url(#clip150)" d="M2175.48 212.976 Q2172.06 212.976 2170.07 215.661 Q2168.08 218.323 2168.08 222.976 Q2168.08 227.629 2170.04 230.314 Q2172.04 232.976 2175.48 232.976 Q2178.89 232.976 2180.88 230.291 Q2182.87 227.606 2182.87 222.976 Q2182.87 218.37 2180.88 215.684 Q2178.89 212.976 2175.48 212.976 M2175.48 209.365 Q2181.04 209.365 2184.21 212.976 Q2187.38 216.587 2187.38 222.976 Q2187.38 229.342 2184.21 232.976 Q2181.04 236.587 2175.48 236.587 Q2169.91 236.587 2166.73 232.976 Q2163.59 229.342 2163.59 222.976 Q2163.59 216.587 2166.73 212.976 Q2169.91 209.365 2175.48 209.365 Z" fill="#000000" fill-rule="nonzero" fill-opacity="1" /><path clip-path="url(#clip150)" d="M2211.5 213.925 L2211.5 199.897 L2215.76 199.897 L2215.76 235.916 L2211.5 235.916 L2211.5 232.027 Q2210.16 234.342 2208.1 235.476 Q2206.06 236.587 2203.19 236.587 Q2198.49 236.587 2195.53 232.837 Q2192.59 229.087 2192.59 222.976 Q2192.59 216.865 2195.53 213.115 Q2198.49 209.365 2203.19 209.365 Q2206.06 209.365 2208.1 210.499 Q2210.16 211.61 2211.5 213.925 M2196.99 222.976 Q2196.99 227.675 2198.91 230.36 Q2200.85 233.022 2204.23 233.022 Q2207.61 233.022 2209.56 230.36 Q2211.5 227.675 2211.5 222.976 Q2211.5 218.277 2209.56 215.615 Q2207.61 212.93 2204.23 212.93 Q2200.85 212.93 2198.91 215.615 Q2196.99 218.277 2196.99 222.976 Z" fill="#000000" fill-rule="nonzero" fill-opacity="1" /><path clip-path="url(#clip150)" d="M2246.71 221.888 L2246.71 223.971 L2227.13 223.971 Q2227.41 228.369 2229.77 230.684 Q2232.15 232.976 2236.39 232.976 Q2238.84 232.976 2241.13 232.374 Q2243.45 231.772 2245.72 230.569 L2245.72 234.596 Q2243.42 235.568 2241.02 236.078 Q2238.61 236.587 2236.13 236.587 Q2229.93 236.587 2226.29 232.976 Q2222.68 229.365 2222.68 223.207 Q2222.68 216.842 2226.11 213.115 Q2229.56 209.365 2235.39 209.365 Q2240.62 209.365 2243.66 212.745 Q2246.71 216.101 2246.71 221.888 M2242.45 220.638 Q2242.41 217.143 2240.48 215.059 Q2238.59 212.976 2235.44 212.976 Q2231.87 212.976 2229.72 214.99 Q2227.59 217.004 2227.27 220.661 L2242.45 220.638 Z" fill="#000000" fill-rule="nonzero" fill-opacity="1" /><path clip-path="url(#clip150)" d="M2253.7 199.897 L2257.96 199.897 L2257.96 235.916 L2253.7 235.916 L2253.7 199.897 Z" fill="#000000" fill-rule="nonzero" fill-opacity="1" /></svg>
