<?xml version="1.0" encoding="utf-8"?>
<svg xmlns="http://www.w3.org/2000/svg" xmlns:xlink="http://www.w3.org/1999/xlink" width="600" height="400" viewBox="0 0 2400 1600">
<defs>
  <clipPath id="clip420">
    <rect x="0" y="0" width="2400" height="1600"/>
  </clipPath>
</defs>
<path clip-path="url(#clip420)" d="M0 1600 L2400 1600 L2400 0 L0 0  Z" fill="#ffffff" fill-rule="evenodd" fill-opacity="1"/>
<defs>
  <clipPath id="clip421">
    <rect x="219" y="123" width="2134" height="1301"/>
  </clipPath>
</defs>
<path clip-path="url(#clip420)" d="M219.866 1423.18 L2352.76 1423.18 L2352.76 123.472 L219.866 123.472  Z" fill="#ffffff" fill-rule="evenodd" fill-opacity="1"/>
<polyline clip-path="url(#clip421)" style="stroke:#000000; stroke-linecap:round; stroke-linejoin:round; stroke-width:2; stroke-opacity:0.1; fill:none" points="608.36,1423.18 608.36,123.472 "/>
<polyline clip-path="url(#clip421)" style="stroke:#000000; stroke-linecap:round; stroke-linejoin:round; stroke-width:2; stroke-opacity:0.1; fill:none" points="1286.31,1423.18 1286.31,123.472 "/>
<polyline clip-path="url(#clip421)" style="stroke:#000000; stroke-linecap:round; stroke-linejoin:round; stroke-width:2; stroke-opacity:0.1; fill:none" points="1964.26,1423.18 1964.26,123.472 "/>
<polyline clip-path="url(#clip421)" style="stroke:#000000; stroke-linecap:round; stroke-linejoin:round; stroke-width:2; stroke-opacity:0.1; fill:none" points="219.866,1423.18 2352.76,1423.18 "/>
<polyline clip-path="url(#clip421)" style="stroke:#000000; stroke-linecap:round; stroke-linejoin:round; stroke-width:2; stroke-opacity:0.1; fill:none" points="219.866,1215.89 2352.76,1215.89 "/>
<polyline clip-path="url(#clip421)" style="stroke:#000000; stroke-linecap:round; stroke-linejoin:round; stroke-width:2; stroke-opacity:0.1; fill:none" points="219.866,1008.6 2352.76,1008.6 "/>
<polyline clip-path="url(#clip421)" style="stroke:#000000; stroke-linecap:round; stroke-linejoin:round; stroke-width:2; stroke-opacity:0.1; fill:none" points="219.866,801.314 2352.76,801.314 "/>
<polyline clip-path="url(#clip421)" style="stroke:#000000; stroke-linecap:round; stroke-linejoin:round; stroke-width:2; stroke-opacity:0.1; fill:none" points="219.866,594.025 2352.76,594.025 "/>
<polyline clip-path="url(#clip421)" style="stroke:#000000; stroke-linecap:round; stroke-linejoin:round; stroke-width:2; stroke-opacity:0.1; fill:none" points="219.866,386.737 2352.76,386.737 "/>
<polyline clip-path="url(#clip421)" style="stroke:#000000; stroke-linecap:round; stroke-linejoin:round; stroke-width:2; stroke-opacity:0.1; fill:none" points="219.866,179.448 2352.76,179.448 "/>
<polyline clip-path="url(#clip420)" style="stroke:#000000; stroke-linecap:round; stroke-linejoin:round; stroke-width:4; stroke-opacity:1; fill:none" points="219.866,1423.18 2352.76,1423.18 "/>
<polyline clip-path="url(#clip420)" style="stroke:#000000; stroke-linecap:round; stroke-linejoin:round; stroke-width:4; stroke-opacity:1; fill:none" points="608.36,1423.18 608.36,1404.28 "/>
<polyline clip-path="url(#clip420)" style="stroke:#000000; stroke-linecap:round; stroke-linejoin:round; stroke-width:4; stroke-opacity:1; fill:none" points="1286.31,1423.18 1286.31,1404.28 "/>
<polyline clip-path="url(#clip420)" style="stroke:#000000; stroke-linecap:round; stroke-linejoin:round; stroke-width:4; stroke-opacity:1; fill:none" points="1964.26,1423.18 1964.26,1404.28 "/>
<path clip-path="url(#clip420)" d="M543.545 1449.56 L547.804 1449.56 L547.804 1485.58 L543.545 1485.58 L543.545 1449.56 Z" fill="#000000" fill-rule="nonzero" fill-opacity="1" /><path clip-path="url(#clip420)" d="M556.716 1459.65 L560.976 1459.65 L560.976 1485.58 L556.716 1485.58 L556.716 1459.65 M556.716 1449.56 L560.976 1449.56 L560.976 1454.96 L556.716 1454.96 L556.716 1449.56 Z" fill="#000000" fill-rule="nonzero" fill-opacity="1" /><path clip-path="url(#clip420)" d="M591.438 1469.93 L591.438 1485.58 L587.179 1485.58 L587.179 1470.07 Q587.179 1466.39 585.744 1464.56 Q584.309 1462.73 581.438 1462.73 Q577.989 1462.73 575.999 1464.93 Q574.008 1467.13 574.008 1470.93 L574.008 1485.58 L569.726 1485.58 L569.726 1459.65 L574.008 1459.65 L574.008 1463.68 Q575.536 1461.34 577.596 1460.19 Q579.679 1459.03 582.388 1459.03 Q586.855 1459.03 589.147 1461.81 Q591.438 1464.56 591.438 1469.93 Z" fill="#000000" fill-rule="nonzero" fill-opacity="1" /><path clip-path="url(#clip420)" d="M622.11 1471.55 L622.11 1473.64 L602.526 1473.64 Q602.804 1478.03 605.165 1480.35 Q607.549 1482.64 611.785 1482.64 Q614.239 1482.64 616.531 1482.04 Q618.846 1481.44 621.114 1480.23 L621.114 1484.26 Q618.822 1485.23 616.415 1485.74 Q614.008 1486.25 611.531 1486.25 Q605.327 1486.25 601.693 1482.64 Q598.082 1479.03 598.082 1472.87 Q598.082 1466.51 601.508 1462.78 Q604.957 1459.03 610.79 1459.03 Q616.022 1459.03 619.054 1462.41 Q622.11 1465.77 622.11 1471.55 M617.85 1470.3 Q617.804 1466.81 615.883 1464.72 Q613.985 1462.64 610.836 1462.64 Q607.272 1462.64 605.119 1464.65 Q602.989 1466.67 602.665 1470.33 L617.85 1470.3 Z" fill="#000000" fill-rule="nonzero" fill-opacity="1" /><path clip-path="url(#clip420)" d="M640.883 1472.55 Q635.721 1472.55 633.73 1473.73 Q631.739 1474.91 631.739 1477.76 Q631.739 1480.02 633.221 1481.37 Q634.725 1482.69 637.295 1482.69 Q640.836 1482.69 642.966 1480.19 Q645.119 1477.66 645.119 1473.5 L645.119 1472.55 L640.883 1472.55 M649.378 1470.79 L649.378 1485.58 L645.119 1485.58 L645.119 1481.64 Q643.66 1484.01 641.484 1485.14 Q639.308 1486.25 636.16 1486.25 Q632.179 1486.25 629.818 1484.03 Q627.48 1481.78 627.48 1478.03 Q627.48 1473.66 630.397 1471.44 Q633.336 1469.21 639.146 1469.21 L645.119 1469.21 L645.119 1468.8 Q645.119 1465.86 643.174 1464.26 Q641.253 1462.64 637.758 1462.64 Q635.535 1462.64 633.429 1463.17 Q631.322 1463.7 629.378 1464.77 L629.378 1460.83 Q631.716 1459.93 633.915 1459.49 Q636.114 1459.03 638.197 1459.03 Q643.822 1459.03 646.6 1461.95 Q649.378 1464.86 649.378 1470.79 Z" fill="#000000" fill-rule="nonzero" fill-opacity="1" /><path clip-path="url(#clip420)" d="M673.174 1463.64 Q672.456 1463.22 671.6 1463.03 Q670.767 1462.83 669.748 1462.83 Q666.137 1462.83 664.193 1465.19 Q662.271 1467.52 662.271 1471.92 L662.271 1485.58 L657.989 1485.58 L657.989 1459.65 L662.271 1459.65 L662.271 1463.68 Q663.614 1461.32 665.767 1460.19 Q667.919 1459.03 670.998 1459.03 Q671.438 1459.03 671.97 1459.1 Q672.503 1459.14 673.151 1459.26 L673.174 1463.64 Z" fill="#000000" fill-rule="nonzero" fill-opacity="1" /><path clip-path="url(#clip420)" d="M1180.66 1472.64 Q1180.66 1477.34 1182.58 1480.02 Q1184.53 1482.69 1187.91 1482.69 Q1191.29 1482.69 1193.23 1480.02 Q1195.18 1477.34 1195.18 1472.64 Q1195.18 1467.94 1193.23 1465.28 Q1191.29 1462.59 1187.91 1462.59 Q1184.53 1462.59 1182.58 1465.28 Q1180.66 1467.94 1180.66 1472.64 M1195.18 1481.69 Q1193.83 1484.01 1191.77 1485.14 Q1189.74 1486.25 1186.87 1486.25 Q1182.17 1486.25 1179.21 1482.5 Q1176.27 1478.75 1176.27 1472.64 Q1176.27 1466.53 1179.21 1462.78 Q1182.17 1459.03 1186.87 1459.03 Q1189.74 1459.03 1191.77 1460.16 Q1193.83 1461.27 1195.18 1463.59 L1195.18 1459.65 L1199.44 1459.65 L1199.44 1495.44 L1195.18 1495.44 L1195.18 1481.69 Z" fill="#000000" fill-rule="nonzero" fill-opacity="1" /><path clip-path="url(#clip420)" d="M1207.77 1475.35 L1207.77 1459.65 L1212.03 1459.65 L1212.03 1475.19 Q1212.03 1478.87 1213.46 1480.72 Q1214.9 1482.55 1217.77 1482.55 Q1221.22 1482.55 1223.21 1480.35 Q1225.22 1478.15 1225.22 1474.35 L1225.22 1459.65 L1229.48 1459.65 L1229.48 1485.58 L1225.22 1485.58 L1225.22 1481.6 Q1223.67 1483.96 1221.61 1485.12 Q1219.58 1486.25 1216.87 1486.25 Q1212.4 1486.25 1210.08 1483.47 Q1207.77 1480.7 1207.77 1475.35 M1218.49 1459.03 L1218.49 1459.03 Z" fill="#000000" fill-rule="nonzero" fill-opacity="1" /><path clip-path="url(#clip420)" d="M1250.04 1472.55 Q1244.88 1472.55 1242.89 1473.73 Q1240.89 1474.91 1240.89 1477.76 Q1240.89 1480.02 1242.38 1481.37 Q1243.88 1482.69 1246.45 1482.69 Q1249.99 1482.69 1252.12 1480.19 Q1254.27 1477.66 1254.27 1473.5 L1254.27 1472.55 L1250.04 1472.55 M1258.53 1470.79 L1258.53 1485.58 L1254.27 1485.58 L1254.27 1481.64 Q1252.82 1484.01 1250.64 1485.14 Q1248.46 1486.25 1245.32 1486.25 Q1241.33 1486.25 1238.97 1484.03 Q1236.64 1481.78 1236.64 1478.03 Q1236.64 1473.66 1239.55 1471.44 Q1242.49 1469.21 1248.3 1469.21 L1254.27 1469.21 L1254.27 1468.8 Q1254.27 1465.86 1252.33 1464.26 Q1250.41 1462.64 1246.91 1462.64 Q1244.69 1462.64 1242.58 1463.17 Q1240.48 1463.7 1238.53 1464.77 L1238.53 1460.83 Q1240.87 1459.93 1243.07 1459.49 Q1245.27 1459.03 1247.35 1459.03 Q1252.98 1459.03 1255.76 1461.95 Q1258.53 1464.86 1258.53 1470.79 Z" fill="#000000" fill-rule="nonzero" fill-opacity="1" /><path clip-path="url(#clip420)" d="M1284.37 1463.59 L1284.37 1449.56 L1288.63 1449.56 L1288.63 1485.58 L1284.37 1485.58 L1284.37 1481.69 Q1283.02 1484.01 1280.96 1485.14 Q1278.93 1486.25 1276.06 1486.25 Q1271.36 1486.25 1268.39 1482.5 Q1265.45 1478.75 1265.45 1472.64 Q1265.45 1466.53 1268.39 1462.78 Q1271.36 1459.03 1276.06 1459.03 Q1278.93 1459.03 1280.96 1460.16 Q1283.02 1461.27 1284.37 1463.59 M1269.85 1472.64 Q1269.85 1477.34 1271.77 1480.02 Q1273.72 1482.69 1277.1 1482.69 Q1280.48 1482.69 1282.42 1480.02 Q1284.37 1477.34 1284.37 1472.64 Q1284.37 1467.94 1282.42 1465.28 Q1280.48 1462.59 1277.1 1462.59 Q1273.72 1462.59 1271.77 1465.28 Q1269.85 1467.94 1269.85 1472.64 Z" fill="#000000" fill-rule="nonzero" fill-opacity="1" /><path clip-path="url(#clip420)" d="M1312.42 1463.64 Q1311.7 1463.22 1310.85 1463.03 Q1310.01 1462.83 1309 1462.83 Q1305.39 1462.83 1303.44 1465.19 Q1301.52 1467.52 1301.52 1471.92 L1301.52 1485.58 L1297.24 1485.58 L1297.24 1459.65 L1301.52 1459.65 L1301.52 1463.68 Q1302.86 1461.32 1305.01 1460.19 Q1307.17 1459.03 1310.25 1459.03 Q1310.69 1459.03 1311.22 1459.1 Q1311.75 1459.14 1312.4 1459.26 L1312.42 1463.64 Z" fill="#000000" fill-rule="nonzero" fill-opacity="1" /><path clip-path="url(#clip420)" d="M1328.67 1472.55 Q1323.51 1472.55 1321.52 1473.73 Q1319.53 1474.91 1319.53 1477.76 Q1319.53 1480.02 1321.01 1481.37 Q1322.51 1482.69 1325.08 1482.69 Q1328.63 1482.69 1330.76 1480.19 Q1332.91 1477.66 1332.91 1473.5 L1332.91 1472.55 L1328.67 1472.55 M1337.17 1470.79 L1337.17 1485.58 L1332.91 1485.58 L1332.91 1481.64 Q1331.45 1484.01 1329.27 1485.14 Q1327.1 1486.25 1323.95 1486.25 Q1319.97 1486.25 1317.61 1484.03 Q1315.27 1481.78 1315.27 1478.03 Q1315.27 1473.66 1318.19 1471.44 Q1321.13 1469.21 1326.94 1469.21 L1332.91 1469.21 L1332.91 1468.8 Q1332.91 1465.86 1330.96 1464.26 Q1329.04 1462.64 1325.55 1462.64 Q1323.32 1462.64 1321.22 1463.17 Q1319.11 1463.7 1317.17 1464.77 L1317.17 1460.83 Q1319.51 1459.93 1321.7 1459.49 Q1323.9 1459.03 1325.99 1459.03 Q1331.61 1459.03 1334.39 1461.95 Q1337.17 1464.86 1337.17 1470.79 Z" fill="#000000" fill-rule="nonzero" fill-opacity="1" /><path clip-path="url(#clip420)" d="M1350.15 1452.29 L1350.15 1459.65 L1358.93 1459.65 L1358.93 1462.96 L1350.15 1462.96 L1350.15 1477.04 Q1350.15 1480.21 1351.01 1481.11 Q1351.89 1482.02 1354.55 1482.02 L1358.93 1482.02 L1358.93 1485.58 L1354.55 1485.58 Q1349.62 1485.58 1347.75 1483.75 Q1345.87 1481.9 1345.87 1477.04 L1345.87 1462.96 L1342.75 1462.96 L1342.75 1459.65 L1345.87 1459.65 L1345.87 1452.29 L1350.15 1452.29 Z" fill="#000000" fill-rule="nonzero" fill-opacity="1" /><path clip-path="url(#clip420)" d="M1364.53 1459.65 L1368.79 1459.65 L1368.79 1485.58 L1364.53 1485.58 L1364.53 1459.65 M1364.53 1449.56 L1368.79 1449.56 L1368.79 1454.96 L1364.53 1454.96 L1364.53 1449.56 Z" fill="#000000" fill-rule="nonzero" fill-opacity="1" /><path clip-path="url(#clip420)" d="M1396.36 1460.65 L1396.36 1464.63 Q1394.55 1463.64 1392.72 1463.15 Q1390.92 1462.64 1389.07 1462.64 Q1384.92 1462.64 1382.63 1465.28 Q1380.34 1467.89 1380.34 1472.64 Q1380.34 1477.39 1382.63 1480.02 Q1384.92 1482.64 1389.07 1482.64 Q1390.92 1482.64 1392.72 1482.15 Q1394.55 1481.64 1396.36 1480.65 L1396.36 1484.58 Q1394.57 1485.42 1392.65 1485.83 Q1390.75 1486.25 1388.6 1486.25 Q1382.75 1486.25 1379.3 1482.57 Q1375.85 1478.89 1375.85 1472.64 Q1375.85 1466.3 1379.32 1462.66 Q1382.82 1459.03 1388.88 1459.03 Q1390.85 1459.03 1392.72 1459.45 Q1394.6 1459.84 1396.36 1460.65 Z" fill="#000000" fill-rule="nonzero" fill-opacity="1" /><path clip-path="url(#clip420)" d="M1924.83 1460.65 L1924.83 1464.63 Q1923.02 1463.64 1921.2 1463.15 Q1919.39 1462.64 1917.54 1462.64 Q1913.39 1462.64 1911.1 1465.28 Q1908.81 1467.89 1908.81 1472.64 Q1908.81 1477.39 1911.1 1480.02 Q1913.39 1482.64 1917.54 1482.64 Q1919.39 1482.64 1921.2 1482.15 Q1923.02 1481.64 1924.83 1480.65 L1924.83 1484.58 Q1923.05 1485.42 1921.13 1485.83 Q1919.23 1486.25 1917.08 1486.25 Q1911.22 1486.25 1907.77 1482.57 Q1904.32 1478.89 1904.32 1472.64 Q1904.32 1466.3 1907.79 1462.66 Q1911.29 1459.03 1917.35 1459.03 Q1919.32 1459.03 1921.2 1459.45 Q1923.07 1459.84 1924.83 1460.65 Z" fill="#000000" fill-rule="nonzero" fill-opacity="1" /><path clip-path="url(#clip420)" d="M1931.8 1475.35 L1931.8 1459.65 L1936.06 1459.65 L1936.06 1475.19 Q1936.06 1478.87 1937.49 1480.72 Q1938.93 1482.55 1941.8 1482.55 Q1945.25 1482.55 1947.24 1480.35 Q1949.25 1478.15 1949.25 1474.35 L1949.25 1459.65 L1953.51 1459.65 L1953.51 1485.58 L1949.25 1485.58 L1949.25 1481.6 Q1947.7 1483.96 1945.64 1485.12 Q1943.6 1486.25 1940.89 1486.25 Q1936.43 1486.25 1934.11 1483.47 Q1931.8 1480.7 1931.8 1475.35 M1942.52 1459.03 L1942.52 1459.03 Z" fill="#000000" fill-rule="nonzero" fill-opacity="1" /><path clip-path="url(#clip420)" d="M1980.89 1472.64 Q1980.89 1467.94 1978.95 1465.28 Q1977.03 1462.59 1973.65 1462.59 Q1970.27 1462.59 1968.33 1465.28 Q1966.4 1467.94 1966.4 1472.64 Q1966.4 1477.34 1968.33 1480.02 Q1970.27 1482.69 1973.65 1482.69 Q1977.03 1482.69 1978.95 1480.02 Q1980.89 1477.34 1980.89 1472.64 M1966.4 1463.59 Q1967.75 1461.27 1969.78 1460.16 Q1971.84 1459.03 1974.69 1459.03 Q1979.41 1459.03 1982.35 1462.78 Q1985.32 1466.53 1985.32 1472.64 Q1985.32 1478.75 1982.35 1482.5 Q1979.41 1486.25 1974.69 1486.25 Q1971.84 1486.25 1969.78 1485.14 Q1967.75 1484.01 1966.4 1481.69 L1966.4 1485.58 L1962.12 1485.58 L1962.12 1449.56 L1966.4 1449.56 L1966.4 1463.59 Z" fill="#000000" fill-rule="nonzero" fill-opacity="1" /><path clip-path="url(#clip420)" d="M1992.38 1459.65 L1996.64 1459.65 L1996.64 1485.58 L1992.38 1485.58 L1992.38 1459.65 M1992.38 1449.56 L1996.64 1449.56 L1996.64 1454.96 L1992.38 1454.96 L1992.38 1449.56 Z" fill="#000000" fill-rule="nonzero" fill-opacity="1" /><path clip-path="url(#clip420)" d="M2024.2 1460.65 L2024.2 1464.63 Q2022.4 1463.64 2020.57 1463.15 Q2018.76 1462.64 2016.91 1462.64 Q2012.77 1462.64 2010.48 1465.28 Q2008.19 1467.89 2008.19 1472.64 Q2008.19 1477.39 2010.48 1480.02 Q2012.77 1482.64 2016.91 1482.64 Q2018.76 1482.64 2020.57 1482.15 Q2022.4 1481.64 2024.2 1480.65 L2024.2 1484.58 Q2022.42 1485.42 2020.5 1485.83 Q2018.6 1486.25 2016.45 1486.25 Q2010.59 1486.25 2007.14 1482.57 Q2003.7 1478.89 2003.7 1472.64 Q2003.7 1466.3 2007.17 1462.66 Q2010.66 1459.03 2016.73 1459.03 Q2018.7 1459.03 2020.57 1459.45 Q2022.45 1459.84 2024.2 1460.65 Z" fill="#000000" fill-rule="nonzero" fill-opacity="1" /><path clip-path="url(#clip420)" d="M1051.05 1524.18 L1051.05 1530.96 Q1047.8 1527.94 1044.11 1526.44 Q1040.45 1524.95 1036.31 1524.95 Q1028.17 1524.95 1023.84 1529.95 Q1019.51 1534.91 1019.51 1544.33 Q1019.51 1553.72 1023.84 1558.72 Q1028.17 1563.68 1036.31 1563.68 Q1040.45 1563.68 1044.11 1562.19 Q1047.8 1560.69 1051.05 1557.67 L1051.05 1564.38 Q1047.68 1566.68 1043.89 1567.82 Q1040.13 1568.97 1035.93 1568.97 Q1025.14 1568.97 1018.94 1562.38 Q1012.73 1555.76 1012.73 1544.33 Q1012.73 1532.87 1018.94 1526.28 Q1025.14 1519.66 1035.93 1519.66 Q1040.2 1519.66 1043.95 1520.81 Q1047.74 1521.92 1051.05 1524.18 Z" fill="#000000" fill-rule="nonzero" fill-opacity="1" /><path clip-path="url(#clip420)" d="M1076.93 1550.12 Q1069.83 1550.12 1067.09 1551.75 Q1064.35 1553.37 1064.35 1557.29 Q1064.35 1560.4 1066.39 1562.25 Q1068.46 1564.07 1071.99 1564.07 Q1076.86 1564.07 1079.79 1560.63 Q1082.75 1557.16 1082.75 1551.43 L1082.75 1550.12 L1076.93 1550.12 M1088.61 1547.71 L1088.61 1568.04 L1082.75 1568.04 L1082.75 1562.63 Q1080.75 1565.88 1077.75 1567.44 Q1074.76 1568.97 1070.43 1568.97 Q1064.96 1568.97 1061.71 1565.91 Q1058.5 1562.82 1058.5 1557.67 Q1058.5 1551.65 1062.51 1548.6 Q1066.55 1545.54 1074.54 1545.54 L1082.75 1545.54 L1082.75 1544.97 Q1082.75 1540.93 1080.08 1538.73 Q1077.44 1536.5 1072.63 1536.5 Q1069.57 1536.5 1066.68 1537.23 Q1063.78 1537.97 1061.11 1539.43 L1061.11 1534.02 Q1064.32 1532.78 1067.35 1532.17 Q1070.37 1531.54 1073.23 1531.54 Q1080.97 1531.54 1084.79 1535.55 Q1088.61 1539.56 1088.61 1547.71 Z" fill="#000000" fill-rule="nonzero" fill-opacity="1" /><path clip-path="url(#clip420)" d="M1130.3 1546.53 L1130.3 1568.04 L1124.45 1568.04 L1124.45 1546.72 Q1124.45 1541.66 1122.47 1539.14 Q1120.5 1536.63 1116.55 1536.63 Q1111.81 1536.63 1109.07 1539.65 Q1106.34 1542.68 1106.34 1547.9 L1106.34 1568.04 L1100.45 1568.04 L1100.45 1532.4 L1106.34 1532.4 L1106.34 1537.93 Q1108.44 1534.72 1111.27 1533.13 Q1114.13 1531.54 1117.86 1531.54 Q1124 1531.54 1127.15 1535.36 Q1130.3 1539.14 1130.3 1546.53 Z" fill="#000000" fill-rule="nonzero" fill-opacity="1" /><path clip-path="url(#clip420)" d="M1165.44 1537.81 L1165.44 1518.52 L1171.3 1518.52 L1171.3 1568.04 L1165.44 1568.04 L1165.44 1562.7 Q1163.6 1565.88 1160.76 1567.44 Q1157.96 1568.97 1154.02 1568.97 Q1147.55 1568.97 1143.48 1563.81 Q1139.44 1558.65 1139.44 1550.25 Q1139.44 1541.85 1143.48 1536.69 Q1147.55 1531.54 1154.02 1531.54 Q1157.96 1531.54 1160.76 1533.1 Q1163.6 1534.62 1165.44 1537.81 M1145.49 1550.25 Q1145.49 1556.71 1148.13 1560.4 Q1150.8 1564.07 1155.45 1564.07 Q1160.1 1564.07 1162.77 1560.4 Q1165.44 1556.71 1165.44 1550.25 Q1165.44 1543.79 1162.77 1540.13 Q1160.1 1536.44 1155.45 1536.44 Q1150.8 1536.44 1148.13 1540.13 Q1145.49 1543.79 1145.49 1550.25 Z" fill="#000000" fill-rule="nonzero" fill-opacity="1" /><path clip-path="url(#clip420)" d="M1183.36 1532.4 L1189.22 1532.4 L1189.22 1568.04 L1183.36 1568.04 L1183.36 1532.4 M1183.36 1518.52 L1189.22 1518.52 L1189.22 1525.93 L1183.36 1525.93 L1183.36 1518.52 Z" fill="#000000" fill-rule="nonzero" fill-opacity="1" /><path clip-path="url(#clip420)" d="M1224.93 1537.81 L1224.93 1518.52 L1230.79 1518.52 L1230.79 1568.04 L1224.93 1568.04 L1224.93 1562.7 Q1223.08 1565.88 1220.25 1567.44 Q1217.45 1568.97 1213.5 1568.97 Q1207.04 1568.97 1202.97 1563.81 Q1198.93 1558.65 1198.93 1550.25 Q1198.93 1541.85 1202.97 1536.69 Q1207.04 1531.54 1213.5 1531.54 Q1217.45 1531.54 1220.25 1533.1 Q1223.08 1534.62 1224.93 1537.81 M1204.97 1550.25 Q1204.97 1556.71 1207.62 1560.4 Q1210.29 1564.07 1214.94 1564.07 Q1219.58 1564.07 1222.26 1560.4 Q1224.93 1556.71 1224.93 1550.25 Q1224.93 1543.79 1222.26 1540.13 Q1219.58 1536.44 1214.94 1536.44 Q1210.29 1536.44 1207.62 1540.13 Q1204.97 1543.79 1204.97 1550.25 Z" fill="#000000" fill-rule="nonzero" fill-opacity="1" /><path clip-path="url(#clip420)" d="M1259.05 1550.12 Q1251.95 1550.12 1249.21 1551.75 Q1246.48 1553.37 1246.48 1557.29 Q1246.48 1560.4 1248.51 1562.25 Q1250.58 1564.07 1254.12 1564.07 Q1258.99 1564.07 1261.91 1560.63 Q1264.87 1557.16 1264.87 1551.43 L1264.87 1550.12 L1259.05 1550.12 M1270.73 1547.71 L1270.73 1568.04 L1264.87 1568.04 L1264.87 1562.63 Q1262.87 1565.88 1259.88 1567.44 Q1256.89 1568.97 1252.56 1568.97 Q1247.08 1568.97 1243.84 1565.91 Q1240.62 1562.82 1240.62 1557.67 Q1240.62 1551.65 1244.63 1548.6 Q1248.67 1545.54 1256.66 1545.54 L1264.87 1545.54 L1264.87 1544.97 Q1264.87 1540.93 1262.2 1538.73 Q1259.56 1536.5 1254.75 1536.5 Q1251.7 1536.5 1248.8 1537.23 Q1245.9 1537.97 1243.23 1539.43 L1243.23 1534.02 Q1246.45 1532.78 1249.47 1532.17 Q1252.49 1531.54 1255.36 1531.54 Q1263.09 1531.54 1266.91 1535.55 Q1270.73 1539.56 1270.73 1547.71 Z" fill="#000000" fill-rule="nonzero" fill-opacity="1" /><path clip-path="url(#clip420)" d="M1288.59 1522.27 L1288.59 1532.4 L1300.65 1532.4 L1300.65 1536.95 L1288.59 1536.95 L1288.59 1556.3 Q1288.59 1560.66 1289.76 1561.9 Q1290.97 1563.14 1294.63 1563.14 L1300.65 1563.14 L1300.65 1568.04 L1294.63 1568.04 Q1287.85 1568.04 1285.28 1565.53 Q1282.7 1562.98 1282.7 1556.3 L1282.7 1536.95 L1278.4 1536.95 L1278.4 1532.4 L1282.7 1532.4 L1282.7 1522.27 L1288.59 1522.27 Z" fill="#000000" fill-rule="nonzero" fill-opacity="1" /><path clip-path="url(#clip420)" d="M1338.84 1548.76 L1338.84 1551.62 L1311.92 1551.62 Q1312.3 1557.67 1315.55 1560.85 Q1318.82 1564 1324.65 1564 Q1328.02 1564 1331.17 1563.17 Q1334.36 1562.35 1337.48 1560.69 L1337.48 1566.23 Q1334.32 1567.57 1331.01 1568.27 Q1327.7 1568.97 1324.3 1568.97 Q1315.77 1568.97 1310.77 1564 Q1305.81 1559.04 1305.81 1550.57 Q1305.81 1541.82 1310.52 1536.69 Q1315.26 1531.54 1323.28 1531.54 Q1330.47 1531.54 1334.64 1536.18 Q1338.84 1540.8 1338.84 1548.76 M1332.99 1547.04 Q1332.92 1542.23 1330.28 1539.37 Q1327.67 1536.5 1323.34 1536.5 Q1318.44 1536.5 1315.48 1539.27 Q1312.55 1542.04 1312.11 1547.07 L1332.99 1547.04 Z" fill="#000000" fill-rule="nonzero" fill-opacity="1" /><path clip-path="url(#clip420)" d="M1396.93 1539.24 Q1399.13 1535.29 1402.18 1533.41 Q1405.24 1531.54 1409.38 1531.54 Q1414.95 1531.54 1417.97 1535.45 Q1420.99 1539.33 1420.99 1546.53 L1420.99 1568.04 L1415.11 1568.04 L1415.11 1546.72 Q1415.11 1541.59 1413.29 1539.11 Q1411.48 1536.63 1407.75 1536.63 Q1403.2 1536.63 1400.56 1539.65 Q1397.92 1542.68 1397.92 1547.9 L1397.92 1568.04 L1392.03 1568.04 L1392.03 1546.72 Q1392.03 1541.56 1390.22 1539.11 Q1388.4 1536.63 1384.61 1536.63 Q1380.13 1536.63 1377.48 1539.68 Q1374.84 1542.71 1374.84 1547.9 L1374.84 1568.04 L1368.95 1568.04 L1368.95 1532.4 L1374.84 1532.4 L1374.84 1537.93 Q1376.85 1534.66 1379.65 1533.1 Q1382.45 1531.54 1386.3 1531.54 Q1390.18 1531.54 1392.89 1533.51 Q1395.63 1535.48 1396.93 1539.24 Z" fill="#000000" fill-rule="nonzero" fill-opacity="1" /><path clip-path="url(#clip420)" d="M1446.49 1536.5 Q1441.78 1536.5 1439.04 1540.19 Q1436.3 1543.85 1436.3 1550.25 Q1436.3 1556.65 1439.01 1560.34 Q1441.75 1564 1446.49 1564 Q1451.17 1564 1453.9 1560.31 Q1456.64 1556.62 1456.64 1550.25 Q1456.64 1543.92 1453.9 1540.23 Q1451.17 1536.5 1446.49 1536.5 M1446.49 1531.54 Q1454.13 1531.54 1458.49 1536.5 Q1462.85 1541.47 1462.85 1550.25 Q1462.85 1559 1458.49 1564 Q1454.13 1568.97 1446.49 1568.97 Q1438.82 1568.97 1434.46 1564 Q1430.13 1559 1430.13 1550.25 Q1430.13 1541.47 1434.46 1536.5 Q1438.82 1531.54 1446.49 1531.54 Z" fill="#000000" fill-rule="nonzero" fill-opacity="1" /><path clip-path="url(#clip420)" d="M1496.01 1537.81 L1496.01 1518.52 L1501.87 1518.52 L1501.87 1568.04 L1496.01 1568.04 L1496.01 1562.7 Q1494.17 1565.88 1491.33 1567.44 Q1488.53 1568.97 1484.59 1568.97 Q1478.13 1568.97 1474.05 1563.81 Q1470.01 1558.65 1470.01 1550.25 Q1470.01 1541.85 1474.05 1536.69 Q1478.13 1531.54 1484.59 1531.54 Q1488.53 1531.54 1491.33 1533.1 Q1494.17 1534.62 1496.01 1537.81 M1476.06 1550.25 Q1476.06 1556.71 1478.7 1560.4 Q1481.37 1564.07 1486.02 1564.07 Q1490.67 1564.07 1493.34 1560.4 Q1496.01 1556.71 1496.01 1550.25 Q1496.01 1543.79 1493.34 1540.13 Q1490.67 1536.44 1486.02 1536.44 Q1481.37 1536.44 1478.7 1540.13 Q1476.06 1543.79 1476.06 1550.25 Z" fill="#000000" fill-rule="nonzero" fill-opacity="1" /><path clip-path="url(#clip420)" d="M1544.42 1548.76 L1544.42 1551.62 L1517.5 1551.62 Q1517.88 1557.67 1521.13 1560.85 Q1524.4 1564 1530.23 1564 Q1533.6 1564 1536.75 1563.17 Q1539.94 1562.35 1543.06 1560.69 L1543.06 1566.23 Q1539.9 1567.57 1536.59 1568.27 Q1533.28 1568.97 1529.88 1568.97 Q1521.35 1568.97 1516.35 1564 Q1511.39 1559.04 1511.39 1550.57 Q1511.39 1541.82 1516.1 1536.69 Q1520.84 1531.54 1528.86 1531.54 Q1536.05 1531.54 1540.22 1536.18 Q1544.42 1540.8 1544.42 1548.76 M1538.57 1547.04 Q1538.5 1542.23 1535.86 1539.37 Q1533.25 1536.5 1528.92 1536.5 Q1524.02 1536.5 1521.06 1539.27 Q1518.13 1542.04 1517.69 1547.07 L1538.57 1547.04 Z" fill="#000000" fill-rule="nonzero" fill-opacity="1" /><path clip-path="url(#clip420)" d="M1554.04 1518.52 L1559.89 1518.52 L1559.89 1568.04 L1554.04 1568.04 L1554.04 1518.52 Z" fill="#000000" fill-rule="nonzero" fill-opacity="1" /><polyline clip-path="url(#clip420)" style="stroke:#000000; stroke-linecap:round; stroke-linejoin:round; stroke-width:4; stroke-opacity:1; fill:none" points="219.866,1423.18 219.866,123.472 "/>
<polyline clip-path="url(#clip420)" style="stroke:#000000; stroke-linecap:round; stroke-linejoin:round; stroke-width:4; stroke-opacity:1; fill:none" points="219.866,1423.18 238.764,1423.18 "/>
<polyline clip-path="url(#clip420)" style="stroke:#000000; stroke-linecap:round; stroke-linejoin:round; stroke-width:4; stroke-opacity:1; fill:none" points="219.866,1215.89 238.764,1215.89 "/>
<polyline clip-path="url(#clip420)" style="stroke:#000000; stroke-linecap:round; stroke-linejoin:round; stroke-width:4; stroke-opacity:1; fill:none" points="219.866,1008.6 238.764,1008.6 "/>
<polyline clip-path="url(#clip420)" style="stroke:#000000; stroke-linecap:round; stroke-linejoin:round; stroke-width:4; stroke-opacity:1; fill:none" points="219.866,801.314 238.764,801.314 "/>
<polyline clip-path="url(#clip420)" style="stroke:#000000; stroke-linecap:round; stroke-linejoin:round; stroke-width:4; stroke-opacity:1; fill:none" points="219.866,594.025 238.764,594.025 "/>
<polyline clip-path="url(#clip420)" style="stroke:#000000; stroke-linecap:round; stroke-linejoin:round; stroke-width:4; stroke-opacity:1; fill:none" points="219.866,386.737 238.764,386.737 "/>
<polyline clip-path="url(#clip420)" style="stroke:#000000; stroke-linecap:round; stroke-linejoin:round; stroke-width:4; stroke-opacity:1; fill:none" points="219.866,179.448 238.764,179.448 "/>
<path clip-path="url(#clip420)" d="M126.691 1408.98 Q123.08 1408.98 121.251 1412.54 Q119.445 1416.08 119.445 1423.21 Q119.445 1430.32 121.251 1433.89 Q123.08 1437.43 126.691 1437.43 Q130.325 1437.43 132.13 1433.89 Q133.959 1430.32 133.959 1423.21 Q133.959 1416.08 132.13 1412.54 Q130.325 1408.98 126.691 1408.98 M126.691 1405.27 Q132.501 1405.27 135.556 1409.88 Q138.635 1414.46 138.635 1423.21 Q138.635 1431.94 135.556 1436.55 Q132.501 1441.13 126.691 1441.13 Q120.88 1441.13 117.802 1436.55 Q114.746 1431.94 114.746 1423.21 Q114.746 1414.46 117.802 1409.88 Q120.88 1405.27 126.691 1405.27 Z" fill="#000000" fill-rule="nonzero" fill-opacity="1" /><path clip-path="url(#clip420)" d="M146.853 1434.58 L151.737 1434.58 L151.737 1440.46 L146.853 1440.46 L146.853 1434.58 Z" fill="#000000" fill-rule="nonzero" fill-opacity="1" /><path clip-path="url(#clip420)" d="M171.922 1408.98 Q168.311 1408.98 166.482 1412.54 Q164.677 1416.08 164.677 1423.21 Q164.677 1430.32 166.482 1433.89 Q168.311 1437.43 171.922 1437.43 Q175.556 1437.43 177.362 1433.89 Q179.19 1430.32 179.19 1423.21 Q179.19 1416.08 177.362 1412.54 Q175.556 1408.98 171.922 1408.98 M171.922 1405.27 Q177.732 1405.27 180.788 1409.88 Q183.866 1414.46 183.866 1423.21 Q183.866 1431.94 180.788 1436.55 Q177.732 1441.13 171.922 1441.13 Q166.112 1441.13 163.033 1436.55 Q159.978 1431.94 159.978 1423.21 Q159.978 1414.46 163.033 1409.88 Q166.112 1405.27 171.922 1405.27 Z" fill="#000000" fill-rule="nonzero" fill-opacity="1" /><path clip-path="url(#clip420)" d="M127.917 1201.69 Q124.306 1201.69 122.478 1205.25 Q120.672 1208.8 120.672 1215.93 Q120.672 1223.03 122.478 1226.6 Q124.306 1230.14 127.917 1230.14 Q131.552 1230.14 133.357 1226.6 Q135.186 1223.03 135.186 1215.93 Q135.186 1208.8 133.357 1205.25 Q131.552 1201.69 127.917 1201.69 M127.917 1197.99 Q133.728 1197.99 136.783 1202.59 Q139.862 1207.18 139.862 1215.93 Q139.862 1224.65 136.783 1229.26 Q133.728 1233.84 127.917 1233.84 Q122.107 1233.84 119.029 1229.26 Q115.973 1224.65 115.973 1215.93 Q115.973 1207.18 119.029 1202.59 Q122.107 1197.99 127.917 1197.99 Z" fill="#000000" fill-rule="nonzero" fill-opacity="1" /><path clip-path="url(#clip420)" d="M148.079 1227.29 L152.964 1227.29 L152.964 1233.17 L148.079 1233.17 L148.079 1227.29 Z" fill="#000000" fill-rule="nonzero" fill-opacity="1" /><path clip-path="url(#clip420)" d="M163.959 1229.24 L171.598 1229.24 L171.598 1202.87 L163.288 1204.54 L163.288 1200.28 L171.552 1198.61 L176.227 1198.61 L176.227 1229.24 L183.866 1229.24 L183.866 1233.17 L163.959 1233.17 L163.959 1229.24 Z" fill="#000000" fill-rule="nonzero" fill-opacity="1" /><path clip-path="url(#clip420)" d="M128.288 994.401 Q124.677 994.401 122.848 997.966 Q121.043 1001.51 121.043 1008.64 Q121.043 1015.74 122.848 1019.31 Q124.677 1022.85 128.288 1022.85 Q131.922 1022.85 133.728 1019.31 Q135.556 1015.74 135.556 1008.64 Q135.556 1001.51 133.728 997.966 Q131.922 994.401 128.288 994.401 M128.288 990.698 Q134.098 990.698 137.154 995.304 Q140.232 999.887 140.232 1008.64 Q140.232 1017.36 137.154 1021.97 Q134.098 1026.55 128.288 1026.55 Q122.478 1026.55 119.399 1021.97 Q116.343 1017.36 116.343 1008.64 Q116.343 999.887 119.399 995.304 Q122.478 990.698 128.288 990.698 Z" fill="#000000" fill-rule="nonzero" fill-opacity="1" /><path clip-path="url(#clip420)" d="M148.45 1020 L153.334 1020 L153.334 1025.88 L148.45 1025.88 L148.45 1020 Z" fill="#000000" fill-rule="nonzero" fill-opacity="1" /><path clip-path="url(#clip420)" d="M167.547 1021.95 L183.866 1021.95 L183.866 1025.88 L161.922 1025.88 L161.922 1021.95 Q164.584 1019.19 169.167 1014.56 Q173.774 1009.91 174.954 1008.57 Q177.2 1006.04 178.079 1004.31 Q178.982 1002.55 178.982 1000.86 Q178.982 998.105 177.038 996.369 Q175.116 994.633 172.014 994.633 Q169.815 994.633 167.362 995.397 Q164.931 996.161 162.153 997.711 L162.153 992.989 Q164.977 991.855 167.431 991.276 Q169.885 990.698 171.922 990.698 Q177.292 990.698 180.487 993.383 Q183.681 996.068 183.681 1000.56 Q183.681 1002.69 182.871 1004.61 Q182.084 1006.51 179.977 1009.1 Q179.399 1009.77 176.297 1012.99 Q173.195 1016.18 167.547 1021.95 Z" fill="#000000" fill-rule="nonzero" fill-opacity="1" /><path clip-path="url(#clip420)" d="M127.339 787.113 Q123.728 787.113 121.899 790.677 Q120.093 794.219 120.093 801.349 Q120.093 808.455 121.899 812.02 Q123.728 815.562 127.339 815.562 Q130.973 815.562 132.779 812.02 Q134.607 808.455 134.607 801.349 Q134.607 794.219 132.779 790.677 Q130.973 787.113 127.339 787.113 M127.339 783.409 Q133.149 783.409 136.204 788.015 Q139.283 792.599 139.283 801.349 Q139.283 810.076 136.204 814.682 Q133.149 819.265 127.339 819.265 Q121.529 819.265 118.45 814.682 Q115.394 810.076 115.394 801.349 Q115.394 792.599 118.45 788.015 Q121.529 783.409 127.339 783.409 Z" fill="#000000" fill-rule="nonzero" fill-opacity="1" /><path clip-path="url(#clip420)" d="M147.501 812.714 L152.385 812.714 L152.385 818.594 L147.501 818.594 L147.501 812.714 Z" fill="#000000" fill-rule="nonzero" fill-opacity="1" /><path clip-path="url(#clip420)" d="M176.737 799.96 Q180.093 800.677 181.968 802.946 Q183.866 805.214 183.866 808.548 Q183.866 813.663 180.348 816.464 Q176.829 819.265 170.348 819.265 Q168.172 819.265 165.857 818.825 Q163.565 818.409 161.112 817.552 L161.112 813.038 Q163.056 814.173 165.371 814.751 Q167.686 815.33 170.209 815.33 Q174.607 815.33 176.899 813.594 Q179.214 811.858 179.214 808.548 Q179.214 805.492 177.061 803.779 Q174.931 802.043 171.112 802.043 L167.084 802.043 L167.084 798.201 L171.297 798.201 Q174.746 798.201 176.575 796.835 Q178.403 795.446 178.403 792.853 Q178.403 790.191 176.505 788.779 Q174.63 787.344 171.112 787.344 Q169.19 787.344 166.991 787.761 Q164.792 788.177 162.153 789.057 L162.153 784.89 Q164.815 784.15 167.13 783.779 Q169.468 783.409 171.528 783.409 Q176.852 783.409 179.954 785.84 Q183.056 788.247 183.056 792.367 Q183.056 795.238 181.413 797.228 Q179.769 799.196 176.737 799.96 Z" fill="#000000" fill-rule="nonzero" fill-opacity="1" /><path clip-path="url(#clip420)" d="M126.205 579.824 Q122.593 579.824 120.765 583.389 Q118.959 586.93 118.959 594.06 Q118.959 601.167 120.765 604.731 Q122.593 608.273 126.205 608.273 Q129.839 608.273 131.644 604.731 Q133.473 601.167 133.473 594.06 Q133.473 586.93 131.644 583.389 Q129.839 579.824 126.205 579.824 M126.205 576.12 Q132.015 576.12 135.07 580.727 Q138.149 585.31 138.149 594.06 Q138.149 602.787 135.07 607.393 Q132.015 611.977 126.205 611.977 Q120.394 611.977 117.316 607.393 Q114.26 602.787 114.26 594.06 Q114.26 585.31 117.316 580.727 Q120.394 576.12 126.205 576.12 Z" fill="#000000" fill-rule="nonzero" fill-opacity="1" /><path clip-path="url(#clip420)" d="M146.366 605.426 L151.251 605.426 L151.251 611.305 L146.366 611.305 L146.366 605.426 Z" fill="#000000" fill-rule="nonzero" fill-opacity="1" /><path clip-path="url(#clip420)" d="M174.283 580.819 L162.477 599.268 L174.283 599.268 L174.283 580.819 M173.056 576.745 L178.936 576.745 L178.936 599.268 L183.866 599.268 L183.866 603.157 L178.936 603.157 L178.936 611.305 L174.283 611.305 L174.283 603.157 L158.681 603.157 L158.681 598.643 L173.056 576.745 Z" fill="#000000" fill-rule="nonzero" fill-opacity="1" /><path clip-path="url(#clip420)" d="M127.686 372.535 Q124.075 372.535 122.246 376.1 Q120.441 379.642 120.441 386.771 Q120.441 393.878 122.246 397.443 Q124.075 400.984 127.686 400.984 Q131.32 400.984 133.126 397.443 Q134.954 393.878 134.954 386.771 Q134.954 379.642 133.126 376.1 Q131.32 372.535 127.686 372.535 M127.686 368.832 Q133.496 368.832 136.552 373.438 Q139.63 378.022 139.63 386.771 Q139.63 395.498 136.552 400.105 Q133.496 404.688 127.686 404.688 Q121.876 404.688 118.797 400.105 Q115.742 395.498 115.742 386.771 Q115.742 378.022 118.797 373.438 Q121.876 368.832 127.686 368.832 Z" fill="#000000" fill-rule="nonzero" fill-opacity="1" /><path clip-path="url(#clip420)" d="M147.848 398.137 L152.732 398.137 L152.732 404.017 L147.848 404.017 L147.848 398.137 Z" fill="#000000" fill-rule="nonzero" fill-opacity="1" /><path clip-path="url(#clip420)" d="M162.964 369.457 L181.32 369.457 L181.32 373.392 L167.246 373.392 L167.246 381.864 Q168.264 381.517 169.283 381.355 Q170.302 381.17 171.32 381.17 Q177.107 381.17 180.487 384.341 Q183.866 387.512 183.866 392.929 Q183.866 398.508 180.394 401.609 Q176.922 404.688 170.602 404.688 Q168.427 404.688 166.158 404.318 Q163.913 403.947 161.505 403.207 L161.505 398.508 Q163.589 399.642 165.811 400.197 Q168.033 400.753 170.51 400.753 Q174.514 400.753 176.852 398.646 Q179.19 396.54 179.19 392.929 Q179.19 389.318 176.852 387.211 Q174.514 385.105 170.51 385.105 Q168.635 385.105 166.76 385.521 Q164.908 385.938 162.964 386.818 L162.964 369.457 Z" fill="#000000" fill-rule="nonzero" fill-opacity="1" /><path clip-path="url(#clip420)" d="M126.529 165.247 Q122.918 165.247 121.089 168.812 Q119.283 172.353 119.283 179.483 Q119.283 186.589 121.089 190.154 Q122.918 193.696 126.529 193.696 Q130.163 193.696 131.968 190.154 Q133.797 186.589 133.797 179.483 Q133.797 172.353 131.968 168.812 Q130.163 165.247 126.529 165.247 M126.529 161.543 Q132.339 161.543 135.394 166.15 Q138.473 170.733 138.473 179.483 Q138.473 188.21 135.394 192.816 Q132.339 197.399 126.529 197.399 Q120.718 197.399 117.64 192.816 Q114.584 188.21 114.584 179.483 Q114.584 170.733 117.64 166.15 Q120.718 161.543 126.529 161.543 Z" fill="#000000" fill-rule="nonzero" fill-opacity="1" /><path clip-path="url(#clip420)" d="M146.691 190.849 L151.575 190.849 L151.575 196.728 L146.691 196.728 L146.691 190.849 Z" fill="#000000" fill-rule="nonzero" fill-opacity="1" /><path clip-path="url(#clip420)" d="M172.339 177.585 Q169.19 177.585 167.339 179.737 Q165.51 181.89 165.51 185.64 Q165.51 189.367 167.339 191.543 Q169.19 193.696 172.339 193.696 Q175.487 193.696 177.315 191.543 Q179.167 189.367 179.167 185.64 Q179.167 181.89 177.315 179.737 Q175.487 177.585 172.339 177.585 M181.621 162.932 L181.621 167.191 Q179.862 166.358 178.056 165.918 Q176.274 165.478 174.514 165.478 Q169.885 165.478 167.431 168.603 Q165.001 171.728 164.653 178.048 Q166.019 176.034 168.079 174.969 Q170.139 173.881 172.616 173.881 Q177.825 173.881 180.834 177.052 Q183.866 180.2 183.866 185.64 Q183.866 190.964 180.718 194.182 Q177.57 197.399 172.339 197.399 Q166.343 197.399 163.172 192.816 Q160.001 188.21 160.001 179.483 Q160.001 171.288 163.89 166.427 Q167.778 161.543 174.329 161.543 Q176.089 161.543 177.871 161.89 Q179.676 162.238 181.621 162.932 Z" fill="#000000" fill-rule="nonzero" fill-opacity="1" /><path clip-path="url(#clip420)" d="M22.818 978.159 L46.4666 986.88 L46.4666 969.406 L22.818 978.159 M16.4842 981.787 L16.4842 974.498 L64.0042 956.388 L64.0042 963.072 L51.8138 967.4 L51.8138 988.821 L64.0042 993.15 L64.0042 999.929 L16.4842 981.787 Z" fill="#000000" fill-rule="nonzero" fill-opacity="1" /><path clip-path="url(#clip420)" d="M14.479 949.927 L14.479 944.038 L43.7294 944.038 L28.3562 926.564 L28.3562 919.085 L45.0344 937.991 L64.0042 918.289 L64.0042 925.928 L46.5939 944.038 L64.0042 944.038 L64.0042 949.927 L14.479 949.927 Z" fill="#000000" fill-rule="nonzero" fill-opacity="1" /><path clip-path="url(#clip420)" d="M46.0847 896.9 Q46.0847 903.998 47.7079 906.735 Q49.3312 909.473 53.2461 909.473 Q56.3653 909.473 58.2114 907.436 Q60.0256 905.367 60.0256 901.834 Q60.0256 896.964 56.5881 894.036 Q53.1188 891.076 47.3897 891.076 L46.0847 891.076 L46.0847 896.9 M43.6657 885.219 L64.0042 885.219 L64.0042 891.076 L58.5933 891.076 Q61.8398 893.081 63.3994 896.073 Q64.9272 899.065 64.9272 903.393 Q64.9272 908.868 61.8716 912.114 Q58.7843 915.329 53.6281 915.329 Q47.6125 915.329 44.5569 911.319 Q41.5014 907.276 41.5014 899.287 L41.5014 891.076 L40.9285 891.076 Q36.8862 891.076 34.6901 893.749 Q32.4621 896.391 32.4621 901.197 Q32.4621 904.253 33.1941 907.149 Q33.9262 910.045 35.3903 912.719 L29.9795 912.719 Q28.7381 909.504 28.1334 906.481 Q27.4968 903.457 27.4968 900.592 Q27.4968 892.858 31.5072 889.039 Q35.5176 885.219 43.6657 885.219 Z" fill="#000000" fill-rule="nonzero" fill-opacity="1" /><path clip-path="url(#clip420)" d="M28.3562 873.156 L28.3562 867.3 L64.0042 867.3 L64.0042 873.156 L28.3562 873.156 M14.479 873.156 L14.479 867.3 L21.895 867.3 L21.895 873.156 L14.479 873.156 Z" fill="#000000" fill-rule="nonzero" fill-opacity="1" /><path clip-path="url(#clip420)" d="M14.479 855.269 L14.479 849.38 L43.7294 849.38 L28.3562 831.906 L28.3562 824.427 L45.0344 843.333 L64.0042 823.631 L64.0042 831.27 L46.5939 849.38 L64.0042 849.38 L64.0042 855.269 L14.479 855.269 Z" fill="#000000" fill-rule="nonzero" fill-opacity="1" /><path clip-path="url(#clip420)" d="M44.7161 789.129 L47.5806 789.129 L47.5806 816.056 Q53.6281 815.674 56.8109 812.427 Q59.9619 809.149 59.9619 803.324 Q59.9619 799.951 59.1344 796.8 Q58.3069 793.617 56.6518 790.497 L62.1899 790.497 Q63.5267 793.649 64.227 796.959 Q64.9272 800.269 64.9272 803.674 Q64.9272 812.205 59.9619 817.202 Q54.9967 822.167 46.5303 822.167 Q37.7774 822.167 32.6531 817.456 Q27.4968 812.714 27.4968 804.693 Q27.4968 797.5 32.1438 793.33 Q36.7589 789.129 44.7161 789.129 M42.9973 794.985 Q38.1912 795.049 35.3266 797.691 Q32.4621 800.301 32.4621 804.629 Q32.4621 809.531 35.2312 812.491 Q38.0002 815.419 43.0292 815.865 L42.9973 794.985 Z" fill="#000000" fill-rule="nonzero" fill-opacity="1" /><path clip-path="url(#clip420)" d="M28.3562 762.202 L28.3562 756.345 L56.1743 749.025 L28.3562 741.736 L28.3562 734.829 L56.1743 727.509 L28.3562 720.22 L28.3562 714.364 L64.0042 723.689 L64.0042 730.596 L34.7856 738.267 L64.0042 745.969 L64.0042 752.876 L28.3562 762.202 Z" fill="#000000" fill-rule="nonzero" fill-opacity="1" /><path clip-path="url(#clip420)" d="M44.7161 674.992 L47.5806 674.992 L47.5806 701.919 Q53.6281 701.537 56.8109 698.29 Q59.9619 695.012 59.9619 689.187 Q59.9619 685.813 59.1344 682.662 Q58.3069 679.48 56.6518 676.36 L62.1899 676.36 Q63.5267 679.511 64.227 682.822 Q64.9272 686.132 64.9272 689.537 Q64.9272 698.067 59.9619 703.064 Q54.9967 708.03 46.5303 708.03 Q37.7774 708.03 32.6531 703.319 Q27.4968 698.577 27.4968 690.556 Q27.4968 683.363 32.1438 679.193 Q36.7589 674.992 44.7161 674.992 M42.9973 680.848 Q38.1912 680.912 35.3266 683.554 Q32.4621 686.164 32.4621 690.492 Q32.4621 695.394 35.2312 698.354 Q38.0002 701.282 43.0292 701.728 L42.9973 680.848 Z" fill="#000000" fill-rule="nonzero" fill-opacity="1" /><path clip-path="url(#clip420)" d="M28.3562 665.38 L28.3562 659.523 L64.0042 659.523 L64.0042 665.38 L28.3562 665.38 M14.479 665.38 L14.479 659.523 L21.895 659.523 L21.895 665.38 L14.479 665.38 Z" fill="#000000" fill-rule="nonzero" fill-opacity="1" /><path clip-path="url(#clip420)" d="M45.7664 623.811 Q39.4007 623.811 35.8996 626.453 Q32.3984 629.063 32.3984 633.806 Q32.3984 638.516 35.8996 641.158 Q39.4007 643.768 45.7664 643.768 Q52.1003 643.768 55.6014 641.158 Q59.1026 638.516 59.1026 633.806 Q59.1026 629.063 55.6014 626.453 Q52.1003 623.811 45.7664 623.811 M59.58 617.955 Q68.683 617.955 73.1071 621.997 Q77.5631 626.039 77.5631 634.379 Q77.5631 637.466 77.0857 640.203 Q76.6401 642.94 75.6852 645.519 L69.9879 645.519 Q71.3884 642.94 72.0568 640.426 Q72.7252 637.911 72.7252 635.302 Q72.7252 629.541 69.7015 626.676 Q66.7096 623.811 60.6303 623.811 L57.7339 623.811 Q60.885 625.626 62.4446 628.458 Q64.0042 631.291 64.0042 635.238 Q64.0042 641.795 59.0071 645.805 Q54.01 649.815 45.7664 649.815 Q37.491 649.815 32.4939 645.805 Q27.4968 641.795 27.4968 635.238 Q27.4968 631.291 29.0564 628.458 Q30.616 625.626 33.7671 623.811 L28.3562 623.811 L28.3562 617.955 L59.58 617.955 Z" fill="#000000" fill-rule="nonzero" fill-opacity="1" /><path clip-path="url(#clip420)" d="M42.4881 576.26 L64.0042 576.26 L64.0042 582.116 L42.679 582.116 Q37.6183 582.116 35.1038 584.089 Q32.5894 586.063 32.5894 590.01 Q32.5894 594.752 35.6131 597.489 Q38.6368 600.227 43.8567 600.227 L64.0042 600.227 L64.0042 606.115 L14.479 606.115 L14.479 600.227 L33.8944 600.227 Q30.6797 598.126 29.0883 595.293 Q27.4968 592.429 27.4968 588.705 Q27.4968 582.562 31.3163 579.411 Q35.1038 576.26 42.4881 576.26 Z" fill="#000000" fill-rule="nonzero" fill-opacity="1" /><path clip-path="url(#clip420)" d="M18.2347 558.786 L28.3562 558.786 L28.3562 546.723 L32.9077 546.723 L32.9077 558.786 L52.2594 558.786 Q56.6199 558.786 57.8613 557.608 Q59.1026 556.399 59.1026 552.738 L59.1026 546.723 L64.0042 546.723 L64.0042 552.738 Q64.0042 559.518 61.4897 562.096 Q58.9434 564.674 52.2594 564.674 L32.9077 564.674 L32.9077 568.971 L28.3562 568.971 L28.3562 564.674 L18.2347 564.674 L18.2347 558.786 Z" fill="#000000" fill-rule="nonzero" fill-opacity="1" /><path clip-path="url(#clip420)" d="M457.233 44.2197 Q459.866 45.1109 462.337 48.0275 Q464.848 50.9442 467.36 56.0483 L475.664 72.576 L466.874 72.576 L459.137 57.061 Q456.139 50.9847 453.303 48.9997 Q450.508 47.0148 445.647 47.0148 L436.735 47.0148 L436.735 72.576 L428.552 72.576 L428.552 12.096 L447.024 12.096 Q457.395 12.096 462.499 16.4305 Q467.603 20.7649 467.603 29.5149 Q467.603 35.2267 464.929 38.994 Q462.296 42.7613 457.233 44.2197 M436.735 18.8205 L436.735 40.2903 L447.024 40.2903 Q452.939 40.2903 455.936 37.5762 Q458.975 34.8216 458.975 29.5149 Q458.975 24.2082 455.936 21.5346 Q452.939 18.8205 447.024 18.8205 L436.735 18.8205 Z" fill="#000000" fill-rule="nonzero" fill-opacity="1" /><path clip-path="url(#clip420)" d="M520.953 48.0275 L520.953 51.6733 L486.683 51.6733 Q487.169 59.3701 491.301 63.421 Q495.473 67.4314 502.886 67.4314 Q507.18 67.4314 511.191 66.3781 Q515.242 65.3249 519.212 63.2184 L519.212 70.267 Q515.201 71.9684 510.988 72.8596 Q506.775 73.7508 502.441 73.7508 Q491.584 73.7508 485.225 67.4314 Q478.905 61.1119 478.905 50.3365 Q478.905 39.1965 484.9 32.6746 Q490.936 26.1121 501.145 26.1121 Q510.3 26.1121 515.606 32.0264 Q520.953 37.9003 520.953 48.0275 M513.5 45.84 Q513.419 39.7232 510.057 36.0774 Q506.735 32.4315 501.226 32.4315 Q494.987 32.4315 491.22 35.9558 Q487.493 39.4801 486.926 45.8805 L513.5 45.84 Z" fill="#000000" fill-rule="nonzero" fill-opacity="1" /><path clip-path="url(#clip420)" d="M533.187 9.54393 L540.641 9.54393 L540.641 72.576 L533.187 72.576 L533.187 9.54393 Z" fill="#000000" fill-rule="nonzero" fill-opacity="1" /><path clip-path="url(#clip420)" d="M576.856 49.7694 Q567.822 49.7694 564.339 51.8354 Q560.855 53.9013 560.855 58.8839 Q560.855 62.8538 563.447 65.2034 Q566.081 67.5124 570.577 67.5124 Q576.775 67.5124 580.502 63.1374 Q584.269 58.7219 584.269 51.4303 L584.269 49.7694 L576.856 49.7694 M591.723 46.6907 L591.723 72.576 L584.269 72.576 L584.269 65.6895 Q581.717 69.8214 577.909 71.8063 Q574.101 73.7508 568.592 73.7508 Q561.625 73.7508 557.493 69.8619 Q553.401 65.9325 553.401 59.3701 Q553.401 51.7138 558.505 47.825 Q563.65 43.9361 573.818 43.9361 L584.269 43.9361 L584.269 43.2069 Q584.269 38.0623 580.866 35.2672 Q577.504 32.4315 571.387 32.4315 Q567.498 32.4315 563.812 33.3632 Q560.126 34.295 556.723 36.1584 L556.723 29.2718 Q560.814 27.692 564.663 26.9223 Q568.511 26.1121 572.157 26.1121 Q582.001 26.1121 586.862 31.2163 Q591.723 36.3204 591.723 46.6907 Z" fill="#000000" fill-rule="nonzero" fill-opacity="1" /><path clip-path="url(#clip420)" d="M614.448 14.324 L614.448 27.2059 L629.801 27.2059 L629.801 32.9987 L614.448 32.9987 L614.448 57.6282 Q614.448 63.1779 615.947 64.7578 Q617.487 66.3376 622.145 66.3376 L629.801 66.3376 L629.801 72.576 L622.145 72.576 Q613.517 72.576 610.235 69.3758 Q606.954 66.1351 606.954 57.6282 L606.954 32.9987 L601.485 32.9987 L601.485 27.2059 L606.954 27.2059 L606.954 14.324 L614.448 14.324 Z" fill="#000000" fill-rule="nonzero" fill-opacity="1" /><path clip-path="url(#clip420)" d="M639.604 27.2059 L647.058 27.2059 L647.058 72.576 L639.604 72.576 L639.604 27.2059 M639.604 9.54393 L647.058 9.54393 L647.058 18.9825 L639.604 18.9825 L639.604 9.54393 Z" fill="#000000" fill-rule="nonzero" fill-opacity="1" /><path clip-path="url(#clip420)" d="M657.307 27.2059 L665.206 27.2059 L679.384 65.2844 L693.563 27.2059 L701.462 27.2059 L684.448 72.576 L674.321 72.576 L657.307 27.2059 Z" fill="#000000" fill-rule="nonzero" fill-opacity="1" /><path clip-path="url(#clip420)" d="M750.559 48.0275 L750.559 51.6733 L716.288 51.6733 Q716.774 59.3701 720.906 63.421 Q725.079 67.4314 732.492 67.4314 Q736.786 67.4314 740.796 66.3781 Q744.847 65.3249 748.817 63.2184 L748.817 70.267 Q744.806 71.9684 740.594 72.8596 Q736.381 73.7508 732.046 73.7508 Q721.19 73.7508 714.83 67.4314 Q708.51 61.1119 708.51 50.3365 Q708.51 39.1965 714.506 32.6746 Q720.542 26.1121 730.75 26.1121 Q739.905 26.1121 745.212 32.0264 Q750.559 37.9003 750.559 48.0275 M743.105 45.84 Q743.024 39.7232 739.662 36.0774 Q736.34 32.4315 730.831 32.4315 Q724.592 32.4315 720.825 35.9558 Q717.098 39.4801 716.531 45.8805 L743.105 45.84 Z" fill="#000000" fill-rule="nonzero" fill-opacity="1" /><path clip-path="url(#clip420)" d="M818.087 28.5427 L818.087 35.5912 Q814.928 33.9709 811.525 33.1607 Q808.122 32.3505 804.476 32.3505 Q798.927 32.3505 796.131 34.0519 Q793.377 35.7533 793.377 39.156 Q793.377 41.7486 795.362 43.2475 Q797.347 44.7058 803.342 46.0426 L805.894 46.6097 Q813.834 48.3111 817.156 51.4303 Q820.518 54.509 820.518 60.0587 Q820.518 66.3781 815.495 70.0644 Q810.512 73.7508 801.762 73.7508 Q798.116 73.7508 794.146 73.0216 Q790.217 72.3329 785.842 70.9151 L785.842 63.2184 Q789.974 65.3654 793.984 66.4591 Q797.995 67.5124 801.924 67.5124 Q807.19 67.5124 810.026 65.73 Q812.862 63.9071 812.862 60.6258 Q812.862 57.5877 810.796 55.9673 Q808.77 54.3469 801.843 52.8481 L799.251 52.2405 Q792.324 50.7821 789.245 47.7845 Q786.166 44.7463 786.166 39.4801 Q786.166 33.0797 790.703 29.5959 Q795.24 26.1121 803.585 26.1121 Q807.717 26.1121 811.363 26.7198 Q815.009 27.3274 818.087 28.5427 Z" fill="#000000" fill-rule="nonzero" fill-opacity="1" /><path clip-path="url(#clip420)" d="M831.617 54.671 L831.617 27.2059 L839.071 27.2059 L839.071 54.3874 Q839.071 60.8284 841.583 64.0691 Q844.094 67.2693 849.117 67.2693 Q855.153 67.2693 858.637 63.421 Q862.161 59.5726 862.161 52.9291 L862.161 27.2059 L869.615 27.2059 L869.615 72.576 L862.161 72.576 L862.161 65.6084 Q859.447 69.7404 855.842 71.7658 Q852.277 73.7508 847.537 73.7508 Q839.719 73.7508 835.668 68.8897 Q831.617 64.0286 831.617 54.671 M850.373 26.1121 L850.373 26.1121 Z" fill="#000000" fill-rule="nonzero" fill-opacity="1" /><path clip-path="url(#clip420)" d="M892.178 65.7705 L892.178 89.8329 L884.684 89.8329 L884.684 27.2059 L892.178 27.2059 L892.178 34.0924 Q894.528 30.0415 898.093 28.0971 Q901.698 26.1121 906.681 26.1121 Q914.944 26.1121 920.089 32.6746 Q925.274 39.2371 925.274 49.9314 Q925.274 60.6258 920.089 67.1883 Q914.944 73.7508 906.681 73.7508 Q901.698 73.7508 898.093 71.8063 Q894.528 69.8214 892.178 65.7705 M917.537 49.9314 Q917.537 41.7081 914.134 37.0496 Q910.772 32.3505 904.858 32.3505 Q898.943 32.3505 895.541 37.0496 Q892.178 41.7081 892.178 49.9314 Q892.178 58.1548 895.541 62.8538 Q898.943 67.5124 904.858 67.5124 Q910.772 67.5124 914.134 62.8538 Q917.537 58.1548 917.537 49.9314 Z" fill="#000000" fill-rule="nonzero" fill-opacity="1" /><path clip-path="url(#clip420)" d="M944.84 65.7705 L944.84 89.8329 L937.346 89.8329 L937.346 27.2059 L944.84 27.2059 L944.84 34.0924 Q947.19 30.0415 950.754 28.0971 Q954.36 26.1121 959.342 26.1121 Q967.606 26.1121 972.751 32.6746 Q977.936 39.2371 977.936 49.9314 Q977.936 60.6258 972.751 67.1883 Q967.606 73.7508 959.342 73.7508 Q954.36 73.7508 950.754 71.8063 Q947.19 69.8214 944.84 65.7705 M970.199 49.9314 Q970.199 41.7081 966.796 37.0496 Q963.434 32.3505 957.519 32.3505 Q951.605 32.3505 948.202 37.0496 Q944.84 41.7081 944.84 49.9314 Q944.84 58.1548 948.202 62.8538 Q951.605 67.5124 957.519 67.5124 Q963.434 67.5124 966.796 62.8538 Q970.199 58.1548 970.199 49.9314 Z" fill="#000000" fill-rule="nonzero" fill-opacity="1" /><path clip-path="url(#clip420)" d="M1007.87 32.4315 Q1001.88 32.4315 998.393 37.1306 Q994.909 41.7891 994.909 49.9314 Q994.909 58.0738 998.353 62.7728 Q1001.84 67.4314 1007.87 67.4314 Q1013.83 67.4314 1017.31 62.7323 Q1020.79 58.0333 1020.79 49.9314 Q1020.79 41.8701 1017.31 37.1711 Q1013.83 32.4315 1007.87 32.4315 M1007.87 26.1121 Q1017.59 26.1121 1023.14 32.4315 Q1028.69 38.7509 1028.69 49.9314 Q1028.69 61.0714 1023.14 67.4314 Q1017.59 73.7508 1007.87 73.7508 Q998.11 73.7508 992.56 67.4314 Q987.051 61.0714 987.051 49.9314 Q987.051 38.7509 992.56 32.4315 Q998.11 26.1121 1007.87 26.1121 Z" fill="#000000" fill-rule="nonzero" fill-opacity="1" /><path clip-path="url(#clip420)" d="M1067.34 34.1734 Q1066.08 33.4443 1064.58 33.1202 Q1063.13 32.7556 1061.34 32.7556 Q1055.02 32.7556 1051.62 36.8875 Q1048.26 40.9789 1048.26 48.6757 L1048.26 72.576 L1040.77 72.576 L1040.77 27.2059 L1048.26 27.2059 L1048.26 34.2544 Q1050.61 30.1225 1054.38 28.1376 Q1058.14 26.1121 1063.53 26.1121 Q1064.3 26.1121 1065.23 26.2337 Q1066.16 26.3147 1067.3 26.5172 L1067.34 34.1734 Z" fill="#000000" fill-rule="nonzero" fill-opacity="1" /><path clip-path="url(#clip420)" d="M1082.53 14.324 L1082.53 27.2059 L1097.88 27.2059 L1097.88 32.9987 L1082.53 32.9987 L1082.53 57.6282 Q1082.53 63.1779 1084.03 64.7578 Q1085.57 66.3376 1090.23 66.3376 L1097.88 66.3376 L1097.88 72.576 L1090.23 72.576 Q1081.6 72.576 1078.32 69.3758 Q1075.04 66.1351 1075.04 57.6282 L1075.04 32.9987 L1069.57 32.9987 L1069.57 27.2059 L1075.04 27.2059 L1075.04 14.324 L1082.53 14.324 Z" fill="#000000" fill-rule="nonzero" fill-opacity="1" /><path clip-path="url(#clip420)" d="M1154.68 49.7694 Q1145.64 49.7694 1142.16 51.8354 Q1138.68 53.9013 1138.68 58.8839 Q1138.68 62.8538 1141.27 65.2034 Q1143.9 67.5124 1148.4 67.5124 Q1154.6 67.5124 1158.32 63.1374 Q1162.09 58.7219 1162.09 51.4303 L1162.09 49.7694 L1154.68 49.7694 M1169.54 46.6907 L1169.54 72.576 L1162.09 72.576 L1162.09 65.6895 Q1159.54 69.8214 1155.73 71.8063 Q1151.92 73.7508 1146.41 73.7508 Q1139.45 73.7508 1135.31 69.8619 Q1131.22 65.9325 1131.22 59.3701 Q1131.22 51.7138 1136.33 47.825 Q1141.47 43.9361 1151.64 43.9361 L1162.09 43.9361 L1162.09 43.2069 Q1162.09 38.0623 1158.69 35.2672 Q1155.33 32.4315 1149.21 32.4315 Q1145.32 32.4315 1141.63 33.3632 Q1137.95 34.295 1134.54 36.1584 L1134.54 29.2718 Q1138.64 27.692 1142.48 26.9223 Q1146.33 26.1121 1149.98 26.1121 Q1159.82 26.1121 1164.68 31.2163 Q1169.54 36.3204 1169.54 46.6907 Z" fill="#000000" fill-rule="nonzero" fill-opacity="1" /><path clip-path="url(#clip420)" d="M1217.55 28.9478 L1217.55 35.9153 Q1214.39 34.1734 1211.19 33.3227 Q1208.03 32.4315 1204.79 32.4315 Q1197.54 32.4315 1193.53 37.0496 Q1189.51 41.6271 1189.51 49.9314 Q1189.51 58.2358 1193.53 62.8538 Q1197.54 67.4314 1204.79 67.4314 Q1208.03 67.4314 1211.19 66.5807 Q1214.39 65.6895 1217.55 63.9476 L1217.55 70.8341 Q1214.43 72.2924 1211.07 73.0216 Q1207.74 73.7508 1203.98 73.7508 Q1193.73 73.7508 1187.69 67.3098 Q1181.66 60.8689 1181.66 49.9314 Q1181.66 38.832 1187.73 32.472 Q1193.85 26.1121 1204.46 26.1121 Q1207.91 26.1121 1211.19 26.8413 Q1214.47 27.5299 1217.55 28.9478 Z" fill="#000000" fill-rule="nonzero" fill-opacity="1" /><path clip-path="url(#clip420)" d="M1256.8 34.1734 Q1255.54 33.4443 1254.05 33.1202 Q1252.59 32.7556 1250.8 32.7556 Q1244.49 32.7556 1241.08 36.8875 Q1237.72 40.9789 1237.72 48.6757 L1237.72 72.576 L1230.23 72.576 L1230.23 27.2059 L1237.72 27.2059 L1237.72 34.2544 Q1240.07 30.1225 1243.84 28.1376 Q1247.6 26.1121 1252.99 26.1121 Q1253.76 26.1121 1254.69 26.2337 Q1255.63 26.3147 1256.76 26.5172 L1256.8 34.1734 Z" fill="#000000" fill-rule="nonzero" fill-opacity="1" /><path clip-path="url(#clip420)" d="M1280.38 32.4315 Q1274.38 32.4315 1270.9 37.1306 Q1267.41 41.7891 1267.41 49.9314 Q1267.41 58.0738 1270.86 62.7728 Q1274.34 67.4314 1280.38 67.4314 Q1286.33 67.4314 1289.82 62.7323 Q1293.3 58.0333 1293.3 49.9314 Q1293.3 41.8701 1289.82 37.1711 Q1286.33 32.4315 1280.38 32.4315 M1280.38 26.1121 Q1290.1 26.1121 1295.65 32.4315 Q1301.2 38.7509 1301.2 49.9314 Q1301.2 61.0714 1295.65 67.4314 Q1290.1 73.7508 1280.38 73.7508 Q1270.61 73.7508 1265.06 67.4314 Q1259.55 61.0714 1259.55 49.9314 Q1259.55 38.7509 1265.06 32.4315 Q1270.61 26.1121 1280.38 26.1121 Z" fill="#000000" fill-rule="nonzero" fill-opacity="1" /><path clip-path="url(#clip420)" d="M1342.48 28.5427 L1342.48 35.5912 Q1339.32 33.9709 1335.91 33.1607 Q1332.51 32.3505 1328.87 32.3505 Q1323.32 32.3505 1320.52 34.0519 Q1317.77 35.7533 1317.77 39.156 Q1317.77 41.7486 1319.75 43.2475 Q1321.74 44.7058 1327.73 46.0426 L1330.28 46.6097 Q1338.22 48.3111 1341.55 51.4303 Q1344.91 54.509 1344.91 60.0587 Q1344.91 66.3781 1339.88 70.0644 Q1334.9 73.7508 1326.15 73.7508 Q1322.51 73.7508 1318.54 73.0216 Q1314.61 72.3329 1310.23 70.9151 L1310.23 63.2184 Q1314.36 65.3654 1318.37 66.4591 Q1322.38 67.5124 1326.31 67.5124 Q1331.58 67.5124 1334.42 65.73 Q1337.25 63.9071 1337.25 60.6258 Q1337.25 57.5877 1335.19 55.9673 Q1333.16 54.3469 1326.23 52.8481 L1323.64 52.2405 Q1316.71 50.7821 1313.63 47.7845 Q1310.56 44.7463 1310.56 39.4801 Q1310.56 33.0797 1315.09 29.5959 Q1319.63 26.1121 1327.97 26.1121 Q1332.11 26.1121 1335.75 26.7198 Q1339.4 27.3274 1342.48 28.5427 Z" fill="#000000" fill-rule="nonzero" fill-opacity="1" /><path clip-path="url(#clip420)" d="M1385.7 28.5427 L1385.7 35.5912 Q1382.54 33.9709 1379.14 33.1607 Q1375.73 32.3505 1372.09 32.3505 Q1366.54 32.3505 1363.74 34.0519 Q1360.99 35.7533 1360.99 39.156 Q1360.99 41.7486 1362.97 43.2475 Q1364.96 44.7058 1370.95 46.0426 L1373.51 46.6097 Q1381.45 48.3111 1384.77 51.4303 Q1388.13 54.509 1388.13 60.0587 Q1388.13 66.3781 1383.11 70.0644 Q1378.12 73.7508 1369.37 73.7508 Q1365.73 73.7508 1361.76 73.0216 Q1357.83 72.3329 1353.45 70.9151 L1353.45 63.2184 Q1357.59 65.3654 1361.6 66.4591 Q1365.61 67.5124 1369.54 67.5124 Q1374.8 67.5124 1377.64 65.73 Q1380.47 63.9071 1380.47 60.6258 Q1380.47 57.5877 1378.41 55.9673 Q1376.38 54.3469 1369.46 52.8481 L1366.86 52.2405 Q1359.94 50.7821 1356.86 47.7845 Q1353.78 44.7463 1353.78 39.4801 Q1353.78 33.0797 1358.32 29.5959 Q1362.85 26.1121 1371.2 26.1121 Q1375.33 26.1121 1378.98 26.7198 Q1382.62 27.3274 1385.7 28.5427 Z" fill="#000000" fill-rule="nonzero" fill-opacity="1" /><path clip-path="url(#clip420)" d="M1433.74 14.324 L1433.74 27.2059 L1449.1 27.2059 L1449.1 32.9987 L1433.74 32.9987 L1433.74 57.6282 Q1433.74 63.1779 1435.24 64.7578 Q1436.78 66.3376 1441.44 66.3376 L1449.1 66.3376 L1449.1 72.576 L1441.44 72.576 Q1432.81 72.576 1429.53 69.3758 Q1426.25 66.1351 1426.25 57.6282 L1426.25 32.9987 L1420.78 32.9987 L1420.78 27.2059 L1426.25 27.2059 L1426.25 14.324 L1433.74 14.324 Z" fill="#000000" fill-rule="nonzero" fill-opacity="1" /><path clip-path="url(#clip420)" d="M1496.61 45.1919 L1496.61 72.576 L1489.16 72.576 L1489.16 45.4349 Q1489.16 38.994 1486.65 35.7938 Q1484.14 32.5936 1479.11 32.5936 Q1473.08 32.5936 1469.59 36.4419 Q1466.11 40.2903 1466.11 46.9338 L1466.11 72.576 L1458.62 72.576 L1458.62 9.54393 L1466.11 9.54393 L1466.11 34.2544 Q1468.78 30.163 1472.39 28.1376 Q1476.04 26.1121 1480.77 26.1121 Q1488.59 26.1121 1492.6 30.9732 Q1496.61 35.7938 1496.61 45.1919 Z" fill="#000000" fill-rule="nonzero" fill-opacity="1" /><path clip-path="url(#clip420)" d="M1550.29 48.0275 L1550.29 51.6733 L1516.02 51.6733 Q1516.5 59.3701 1520.64 63.421 Q1524.81 67.4314 1532.22 67.4314 Q1536.52 67.4314 1540.53 66.3781 Q1544.58 65.3249 1548.55 63.2184 L1548.55 70.267 Q1544.54 71.9684 1540.32 72.8596 Q1536.11 73.7508 1531.78 73.7508 Q1520.92 73.7508 1514.56 67.4314 Q1508.24 61.1119 1508.24 50.3365 Q1508.24 39.1965 1514.24 32.6746 Q1520.27 26.1121 1530.48 26.1121 Q1539.63 26.1121 1544.94 32.0264 Q1550.29 37.9003 1550.29 48.0275 M1542.83 45.84 Q1542.75 39.7232 1539.39 36.0774 Q1536.07 32.4315 1530.56 32.4315 Q1524.32 32.4315 1520.55 35.9558 Q1516.83 39.4801 1516.26 45.8805 L1542.83 45.84 Z" fill="#000000" fill-rule="nonzero" fill-opacity="1" /><path clip-path="url(#clip420)" d="M1621.54 28.9478 L1621.54 35.9153 Q1618.38 34.1734 1615.18 33.3227 Q1612.02 32.4315 1608.78 32.4315 Q1601.53 32.4315 1597.52 37.0496 Q1593.51 41.6271 1593.51 49.9314 Q1593.51 58.2358 1597.52 62.8538 Q1601.53 67.4314 1608.78 67.4314 Q1612.02 67.4314 1615.18 66.5807 Q1618.38 65.6895 1621.54 63.9476 L1621.54 70.8341 Q1618.42 72.2924 1615.06 73.0216 Q1611.74 73.7508 1607.97 73.7508 Q1597.72 73.7508 1591.69 67.3098 Q1585.65 60.8689 1585.65 49.9314 Q1585.65 38.832 1591.73 32.472 Q1597.85 26.1121 1608.46 26.1121 Q1611.9 26.1121 1615.18 26.8413 Q1618.46 27.5299 1621.54 28.9478 Z" fill="#000000" fill-rule="nonzero" fill-opacity="1" /><path clip-path="url(#clip420)" d="M1655.13 49.7694 Q1646.09 49.7694 1642.61 51.8354 Q1639.12 53.9013 1639.12 58.8839 Q1639.12 62.8538 1641.72 65.2034 Q1644.35 67.5124 1648.85 67.5124 Q1655.04 67.5124 1658.77 63.1374 Q1662.54 58.7219 1662.54 51.4303 L1662.54 49.7694 L1655.13 49.7694 M1669.99 46.6907 L1669.99 72.576 L1662.54 72.576 L1662.54 65.6895 Q1659.99 69.8214 1656.18 71.8063 Q1652.37 73.7508 1646.86 73.7508 Q1639.89 73.7508 1635.76 69.8619 Q1631.67 65.9325 1631.67 59.3701 Q1631.67 51.7138 1636.78 47.825 Q1641.92 43.9361 1652.09 43.9361 L1662.54 43.9361 L1662.54 43.2069 Q1662.54 38.0623 1659.14 35.2672 Q1655.77 32.4315 1649.66 32.4315 Q1645.77 32.4315 1642.08 33.3632 Q1638.4 34.295 1634.99 36.1584 L1634.99 29.2718 Q1639.08 27.692 1642.93 26.9223 Q1646.78 26.1121 1650.43 26.1121 Q1660.27 26.1121 1665.13 31.2163 Q1669.99 36.3204 1669.99 46.6907 Z" fill="#000000" fill-rule="nonzero" fill-opacity="1" /><path clip-path="url(#clip420)" d="M1723.06 45.1919 L1723.06 72.576 L1715.61 72.576 L1715.61 45.4349 Q1715.61 38.994 1713.09 35.7938 Q1710.58 32.5936 1705.56 32.5936 Q1699.52 32.5936 1696.04 36.4419 Q1692.56 40.2903 1692.56 46.9338 L1692.56 72.576 L1685.06 72.576 L1685.06 27.2059 L1692.56 27.2059 L1692.56 34.2544 Q1695.23 30.163 1698.83 28.1376 Q1702.48 26.1121 1707.22 26.1121 Q1715.04 26.1121 1719.05 30.9732 Q1723.06 35.7938 1723.06 45.1919 Z" fill="#000000" fill-rule="nonzero" fill-opacity="1" /><path clip-path="url(#clip420)" d="M1767.78 34.0924 L1767.78 9.54393 L1775.23 9.54393 L1775.23 72.576 L1767.78 72.576 L1767.78 65.7705 Q1765.43 69.8214 1761.83 71.8063 Q1758.26 73.7508 1753.24 73.7508 Q1745.02 73.7508 1739.83 67.1883 Q1734.69 60.6258 1734.69 49.9314 Q1734.69 39.2371 1739.83 32.6746 Q1745.02 26.1121 1753.24 26.1121 Q1758.26 26.1121 1761.83 28.0971 Q1765.43 30.0415 1767.78 34.0924 M1742.38 49.9314 Q1742.38 58.1548 1745.74 62.8538 Q1749.15 67.5124 1755.06 67.5124 Q1760.98 67.5124 1764.38 62.8538 Q1767.78 58.1548 1767.78 49.9314 Q1767.78 41.7081 1764.38 37.0496 Q1760.98 32.3505 1755.06 32.3505 Q1749.15 32.3505 1745.74 37.0496 Q1742.38 41.7081 1742.38 49.9314 Z" fill="#000000" fill-rule="nonzero" fill-opacity="1" /><path clip-path="url(#clip420)" d="M1790.59 27.2059 L1798.04 27.2059 L1798.04 72.576 L1790.59 72.576 L1790.59 27.2059 M1790.59 9.54393 L1798.04 9.54393 L1798.04 18.9825 L1790.59 18.9825 L1790.59 9.54393 Z" fill="#000000" fill-rule="nonzero" fill-opacity="1" /><path clip-path="url(#clip420)" d="M1843.49 34.0924 L1843.49 9.54393 L1850.95 9.54393 L1850.95 72.576 L1843.49 72.576 L1843.49 65.7705 Q1841.14 69.8214 1837.54 71.8063 Q1833.97 73.7508 1828.95 73.7508 Q1820.73 73.7508 1815.54 67.1883 Q1810.4 60.6258 1810.4 49.9314 Q1810.4 39.2371 1815.54 32.6746 Q1820.73 26.1121 1828.95 26.1121 Q1833.97 26.1121 1837.54 28.0971 Q1841.14 30.0415 1843.49 34.0924 M1818.09 49.9314 Q1818.09 58.1548 1821.46 62.8538 Q1824.86 67.5124 1830.77 67.5124 Q1836.69 67.5124 1840.09 62.8538 Q1843.49 58.1548 1843.49 49.9314 Q1843.49 41.7081 1840.09 37.0496 Q1836.69 32.3505 1830.77 32.3505 Q1824.86 32.3505 1821.46 37.0496 Q1818.09 41.7081 1818.09 49.9314 Z" fill="#000000" fill-rule="nonzero" fill-opacity="1" /><path clip-path="url(#clip420)" d="M1886.92 49.7694 Q1877.88 49.7694 1874.4 51.8354 Q1870.92 53.9013 1870.92 58.8839 Q1870.92 62.8538 1873.51 65.2034 Q1876.14 67.5124 1880.64 67.5124 Q1886.84 67.5124 1890.56 63.1374 Q1894.33 58.7219 1894.33 51.4303 L1894.33 49.7694 L1886.92 49.7694 M1901.79 46.6907 L1901.79 72.576 L1894.33 72.576 L1894.33 65.6895 Q1891.78 69.8214 1887.97 71.8063 Q1884.16 73.7508 1878.65 73.7508 Q1871.69 73.7508 1867.56 69.8619 Q1863.46 65.9325 1863.46 59.3701 Q1863.46 51.7138 1868.57 47.825 Q1873.71 43.9361 1883.88 43.9361 L1894.33 43.9361 L1894.33 43.2069 Q1894.33 38.0623 1890.93 35.2672 Q1887.57 32.4315 1881.45 32.4315 Q1877.56 32.4315 1873.87 33.3632 Q1870.19 34.295 1866.79 36.1584 L1866.79 29.2718 Q1870.88 27.692 1874.73 26.9223 Q1878.57 26.1121 1882.22 26.1121 Q1892.06 26.1121 1896.92 31.2163 Q1901.79 36.3204 1901.79 46.6907 Z" fill="#000000" fill-rule="nonzero" fill-opacity="1" /><path clip-path="url(#clip420)" d="M1924.51 14.324 L1924.51 27.2059 L1939.86 27.2059 L1939.86 32.9987 L1924.51 32.9987 L1924.51 57.6282 Q1924.51 63.1779 1926.01 64.7578 Q1927.55 66.3376 1932.21 66.3376 L1939.86 66.3376 L1939.86 72.576 L1932.21 72.576 Q1923.58 72.576 1920.3 69.3758 Q1917.02 66.1351 1917.02 57.6282 L1917.02 32.9987 L1911.55 32.9987 L1911.55 27.2059 L1917.02 27.2059 L1917.02 14.324 L1924.51 14.324 Z" fill="#000000" fill-rule="nonzero" fill-opacity="1" /><path clip-path="url(#clip420)" d="M1988.47 48.0275 L1988.47 51.6733 L1954.2 51.6733 Q1954.69 59.3701 1958.82 63.421 Q1962.99 67.4314 1970.41 67.4314 Q1974.7 67.4314 1978.71 66.3781 Q1982.76 65.3249 1986.73 63.2184 L1986.73 70.267 Q1982.72 71.9684 1978.51 72.8596 Q1974.3 73.7508 1969.96 73.7508 Q1959.11 73.7508 1952.75 67.4314 Q1946.43 61.1119 1946.43 50.3365 Q1946.43 39.1965 1952.42 32.6746 Q1958.46 26.1121 1968.67 26.1121 Q1977.82 26.1121 1983.13 32.0264 Q1988.47 37.9003 1988.47 48.0275 M1981.02 45.84 Q1980.94 39.7232 1977.58 36.0774 Q1974.26 32.4315 1968.75 32.4315 Q1962.51 32.4315 1958.74 35.9558 Q1955.01 39.4801 1954.45 45.8805 L1981.02 45.84 Z" fill="#000000" fill-rule="nonzero" fill-opacity="1" /><path clip-path="url(#clip420)" d="M2056 28.5427 L2056 35.5912 Q2052.84 33.9709 2049.44 33.1607 Q2046.04 32.3505 2042.39 32.3505 Q2036.84 32.3505 2034.05 34.0519 Q2031.29 35.7533 2031.29 39.156 Q2031.29 41.7486 2033.28 43.2475 Q2035.26 44.7058 2041.26 46.0426 L2043.81 46.6097 Q2051.75 48.3111 2055.07 51.4303 Q2058.43 54.509 2058.43 60.0587 Q2058.43 66.3781 2053.41 70.0644 Q2048.43 73.7508 2039.68 73.7508 Q2036.03 73.7508 2032.06 73.0216 Q2028.13 72.3329 2023.76 70.9151 L2023.76 63.2184 Q2027.89 65.3654 2031.9 66.4591 Q2035.91 67.5124 2039.84 67.5124 Q2045.11 67.5124 2047.94 65.73 Q2050.78 63.9071 2050.78 60.6258 Q2050.78 57.5877 2048.71 55.9673 Q2046.69 54.3469 2039.76 52.8481 L2037.17 52.2405 Q2030.24 50.7821 2027.16 47.7845 Q2024.08 44.7463 2024.08 39.4801 Q2024.08 33.0797 2028.62 29.5959 Q2033.16 26.1121 2041.5 26.1121 Q2045.63 26.1121 2049.28 26.7198 Q2052.92 27.3274 2056 28.5427 Z" fill="#000000" fill-rule="nonzero" fill-opacity="1" /><path clip-path="url(#clip420)" d="M2109.11 48.0275 L2109.11 51.6733 L2074.84 51.6733 Q2075.33 59.3701 2079.46 63.421 Q2083.63 67.4314 2091.04 67.4314 Q2095.34 67.4314 2099.35 66.3781 Q2103.4 65.3249 2107.37 63.2184 L2107.37 70.267 Q2103.36 71.9684 2099.15 72.8596 Q2094.93 73.7508 2090.6 73.7508 Q2079.74 73.7508 2073.38 67.4314 Q2067.06 61.1119 2067.06 50.3365 Q2067.06 39.1965 2073.06 32.6746 Q2079.09 26.1121 2089.3 26.1121 Q2098.46 26.1121 2103.76 32.0264 Q2109.11 37.9003 2109.11 48.0275 M2101.66 45.84 Q2101.58 39.7232 2098.21 36.0774 Q2094.89 32.4315 2089.38 32.4315 Q2083.14 32.4315 2079.38 35.9558 Q2075.65 39.4801 2075.08 45.8805 L2101.66 45.84 Z" fill="#000000" fill-rule="nonzero" fill-opacity="1" /><path clip-path="url(#clip420)" d="M2128.72 14.324 L2128.72 27.2059 L2144.07 27.2059 L2144.07 32.9987 L2128.72 32.9987 L2128.72 57.6282 Q2128.72 63.1779 2130.22 64.7578 Q2131.76 66.3376 2136.41 66.3376 L2144.07 66.3376 L2144.07 72.576 L2136.41 72.576 Q2127.79 72.576 2124.5 69.3758 Q2121.22 66.1351 2121.22 57.6282 L2121.22 32.9987 L2115.75 32.9987 L2115.75 27.2059 L2121.22 27.2059 L2121.22 14.324 L2128.72 14.324 Z" fill="#000000" fill-rule="nonzero" fill-opacity="1" /><path clip-path="url(#clip421)" d="M337.179 123.472 L337.179 1423.18 L879.54 1423.18 L879.54 123.472 L337.179 123.472 L337.179 123.472  Z" fill="#000000" fill-rule="evenodd" fill-opacity="0.8"/>
<polyline clip-path="url(#clip421)" style="stroke:#000000; stroke-linecap:round; stroke-linejoin:round; stroke-width:4; stroke-opacity:0.8; fill:none" points="337.179,123.472 337.179,1423.18 879.54,1423.18 879.54,123.472 337.179,123.472 "/>
<path clip-path="url(#clip421)" d="M1015.13 907.785 L1015.13 1423.18 L1557.49 1423.18 L1557.49 907.785 L1015.13 907.785 L1015.13 907.785  Z" fill="#4169e1" fill-rule="evenodd" fill-opacity="0.8"/>
<polyline clip-path="url(#clip421)" style="stroke:#000000; stroke-linecap:round; stroke-linejoin:round; stroke-width:4; stroke-opacity:0.8; fill:none" points="1015.13,907.785 1015.13,1423.18 1557.49,1423.18 1557.49,907.785 1015.13,907.785 "/>
<path clip-path="url(#clip421)" d="M1693.08 1165.4 L1693.08 1423.18 L2235.44 1423.18 L2235.44 1165.4 L1693.08 1165.4 L1693.08 1165.4  Z" fill="#b22222" fill-rule="evenodd" fill-opacity="0.8"/>
<polyline clip-path="url(#clip421)" style="stroke:#000000; stroke-linecap:round; stroke-linejoin:round; stroke-width:4; stroke-opacity:0.8; fill:none" points="1693.08,1165.4 1693.08,1423.18 2235.44,1423.18 2235.44,1165.4 1693.08,1165.4 "/>
<circle clip-path="url(#clip421)" style="fill:#000000; stroke:none; fill-opacity:0" cx="608.36" cy="123.472" r="2"/>
<circle clip-path="url(#clip421)" style="fill:#4169e1; stroke:none; fill-opacity:0" cx="1286.31" cy="907.785" r="2"/>
<circle clip-path="url(#clip421)" style="fill:#b22222; stroke:none; fill-opacity:0" cx="1964.26" cy="1165.4" r="2"/>
</svg>
