<?xml version="1.0" encoding="utf-8"?>
<svg xmlns="http://www.w3.org/2000/svg" xmlns:xlink="http://www.w3.org/1999/xlink" width="600" height="400" viewBox="0 0 2400 1600">
<defs>
  <clipPath id="clip960">
    <rect x="0" y="0" width="2400" height="1600"/>
  </clipPath>
</defs>
<path clip-path="url(#clip960)" d="M0 1600 L2400 1600 L2400 0 L0 0  Z" fill="#ffffff" fill-rule="evenodd" fill-opacity="1"/>
<defs>
  <clipPath id="clip961">
    <rect x="219" y="123" width="2134" height="1301"/>
  </clipPath>
</defs>
<path clip-path="url(#clip960)" d="M219.38 1423.18 L2352.76 1423.18 L2352.76 123.472 L219.38 123.472  Z" fill="#ffffff" fill-rule="evenodd" fill-opacity="1"/>
<polyline clip-path="url(#clip961)" style="stroke:#000000; stroke-linecap:round; stroke-linejoin:round; stroke-width:2; stroke-opacity:0.1; fill:none" points="467.664,1423.18 467.664,123.472 "/>
<polyline clip-path="url(#clip961)" style="stroke:#000000; stroke-linecap:round; stroke-linejoin:round; stroke-width:2; stroke-opacity:0.1; fill:none" points="795.026,1423.18 795.026,123.472 "/>
<polyline clip-path="url(#clip961)" style="stroke:#000000; stroke-linecap:round; stroke-linejoin:round; stroke-width:2; stroke-opacity:0.1; fill:none" points="1122.39,1423.18 1122.39,123.472 "/>
<polyline clip-path="url(#clip961)" style="stroke:#000000; stroke-linecap:round; stroke-linejoin:round; stroke-width:2; stroke-opacity:0.1; fill:none" points="1449.75,1423.18 1449.75,123.472 "/>
<polyline clip-path="url(#clip961)" style="stroke:#000000; stroke-linecap:round; stroke-linejoin:round; stroke-width:2; stroke-opacity:0.1; fill:none" points="1777.11,1423.18 1777.11,123.472 "/>
<polyline clip-path="url(#clip961)" style="stroke:#000000; stroke-linecap:round; stroke-linejoin:round; stroke-width:2; stroke-opacity:0.1; fill:none" points="2104.47,1423.18 2104.47,123.472 "/>
<polyline clip-path="url(#clip961)" style="stroke:#000000; stroke-linecap:round; stroke-linejoin:round; stroke-width:2; stroke-opacity:0.1; fill:none" points="219.38,1419.04 2352.76,1419.04 "/>
<polyline clip-path="url(#clip961)" style="stroke:#000000; stroke-linecap:round; stroke-linejoin:round; stroke-width:2; stroke-opacity:0.1; fill:none" points="219.38,1038.47 2352.76,1038.47 "/>
<polyline clip-path="url(#clip961)" style="stroke:#000000; stroke-linecap:round; stroke-linejoin:round; stroke-width:2; stroke-opacity:0.1; fill:none" points="219.38,657.89 2352.76,657.89 "/>
<polyline clip-path="url(#clip961)" style="stroke:#000000; stroke-linecap:round; stroke-linejoin:round; stroke-width:2; stroke-opacity:0.1; fill:none" points="219.38,277.314 2352.76,277.314 "/>
<polyline clip-path="url(#clip960)" style="stroke:#000000; stroke-linecap:round; stroke-linejoin:round; stroke-width:4; stroke-opacity:1; fill:none" points="219.38,1423.18 2352.76,1423.18 "/>
<polyline clip-path="url(#clip960)" style="stroke:#000000; stroke-linecap:round; stroke-linejoin:round; stroke-width:4; stroke-opacity:1; fill:none" points="467.664,1423.18 467.664,1404.28 "/>
<polyline clip-path="url(#clip960)" style="stroke:#000000; stroke-linecap:round; stroke-linejoin:round; stroke-width:4; stroke-opacity:1; fill:none" points="795.026,1423.18 795.026,1404.28 "/>
<polyline clip-path="url(#clip960)" style="stroke:#000000; stroke-linecap:round; stroke-linejoin:round; stroke-width:4; stroke-opacity:1; fill:none" points="1122.39,1423.18 1122.39,1404.28 "/>
<polyline clip-path="url(#clip960)" style="stroke:#000000; stroke-linecap:round; stroke-linejoin:round; stroke-width:4; stroke-opacity:1; fill:none" points="1449.75,1423.18 1449.75,1404.28 "/>
<polyline clip-path="url(#clip960)" style="stroke:#000000; stroke-linecap:round; stroke-linejoin:round; stroke-width:4; stroke-opacity:1; fill:none" points="1777.11,1423.18 1777.11,1404.28 "/>
<polyline clip-path="url(#clip960)" style="stroke:#000000; stroke-linecap:round; stroke-linejoin:round; stroke-width:4; stroke-opacity:1; fill:none" points="2104.47,1423.18 2104.47,1404.28 "/>
<path clip-path="url(#clip960)" d="M418.637 1449.61 Q415.535 1454.93 414.03 1460.14 Q412.526 1465.35 412.526 1470.7 Q412.526 1476.04 414.03 1481.3 Q415.558 1486.53 418.637 1491.83 L414.933 1491.83 Q411.461 1486.39 409.725 1481.14 Q408.012 1475.88 408.012 1470.7 Q408.012 1465.53 409.725 1460.3 Q411.438 1455.07 414.933 1449.61 L418.637 1449.61 Z" fill="#000000" fill-rule="nonzero" fill-opacity="1" /><path clip-path="url(#clip960)" d="M441.669 1466.95 Q445.025 1467.66 446.9 1469.93 Q448.799 1472.2 448.799 1475.53 Q448.799 1480.65 445.28 1483.45 Q441.762 1486.25 435.28 1486.25 Q433.104 1486.25 430.789 1485.81 Q428.498 1485.39 426.044 1484.54 L426.044 1480.02 Q427.989 1481.16 430.303 1481.74 Q432.618 1482.32 435.141 1482.32 Q439.539 1482.32 441.831 1480.58 Q444.146 1478.84 444.146 1475.53 Q444.146 1472.48 441.993 1470.77 Q439.863 1469.03 436.044 1469.03 L432.016 1469.03 L432.016 1465.19 L436.229 1465.19 Q439.678 1465.19 441.507 1463.82 Q443.336 1462.43 443.336 1459.84 Q443.336 1457.18 441.438 1455.77 Q439.563 1454.33 436.044 1454.33 Q434.123 1454.33 431.924 1454.75 Q429.725 1455.16 427.086 1456.04 L427.086 1451.88 Q429.748 1451.14 432.063 1450.77 Q434.401 1450.39 436.461 1450.39 Q441.785 1450.39 444.887 1452.83 Q447.988 1455.23 447.988 1459.35 Q447.988 1462.22 446.345 1464.21 Q444.701 1466.18 441.669 1466.95 Z" fill="#000000" fill-rule="nonzero" fill-opacity="1" /><path clip-path="url(#clip960)" d="M458.15 1479.7 L463.035 1479.7 L463.035 1483.68 L459.238 1491.09 L456.252 1491.09 L458.15 1483.68 L458.15 1479.7 Z" fill="#000000" fill-rule="nonzero" fill-opacity="1" /><path clip-path="url(#clip960)" d="M501.97 1466.95 Q505.326 1467.66 507.201 1469.93 Q509.099 1472.2 509.099 1475.53 Q509.099 1480.65 505.581 1483.45 Q502.062 1486.25 495.581 1486.25 Q493.405 1486.25 491.09 1485.81 Q488.798 1485.39 486.345 1484.54 L486.345 1480.02 Q488.289 1481.16 490.604 1481.74 Q492.919 1482.32 495.442 1482.32 Q499.84 1482.32 502.132 1480.58 Q504.446 1478.84 504.446 1475.53 Q504.446 1472.48 502.294 1470.77 Q500.164 1469.03 496.345 1469.03 L492.317 1469.03 L492.317 1465.19 L496.53 1465.19 Q499.979 1465.19 501.808 1463.82 Q503.636 1462.43 503.636 1459.84 Q503.636 1457.18 501.738 1455.77 Q499.863 1454.33 496.345 1454.33 Q494.423 1454.33 492.224 1454.75 Q490.025 1455.16 487.386 1456.04 L487.386 1451.88 Q490.048 1451.14 492.363 1450.77 Q494.701 1450.39 496.761 1450.39 Q502.085 1450.39 505.187 1452.83 Q508.289 1455.23 508.289 1459.35 Q508.289 1462.22 506.646 1464.21 Q505.002 1466.18 501.97 1466.95 Z" fill="#000000" fill-rule="nonzero" fill-opacity="1" /><path clip-path="url(#clip960)" d="M516.692 1449.61 L520.395 1449.61 Q523.868 1455.07 525.581 1460.3 Q527.317 1465.53 527.317 1470.7 Q527.317 1475.88 525.581 1481.14 Q523.868 1486.39 520.395 1491.83 L516.692 1491.83 Q519.77 1486.53 521.275 1481.3 Q522.803 1476.04 522.803 1470.7 Q522.803 1465.35 521.275 1460.14 Q519.77 1454.93 516.692 1449.61 Z" fill="#000000" fill-rule="nonzero" fill-opacity="1" /><path clip-path="url(#clip960)" d="M745.998 1449.61 Q742.896 1454.93 741.392 1460.14 Q739.887 1465.35 739.887 1470.7 Q739.887 1476.04 741.392 1481.3 Q742.92 1486.53 745.998 1491.83 L742.295 1491.83 Q738.822 1486.39 737.086 1481.14 Q735.373 1475.88 735.373 1470.7 Q735.373 1465.53 737.086 1460.3 Q738.799 1455.07 742.295 1449.61 L745.998 1449.61 Z" fill="#000000" fill-rule="nonzero" fill-opacity="1" /><path clip-path="url(#clip960)" d="M769.031 1466.95 Q772.387 1467.66 774.262 1469.93 Q776.16 1472.2 776.16 1475.53 Q776.16 1480.65 772.642 1483.45 Q769.123 1486.25 762.642 1486.25 Q760.466 1486.25 758.151 1485.81 Q755.859 1485.39 753.406 1484.54 L753.406 1480.02 Q755.35 1481.16 757.665 1481.74 Q759.98 1482.32 762.503 1482.32 Q766.901 1482.32 769.193 1480.58 Q771.507 1478.84 771.507 1475.53 Q771.507 1472.48 769.355 1470.77 Q767.225 1469.03 763.406 1469.03 L759.378 1469.03 L759.378 1465.19 L763.591 1465.19 Q767.04 1465.19 768.868 1463.82 Q770.697 1462.43 770.697 1459.84 Q770.697 1457.18 768.799 1455.77 Q766.924 1454.33 763.406 1454.33 Q761.484 1454.33 759.285 1454.75 Q757.086 1455.16 754.447 1456.04 L754.447 1451.88 Q757.109 1451.14 759.424 1450.77 Q761.762 1450.39 763.822 1450.39 Q769.146 1450.39 772.248 1452.83 Q775.35 1455.23 775.35 1459.35 Q775.35 1462.22 773.706 1464.21 Q772.063 1466.18 769.031 1466.95 Z" fill="#000000" fill-rule="nonzero" fill-opacity="1" /><path clip-path="url(#clip960)" d="M785.512 1479.7 L790.396 1479.7 L790.396 1483.68 L786.6 1491.09 L783.614 1491.09 L785.512 1483.68 L785.512 1479.7 Z" fill="#000000" fill-rule="nonzero" fill-opacity="1" /><path clip-path="url(#clip960)" d="M819.192 1481.64 L835.512 1481.64 L835.512 1485.58 L813.567 1485.58 L813.567 1481.64 Q816.229 1478.89 820.813 1474.26 Q825.419 1469.61 826.6 1468.27 Q828.845 1465.74 829.725 1464.01 Q830.627 1462.25 830.627 1460.56 Q830.627 1457.8 828.683 1456.07 Q826.762 1454.33 823.66 1454.33 Q821.461 1454.33 819.007 1455.09 Q816.577 1455.86 813.799 1457.41 L813.799 1452.69 Q816.623 1451.55 819.077 1450.97 Q821.53 1450.39 823.567 1450.39 Q828.938 1450.39 832.132 1453.08 Q835.326 1455.77 835.326 1460.26 Q835.326 1462.39 834.516 1464.31 Q833.729 1466.2 831.623 1468.8 Q831.044 1469.47 827.942 1472.69 Q824.84 1475.88 819.192 1481.64 Z" fill="#000000" fill-rule="nonzero" fill-opacity="1" /><path clip-path="url(#clip960)" d="M844.053 1449.61 L847.757 1449.61 Q851.229 1455.07 852.942 1460.3 Q854.678 1465.53 854.678 1470.7 Q854.678 1475.88 852.942 1481.14 Q851.229 1486.39 847.757 1491.83 L844.053 1491.83 Q847.132 1486.53 848.637 1481.3 Q850.164 1476.04 850.164 1470.7 Q850.164 1465.35 848.637 1460.14 Q847.132 1454.93 844.053 1449.61 Z" fill="#000000" fill-rule="nonzero" fill-opacity="1" /><path clip-path="url(#clip960)" d="M1073.36 1449.61 Q1070.26 1454.93 1068.75 1460.14 Q1067.25 1465.35 1067.25 1470.7 Q1067.25 1476.04 1068.75 1481.3 Q1070.28 1486.53 1073.36 1491.83 L1069.66 1491.83 Q1066.18 1486.39 1064.45 1481.14 Q1062.73 1475.88 1062.73 1470.7 Q1062.73 1465.53 1064.45 1460.3 Q1066.16 1455.07 1069.66 1449.61 L1073.36 1449.61 Z" fill="#000000" fill-rule="nonzero" fill-opacity="1" /><path clip-path="url(#clip960)" d="M1086.25 1481.64 L1102.57 1481.64 L1102.57 1485.58 L1080.63 1485.58 L1080.63 1481.64 Q1083.29 1478.89 1087.87 1474.26 Q1092.48 1469.61 1093.66 1468.27 Q1095.91 1465.74 1096.79 1464.01 Q1097.69 1462.25 1097.69 1460.56 Q1097.69 1457.8 1095.74 1456.07 Q1093.82 1454.33 1090.72 1454.33 Q1088.52 1454.33 1086.07 1455.09 Q1083.64 1455.86 1080.86 1457.41 L1080.86 1452.69 Q1083.68 1451.55 1086.14 1450.97 Q1088.59 1450.39 1090.63 1450.39 Q1096 1450.39 1099.19 1453.08 Q1102.39 1455.77 1102.39 1460.26 Q1102.39 1462.39 1101.58 1464.31 Q1100.79 1466.2 1098.68 1468.8 Q1098.1 1469.47 1095 1472.69 Q1091.9 1475.88 1086.25 1481.64 Z" fill="#000000" fill-rule="nonzero" fill-opacity="1" /><path clip-path="url(#clip960)" d="M1112.87 1479.7 L1117.76 1479.7 L1117.76 1483.68 L1113.96 1491.09 L1110.98 1491.09 L1112.87 1483.68 L1112.87 1479.7 Z" fill="#000000" fill-rule="nonzero" fill-opacity="1" /><path clip-path="url(#clip960)" d="M1156.69 1466.95 Q1160.05 1467.66 1161.92 1469.93 Q1163.82 1472.2 1163.82 1475.53 Q1163.82 1480.65 1160.3 1483.45 Q1156.79 1486.25 1150.3 1486.25 Q1148.13 1486.25 1145.81 1485.81 Q1143.52 1485.39 1141.07 1484.54 L1141.07 1480.02 Q1143.01 1481.16 1145.33 1481.74 Q1147.64 1482.32 1150.16 1482.32 Q1154.56 1482.32 1156.85 1480.58 Q1159.17 1478.84 1159.17 1475.53 Q1159.17 1472.48 1157.02 1470.77 Q1154.89 1469.03 1151.07 1469.03 L1147.04 1469.03 L1147.04 1465.19 L1151.25 1465.19 Q1154.7 1465.19 1156.53 1463.82 Q1158.36 1462.43 1158.36 1459.84 Q1158.36 1457.18 1156.46 1455.77 Q1154.59 1454.33 1151.07 1454.33 Q1149.15 1454.33 1146.95 1454.75 Q1144.75 1455.16 1142.11 1456.04 L1142.11 1451.88 Q1144.77 1451.14 1147.09 1450.77 Q1149.42 1450.39 1151.48 1450.39 Q1156.81 1450.39 1159.91 1452.83 Q1163.01 1455.23 1163.01 1459.35 Q1163.01 1462.22 1161.37 1464.21 Q1159.73 1466.18 1156.69 1466.95 Z" fill="#000000" fill-rule="nonzero" fill-opacity="1" /><path clip-path="url(#clip960)" d="M1171.41 1449.61 L1175.12 1449.61 Q1178.59 1455.07 1180.3 1460.3 Q1182.04 1465.53 1182.04 1470.7 Q1182.04 1475.88 1180.3 1481.14 Q1178.59 1486.39 1175.12 1491.83 L1171.41 1491.83 Q1174.49 1486.53 1176 1481.3 Q1177.53 1476.04 1177.53 1470.7 Q1177.53 1465.35 1176 1460.14 Q1174.49 1454.93 1171.41 1449.61 Z" fill="#000000" fill-rule="nonzero" fill-opacity="1" /><path clip-path="url(#clip960)" d="M1400.72 1449.61 Q1397.62 1454.93 1396.11 1460.14 Q1394.61 1465.35 1394.61 1470.7 Q1394.61 1476.04 1396.11 1481.3 Q1397.64 1486.53 1400.72 1491.83 L1397.02 1491.83 Q1393.55 1486.39 1391.81 1481.14 Q1390.1 1475.88 1390.1 1470.7 Q1390.1 1465.53 1391.81 1460.3 Q1393.52 1455.07 1397.02 1449.61 L1400.72 1449.61 Z" fill="#000000" fill-rule="nonzero" fill-opacity="1" /><path clip-path="url(#clip960)" d="M1413.61 1481.64 L1429.93 1481.64 L1429.93 1485.58 L1407.99 1485.58 L1407.99 1481.64 Q1410.65 1478.89 1415.24 1474.26 Q1419.84 1469.61 1421.02 1468.27 Q1423.27 1465.74 1424.15 1464.01 Q1425.05 1462.25 1425.05 1460.56 Q1425.05 1457.8 1423.11 1456.07 Q1421.18 1454.33 1418.08 1454.33 Q1415.88 1454.33 1413.43 1455.09 Q1411 1455.86 1408.22 1457.41 L1408.22 1452.69 Q1411.05 1451.55 1413.5 1450.97 Q1415.95 1450.39 1417.99 1450.39 Q1423.36 1450.39 1426.55 1453.08 Q1429.75 1455.77 1429.75 1460.26 Q1429.75 1462.39 1428.94 1464.31 Q1428.15 1466.2 1426.05 1468.8 Q1425.47 1469.47 1422.36 1472.69 Q1419.26 1475.88 1413.61 1481.64 Z" fill="#000000" fill-rule="nonzero" fill-opacity="1" /><path clip-path="url(#clip960)" d="M1440.23 1479.7 L1445.12 1479.7 L1445.12 1483.68 L1441.32 1491.09 L1438.34 1491.09 L1440.23 1483.68 L1440.23 1479.7 Z" fill="#000000" fill-rule="nonzero" fill-opacity="1" /><path clip-path="url(#clip960)" d="M1473.92 1481.64 L1490.23 1481.64 L1490.23 1485.58 L1468.29 1485.58 L1468.29 1481.64 Q1470.95 1478.89 1475.54 1474.26 Q1480.14 1469.61 1481.32 1468.27 Q1483.57 1465.74 1484.45 1464.01 Q1485.35 1462.25 1485.35 1460.56 Q1485.35 1457.8 1483.41 1456.07 Q1481.48 1454.33 1478.38 1454.33 Q1476.18 1454.33 1473.73 1455.09 Q1471.3 1455.86 1468.52 1457.41 L1468.52 1452.69 Q1471.35 1451.55 1473.8 1450.97 Q1476.25 1450.39 1478.29 1450.39 Q1483.66 1450.39 1486.86 1453.08 Q1490.05 1455.77 1490.05 1460.26 Q1490.05 1462.39 1489.24 1464.31 Q1488.45 1466.2 1486.35 1468.8 Q1485.77 1469.47 1482.67 1472.69 Q1479.56 1475.88 1473.92 1481.64 Z" fill="#000000" fill-rule="nonzero" fill-opacity="1" /><path clip-path="url(#clip960)" d="M1498.78 1449.61 L1502.48 1449.61 Q1505.95 1455.07 1507.67 1460.3 Q1509.4 1465.53 1509.4 1470.7 Q1509.4 1475.88 1507.67 1481.14 Q1505.95 1486.39 1502.48 1491.83 L1498.78 1491.83 Q1501.85 1486.53 1503.36 1481.3 Q1504.89 1476.04 1504.89 1470.7 Q1504.89 1465.35 1503.36 1460.14 Q1501.85 1454.93 1498.78 1449.61 Z" fill="#000000" fill-rule="nonzero" fill-opacity="1" /><path clip-path="url(#clip960)" d="M1728.08 1449.61 Q1724.98 1454.93 1723.48 1460.14 Q1721.97 1465.35 1721.97 1470.7 Q1721.97 1476.04 1723.48 1481.3 Q1725 1486.53 1728.08 1491.83 L1724.38 1491.83 Q1720.91 1486.39 1719.17 1481.14 Q1717.46 1475.88 1717.46 1470.7 Q1717.46 1465.53 1719.17 1460.3 Q1720.88 1455.07 1724.38 1449.61 L1728.08 1449.61 Z" fill="#000000" fill-rule="nonzero" fill-opacity="1" /><path clip-path="url(#clip960)" d="M1737.76 1481.64 L1745.4 1481.64 L1745.4 1455.28 L1737.09 1456.95 L1737.09 1452.69 L1745.35 1451.02 L1750.03 1451.02 L1750.03 1481.64 L1757.67 1481.64 L1757.67 1485.58 L1737.76 1485.58 L1737.76 1481.64 Z" fill="#000000" fill-rule="nonzero" fill-opacity="1" /><path clip-path="url(#clip960)" d="M1767.6 1479.7 L1772.48 1479.7 L1772.48 1483.68 L1768.68 1491.09 L1765.7 1491.09 L1767.6 1483.68 L1767.6 1479.7 Z" fill="#000000" fill-rule="nonzero" fill-opacity="1" /><path clip-path="url(#clip960)" d="M1811.42 1466.95 Q1814.77 1467.66 1816.65 1469.93 Q1818.55 1472.2 1818.55 1475.53 Q1818.55 1480.65 1815.03 1483.45 Q1811.51 1486.25 1805.03 1486.25 Q1802.85 1486.25 1800.54 1485.81 Q1798.24 1485.39 1795.79 1484.54 L1795.79 1480.02 Q1797.74 1481.16 1800.05 1481.74 Q1802.36 1482.32 1804.89 1482.32 Q1809.29 1482.32 1811.58 1480.58 Q1813.89 1478.84 1813.89 1475.53 Q1813.89 1472.48 1811.74 1470.77 Q1809.61 1469.03 1805.79 1469.03 L1801.76 1469.03 L1801.76 1465.19 L1805.98 1465.19 Q1809.42 1465.19 1811.25 1463.82 Q1813.08 1462.43 1813.08 1459.84 Q1813.08 1457.18 1811.18 1455.77 Q1809.31 1454.33 1805.79 1454.33 Q1803.87 1454.33 1801.67 1454.75 Q1799.47 1455.16 1796.83 1456.04 L1796.83 1451.88 Q1799.49 1451.14 1801.81 1450.77 Q1804.15 1450.39 1806.21 1450.39 Q1811.53 1450.39 1814.63 1452.83 Q1817.74 1455.23 1817.74 1459.35 Q1817.74 1462.22 1816.09 1464.21 Q1814.45 1466.18 1811.42 1466.95 Z" fill="#000000" fill-rule="nonzero" fill-opacity="1" /><path clip-path="url(#clip960)" d="M1826.14 1449.61 L1829.84 1449.61 Q1833.31 1455.07 1835.03 1460.3 Q1836.76 1465.53 1836.76 1470.7 Q1836.76 1475.88 1835.03 1481.14 Q1833.31 1486.39 1829.84 1491.83 L1826.14 1491.83 Q1829.22 1486.53 1830.72 1481.3 Q1832.25 1476.04 1832.25 1470.7 Q1832.25 1465.35 1830.72 1460.14 Q1829.22 1454.93 1826.14 1449.61 Z" fill="#000000" fill-rule="nonzero" fill-opacity="1" /><path clip-path="url(#clip960)" d="M2055.44 1449.61 Q2052.34 1454.93 2050.84 1460.14 Q2049.33 1465.35 2049.33 1470.7 Q2049.33 1476.04 2050.84 1481.3 Q2052.37 1486.53 2055.44 1491.83 L2051.74 1491.83 Q2048.27 1486.39 2046.53 1481.14 Q2044.82 1475.88 2044.82 1470.7 Q2044.82 1465.53 2046.53 1460.3 Q2048.25 1455.07 2051.74 1449.61 L2055.44 1449.61 Z" fill="#000000" fill-rule="nonzero" fill-opacity="1" /><path clip-path="url(#clip960)" d="M2068.34 1481.64 L2084.66 1481.64 L2084.66 1485.58 L2062.71 1485.58 L2062.71 1481.64 Q2065.37 1478.89 2069.96 1474.26 Q2074.56 1469.61 2075.75 1468.27 Q2077.99 1465.74 2078.87 1464.01 Q2079.77 1462.25 2079.77 1460.56 Q2079.77 1457.8 2077.83 1456.07 Q2075.91 1454.33 2072.81 1454.33 Q2070.61 1454.33 2068.15 1455.09 Q2065.72 1455.86 2062.94 1457.41 L2062.94 1452.69 Q2065.77 1451.55 2068.22 1450.97 Q2070.68 1450.39 2072.71 1450.39 Q2078.08 1450.39 2081.28 1453.08 Q2084.47 1455.77 2084.47 1460.26 Q2084.47 1462.39 2083.66 1464.31 Q2082.87 1466.2 2080.77 1468.8 Q2080.19 1469.47 2077.09 1472.69 Q2073.99 1475.88 2068.34 1481.64 Z" fill="#000000" fill-rule="nonzero" fill-opacity="1" /><path clip-path="url(#clip960)" d="M2094.96 1479.7 L2099.84 1479.7 L2099.84 1483.68 L2096.05 1491.09 L2093.06 1491.09 L2094.96 1483.68 L2094.96 1479.7 Z" fill="#000000" fill-rule="nonzero" fill-opacity="1" /><path clip-path="url(#clip960)" d="M2125.42 1481.64 L2133.06 1481.64 L2133.06 1455.28 L2124.75 1456.95 L2124.75 1452.69 L2133.01 1451.02 L2137.69 1451.02 L2137.69 1481.64 L2145.33 1481.64 L2145.33 1485.58 L2125.42 1485.58 L2125.42 1481.64 Z" fill="#000000" fill-rule="nonzero" fill-opacity="1" /><path clip-path="url(#clip960)" d="M2153.5 1449.61 L2157.2 1449.61 Q2160.68 1455.07 2162.39 1460.3 Q2164.12 1465.53 2164.12 1470.7 Q2164.12 1475.88 2162.39 1481.14 Q2160.68 1486.39 2157.2 1491.83 L2153.5 1491.83 Q2156.58 1486.53 2158.08 1481.3 Q2159.61 1476.04 2159.61 1470.7 Q2159.61 1465.35 2158.08 1460.14 Q2156.58 1454.93 2153.5 1449.61 Z" fill="#000000" fill-rule="nonzero" fill-opacity="1" /><path clip-path="url(#clip960)" d="M808.926 1520.52 L818.507 1520.52 L830.634 1552.86 L842.824 1520.52 L852.404 1520.52 L852.404 1568.04 L846.134 1568.04 L846.134 1526.32 L833.88 1558.91 L827.419 1558.91 L815.165 1526.32 L815.165 1568.04 L808.926 1568.04 L808.926 1520.52 Z" fill="#000000" fill-rule="nonzero" fill-opacity="1" /><path clip-path="url(#clip960)" d="M881.114 1550.12 Q874.016 1550.12 871.279 1551.75 Q868.541 1553.37 868.541 1557.29 Q868.541 1560.4 870.578 1562.25 Q872.647 1564.07 876.18 1564.07 Q881.05 1564.07 883.978 1560.63 Q886.938 1557.16 886.938 1551.43 L886.938 1550.12 L881.114 1550.12 M892.795 1547.71 L892.795 1568.04 L886.938 1568.04 L886.938 1562.63 Q884.933 1565.88 881.941 1567.44 Q878.949 1568.97 874.621 1568.97 Q869.146 1568.97 865.9 1565.91 Q862.685 1562.82 862.685 1557.67 Q862.685 1551.65 866.695 1548.6 Q870.738 1545.54 878.726 1545.54 L886.938 1545.54 L886.938 1544.97 Q886.938 1540.93 884.265 1538.73 Q881.623 1536.5 876.817 1536.5 Q873.761 1536.5 870.865 1537.23 Q867.968 1537.97 865.295 1539.43 L865.295 1534.02 Q868.51 1532.78 871.533 1532.17 Q874.557 1531.54 877.421 1531.54 Q885.156 1531.54 888.975 1535.55 Q892.795 1539.56 892.795 1547.71 Z" fill="#000000" fill-rule="nonzero" fill-opacity="1" /><path clip-path="url(#clip960)" d="M910.65 1522.27 L910.65 1532.4 L922.713 1532.4 L922.713 1536.95 L910.65 1536.95 L910.65 1556.3 Q910.65 1560.66 911.828 1561.9 Q913.038 1563.14 916.698 1563.14 L922.713 1563.14 L922.713 1568.04 L916.698 1568.04 Q909.918 1568.04 907.34 1565.53 Q904.762 1562.98 904.762 1556.3 L904.762 1536.95 L900.465 1536.95 L900.465 1532.4 L904.762 1532.4 L904.762 1522.27 L910.65 1522.27 Z" fill="#000000" fill-rule="nonzero" fill-opacity="1" /><path clip-path="url(#clip960)" d="M951.073 1537.87 Q950.086 1537.3 948.908 1537.04 Q947.763 1536.76 946.362 1536.76 Q941.397 1536.76 938.723 1540 Q936.081 1543.22 936.081 1549.27 L936.081 1568.04 L930.193 1568.04 L930.193 1532.4 L936.081 1532.4 L936.081 1537.93 Q937.928 1534.69 940.888 1533.13 Q943.848 1531.54 948.081 1531.54 Q948.686 1531.54 949.418 1531.63 Q950.15 1531.7 951.041 1531.85 L951.073 1537.87 Z" fill="#000000" fill-rule="nonzero" fill-opacity="1" /><path clip-path="url(#clip960)" d="M957.216 1532.4 L963.072 1532.4 L963.072 1568.04 L957.216 1568.04 L957.216 1532.4 M957.216 1518.52 L963.072 1518.52 L963.072 1525.93 L957.216 1525.93 L957.216 1518.52 Z" fill="#000000" fill-rule="nonzero" fill-opacity="1" /><path clip-path="url(#clip960)" d="M1004.96 1532.4 L992.068 1549.74 L1005.63 1568.04 L998.72 1568.04 L988.344 1554.04 L977.968 1568.04 L971.061 1568.04 L984.906 1549.39 L972.239 1532.4 L979.145 1532.4 L988.599 1545.1 L998.052 1532.4 L1004.96 1532.4 Z" fill="#000000" fill-rule="nonzero" fill-opacity="1" /><path clip-path="url(#clip960)" d="M1065.11 1548.76 L1065.11 1551.62 L1038.19 1551.62 Q1038.57 1557.67 1041.82 1560.85 Q1045.09 1564 1050.92 1564 Q1054.29 1564 1057.44 1563.17 Q1060.63 1562.35 1063.75 1560.69 L1063.75 1566.23 Q1060.59 1567.57 1057.28 1568.27 Q1053.97 1568.97 1050.57 1568.97 Q1042.04 1568.97 1037.04 1564 Q1032.08 1559.04 1032.08 1550.57 Q1032.08 1541.82 1036.79 1536.69 Q1041.53 1531.54 1049.55 1531.54 Q1056.74 1531.54 1060.91 1536.18 Q1065.11 1540.8 1065.11 1548.76 M1059.26 1547.04 Q1059.19 1542.23 1056.55 1539.37 Q1053.94 1536.5 1049.61 1536.5 Q1044.71 1536.5 1041.75 1539.27 Q1038.82 1542.04 1038.38 1547.07 L1059.26 1547.04 Z" fill="#000000" fill-rule="nonzero" fill-opacity="1" /><path clip-path="url(#clip960)" d="M1074.73 1518.52 L1080.58 1518.52 L1080.58 1568.04 L1074.73 1568.04 L1074.73 1518.52 Z" fill="#000000" fill-rule="nonzero" fill-opacity="1" /><path clip-path="url(#clip960)" d="M1123.33 1548.76 L1123.33 1551.62 L1096.4 1551.62 Q1096.78 1557.67 1100.03 1560.85 Q1103.31 1564 1109.13 1564 Q1112.51 1564 1115.66 1563.17 Q1118.84 1562.35 1121.96 1560.69 L1121.96 1566.23 Q1118.81 1567.57 1115.5 1568.27 Q1112.19 1568.97 1108.78 1568.97 Q1100.25 1568.97 1095.26 1564 Q1090.29 1559.04 1090.29 1550.57 Q1090.29 1541.82 1095 1536.69 Q1099.74 1531.54 1107.76 1531.54 Q1114.96 1531.54 1119.13 1536.18 Q1123.33 1540.8 1123.33 1548.76 M1117.47 1547.04 Q1117.41 1542.23 1114.77 1539.37 Q1112.16 1536.5 1107.83 1536.5 Q1102.93 1536.5 1099.97 1539.27 Q1097.04 1542.04 1096.59 1547.07 L1117.47 1547.04 Z" fill="#000000" fill-rule="nonzero" fill-opacity="1" /><path clip-path="url(#clip960)" d="M1160.7 1539.24 Q1162.89 1535.29 1165.95 1533.41 Q1169 1531.54 1173.14 1531.54 Q1178.71 1531.54 1181.73 1535.45 Q1184.76 1539.33 1184.76 1546.53 L1184.76 1568.04 L1178.87 1568.04 L1178.87 1546.72 Q1178.87 1541.59 1177.06 1539.11 Q1175.24 1536.63 1171.52 1536.63 Q1166.97 1536.63 1164.32 1539.65 Q1161.68 1542.68 1161.68 1547.9 L1161.68 1568.04 L1155.79 1568.04 L1155.79 1546.72 Q1155.79 1541.56 1153.98 1539.11 Q1152.17 1536.63 1148.38 1536.63 Q1143.89 1536.63 1141.25 1539.68 Q1138.61 1542.71 1138.61 1547.9 L1138.61 1568.04 L1132.72 1568.04 L1132.72 1532.4 L1138.61 1532.4 L1138.61 1537.93 Q1140.61 1534.66 1143.41 1533.1 Q1146.21 1531.54 1150.06 1531.54 Q1153.95 1531.54 1156.65 1533.51 Q1159.39 1535.48 1160.7 1539.24 Z" fill="#000000" fill-rule="nonzero" fill-opacity="1" /><path clip-path="url(#clip960)" d="M1226.93 1548.76 L1226.93 1551.62 L1200 1551.62 Q1200.39 1557.67 1203.63 1560.85 Q1206.91 1564 1212.74 1564 Q1216.11 1564 1219.26 1563.17 Q1222.44 1562.35 1225.56 1560.69 L1225.56 1566.23 Q1222.41 1567.57 1219.1 1568.27 Q1215.79 1568.97 1212.38 1568.97 Q1203.85 1568.97 1198.86 1564 Q1193.89 1559.04 1193.89 1550.57 Q1193.89 1541.82 1198.6 1536.69 Q1203.35 1531.54 1211.37 1531.54 Q1218.56 1531.54 1222.73 1536.18 Q1226.93 1540.8 1226.93 1548.76 M1221.07 1547.04 Q1221.01 1542.23 1218.37 1539.37 Q1215.76 1536.5 1211.43 1536.5 Q1206.53 1536.5 1203.57 1539.27 Q1200.64 1542.04 1200.19 1547.07 L1221.07 1547.04 Z" fill="#000000" fill-rule="nonzero" fill-opacity="1" /><path clip-path="url(#clip960)" d="M1266.18 1546.53 L1266.18 1568.04 L1260.32 1568.04 L1260.32 1546.72 Q1260.32 1541.66 1258.35 1539.14 Q1256.37 1536.63 1252.43 1536.63 Q1247.68 1536.63 1244.95 1539.65 Q1242.21 1542.68 1242.21 1547.9 L1242.21 1568.04 L1236.32 1568.04 L1236.32 1532.4 L1242.21 1532.4 L1242.21 1537.93 Q1244.31 1534.72 1247.14 1533.13 Q1250.01 1531.54 1253.73 1531.54 Q1259.87 1531.54 1263.02 1535.36 Q1266.18 1539.14 1266.18 1546.53 Z" fill="#000000" fill-rule="nonzero" fill-opacity="1" /><path clip-path="url(#clip960)" d="M1283.65 1522.27 L1283.65 1532.4 L1295.71 1532.4 L1295.71 1536.95 L1283.65 1536.95 L1283.65 1556.3 Q1283.65 1560.66 1284.83 1561.9 Q1286.04 1563.14 1289.7 1563.14 L1295.71 1563.14 L1295.71 1568.04 L1289.7 1568.04 Q1282.92 1568.04 1280.34 1565.53 Q1277.76 1562.98 1277.76 1556.3 L1277.76 1536.95 L1273.46 1536.95 L1273.46 1532.4 L1277.76 1532.4 L1277.76 1522.27 L1283.65 1522.27 Z" fill="#000000" fill-rule="nonzero" fill-opacity="1" /><path clip-path="url(#clip960)" d="M1338.2 1518.58 Q1333.94 1525.9 1331.87 1533.06 Q1329.8 1540.23 1329.8 1547.58 Q1329.8 1554.93 1331.87 1562.16 Q1333.97 1569.35 1338.2 1576.64 L1333.11 1576.64 Q1328.34 1569.16 1325.95 1561.93 Q1323.59 1554.71 1323.59 1547.58 Q1323.59 1540.48 1325.95 1533.29 Q1328.3 1526.09 1333.11 1518.58 L1338.2 1518.58 Z" fill="#000000" fill-rule="nonzero" fill-opacity="1" /><path clip-path="url(#clip960)" d="M1370.22 1537.87 Q1369.24 1537.3 1368.06 1537.04 Q1366.91 1536.76 1365.51 1536.76 Q1360.55 1536.76 1357.87 1540 Q1355.23 1543.22 1355.23 1549.27 L1355.23 1568.04 L1349.34 1568.04 L1349.34 1532.4 L1355.23 1532.4 L1355.23 1537.93 Q1357.08 1534.69 1360.04 1533.13 Q1363 1531.54 1367.23 1531.54 Q1367.84 1531.54 1368.57 1531.63 Q1369.3 1531.7 1370.19 1531.85 L1370.22 1537.87 Z" fill="#000000" fill-rule="nonzero" fill-opacity="1" /><path clip-path="url(#clip960)" d="M1388.75 1536.5 Q1384.04 1536.5 1381.3 1540.19 Q1378.56 1543.85 1378.56 1550.25 Q1378.56 1556.65 1381.27 1560.34 Q1384 1564 1388.75 1564 Q1393.43 1564 1396.16 1560.31 Q1398.9 1556.62 1398.9 1550.25 Q1398.9 1543.92 1396.16 1540.23 Q1393.43 1536.5 1388.75 1536.5 M1388.75 1531.54 Q1396.39 1531.54 1400.75 1536.5 Q1405.11 1541.47 1405.11 1550.25 Q1405.11 1559 1400.75 1564 Q1396.39 1568.97 1388.75 1568.97 Q1381.08 1568.97 1376.72 1564 Q1372.39 1559 1372.39 1550.25 Q1372.39 1541.47 1376.72 1536.5 Q1381.08 1531.54 1388.75 1531.54 Z" fill="#000000" fill-rule="nonzero" fill-opacity="1" /><path clip-path="url(#clip960)" d="M1411.41 1532.4 L1417.27 1532.4 L1424.59 1560.21 L1431.87 1532.4 L1438.78 1532.4 L1446.1 1560.21 L1453.39 1532.4 L1459.25 1532.4 L1449.92 1568.04 L1443.01 1568.04 L1435.34 1538.83 L1427.64 1568.04 L1420.73 1568.04 L1411.41 1532.4 Z" fill="#000000" fill-rule="nonzero" fill-opacity="1" /><path clip-path="url(#clip960)" d="M1469.62 1559.96 L1476.34 1559.96 L1476.34 1565.43 L1471.12 1575.62 L1467.01 1575.62 L1469.62 1565.43 L1469.62 1559.96 Z" fill="#000000" fill-rule="nonzero" fill-opacity="1" /><path clip-path="url(#clip960)" d="M1535.22 1533.76 L1535.22 1539.24 Q1532.74 1537.87 1530.22 1537.2 Q1527.74 1536.5 1525.2 1536.5 Q1519.5 1536.5 1516.35 1540.13 Q1513.2 1543.73 1513.2 1550.25 Q1513.2 1556.78 1516.35 1560.4 Q1519.5 1564 1525.2 1564 Q1527.74 1564 1530.22 1563.33 Q1532.74 1562.63 1535.22 1561.26 L1535.22 1566.68 Q1532.77 1567.82 1530.13 1568.39 Q1527.52 1568.97 1524.56 1568.97 Q1516.51 1568.97 1511.76 1563.91 Q1507.02 1558.85 1507.02 1550.25 Q1507.02 1541.53 1511.8 1536.53 Q1516.6 1531.54 1524.94 1531.54 Q1527.65 1531.54 1530.22 1532.11 Q1532.8 1532.65 1535.22 1533.76 Z" fill="#000000" fill-rule="nonzero" fill-opacity="1" /><path clip-path="url(#clip960)" d="M1559.22 1536.5 Q1554.51 1536.5 1551.77 1540.19 Q1549.04 1543.85 1549.04 1550.25 Q1549.04 1556.65 1551.74 1560.34 Q1554.48 1564 1559.22 1564 Q1563.9 1564 1566.64 1560.31 Q1569.37 1556.62 1569.37 1550.25 Q1569.37 1543.92 1566.64 1540.23 Q1563.9 1536.5 1559.22 1536.5 M1559.22 1531.54 Q1566.86 1531.54 1571.22 1536.5 Q1575.58 1541.47 1575.58 1550.25 Q1575.58 1559 1571.22 1564 Q1566.86 1568.97 1559.22 1568.97 Q1551.55 1568.97 1547.19 1564 Q1542.86 1559 1542.86 1550.25 Q1542.86 1541.47 1547.19 1536.5 Q1551.55 1531.54 1559.22 1531.54 Z" fill="#000000" fill-rule="nonzero" fill-opacity="1" /><path clip-path="url(#clip960)" d="M1585.29 1518.52 L1591.14 1518.52 L1591.14 1568.04 L1585.29 1568.04 L1585.29 1518.52 Z" fill="#000000" fill-rule="nonzero" fill-opacity="1" /><path clip-path="url(#clip960)" d="M1602.79 1553.98 L1602.79 1532.4 L1608.65 1532.4 L1608.65 1553.75 Q1608.65 1558.81 1610.62 1561.36 Q1612.6 1563.87 1616.54 1563.87 Q1621.29 1563.87 1624.02 1560.85 Q1626.79 1557.83 1626.79 1552.61 L1626.79 1532.4 L1632.65 1532.4 L1632.65 1568.04 L1626.79 1568.04 L1626.79 1562.57 Q1624.66 1565.82 1621.83 1567.41 Q1619.03 1568.97 1615.3 1568.97 Q1609.16 1568.97 1605.98 1565.15 Q1602.79 1561.33 1602.79 1553.98 M1617.53 1531.54 L1617.53 1531.54 Z" fill="#000000" fill-rule="nonzero" fill-opacity="1" /><path clip-path="url(#clip960)" d="M1672.47 1539.24 Q1674.66 1535.29 1677.72 1533.41 Q1680.77 1531.54 1684.91 1531.54 Q1690.48 1531.54 1693.51 1535.45 Q1696.53 1539.33 1696.53 1546.53 L1696.53 1568.04 L1690.64 1568.04 L1690.64 1546.72 Q1690.64 1541.59 1688.83 1539.11 Q1687.01 1536.63 1683.29 1536.63 Q1678.74 1536.63 1676.09 1539.65 Q1673.45 1542.68 1673.45 1547.9 L1673.45 1568.04 L1667.56 1568.04 L1667.56 1546.72 Q1667.56 1541.56 1665.75 1539.11 Q1663.94 1536.63 1660.15 1536.63 Q1655.66 1536.63 1653.02 1539.68 Q1650.38 1542.71 1650.38 1547.9 L1650.38 1568.04 L1644.49 1568.04 L1644.49 1532.4 L1650.38 1532.4 L1650.38 1537.93 Q1652.38 1534.66 1655.18 1533.1 Q1657.98 1531.54 1661.84 1531.54 Q1665.72 1531.54 1668.42 1533.51 Q1671.16 1535.48 1672.47 1539.24 Z" fill="#000000" fill-rule="nonzero" fill-opacity="1" /><path clip-path="url(#clip960)" d="M1737.84 1546.53 L1737.84 1568.04 L1731.99 1568.04 L1731.99 1546.72 Q1731.99 1541.66 1730.01 1539.14 Q1728.04 1536.63 1724.09 1536.63 Q1719.35 1536.63 1716.61 1539.65 Q1713.88 1542.68 1713.88 1547.9 L1713.88 1568.04 L1707.99 1568.04 L1707.99 1532.4 L1713.88 1532.4 L1713.88 1537.93 Q1715.98 1534.72 1718.81 1533.13 Q1721.67 1531.54 1725.4 1531.54 Q1731.54 1531.54 1734.69 1535.36 Q1737.84 1539.14 1737.84 1546.53 Z" fill="#000000" fill-rule="nonzero" fill-opacity="1" /><path clip-path="url(#clip960)" d="M1748.6 1518.58 L1753.69 1518.58 Q1758.47 1526.09 1760.82 1533.29 Q1763.21 1540.48 1763.21 1547.58 Q1763.21 1554.71 1760.82 1561.93 Q1758.47 1569.16 1753.69 1576.64 L1748.6 1576.64 Q1752.83 1569.35 1754.9 1562.16 Q1757 1554.93 1757 1547.58 Q1757 1540.23 1754.9 1533.06 Q1752.83 1525.9 1748.6 1518.58 Z" fill="#000000" fill-rule="nonzero" fill-opacity="1" /><polyline clip-path="url(#clip960)" style="stroke:#000000; stroke-linecap:round; stroke-linejoin:round; stroke-width:4; stroke-opacity:1; fill:none" points="219.38,1423.18 219.38,123.472 "/>
<polyline clip-path="url(#clip960)" style="stroke:#000000; stroke-linecap:round; stroke-linejoin:round; stroke-width:4; stroke-opacity:1; fill:none" points="219.38,1419.04 238.278,1419.04 "/>
<polyline clip-path="url(#clip960)" style="stroke:#000000; stroke-linecap:round; stroke-linejoin:round; stroke-width:4; stroke-opacity:1; fill:none" points="219.38,1038.47 238.278,1038.47 "/>
<polyline clip-path="url(#clip960)" style="stroke:#000000; stroke-linecap:round; stroke-linejoin:round; stroke-width:4; stroke-opacity:1; fill:none" points="219.38,657.89 238.278,657.89 "/>
<polyline clip-path="url(#clip960)" style="stroke:#000000; stroke-linecap:round; stroke-linejoin:round; stroke-width:4; stroke-opacity:1; fill:none" points="219.38,277.314 238.278,277.314 "/>
<path clip-path="url(#clip960)" d="M126.205 1404.84 Q122.593 1404.84 120.765 1408.41 Q118.959 1411.95 118.959 1419.08 Q118.959 1426.18 120.765 1429.75 Q122.593 1433.29 126.205 1433.29 Q129.839 1433.29 131.644 1429.75 Q133.473 1426.18 133.473 1419.08 Q133.473 1411.95 131.644 1408.41 Q129.839 1404.84 126.205 1404.84 M126.205 1401.14 Q132.015 1401.14 135.07 1405.74 Q138.149 1410.33 138.149 1419.08 Q138.149 1427.8 135.07 1432.41 Q132.015 1436.99 126.205 1436.99 Q120.394 1436.99 117.316 1432.41 Q114.26 1427.8 114.26 1419.08 Q114.26 1410.33 117.316 1405.74 Q120.394 1401.14 126.205 1401.14 Z" fill="#000000" fill-rule="nonzero" fill-opacity="1" /><path clip-path="url(#clip960)" d="M146.366 1430.44 L151.251 1430.44 L151.251 1436.32 L146.366 1436.32 L146.366 1430.44 Z" fill="#000000" fill-rule="nonzero" fill-opacity="1" /><path clip-path="url(#clip960)" d="M171.436 1404.84 Q167.825 1404.84 165.996 1408.41 Q164.19 1411.95 164.19 1419.08 Q164.19 1426.18 165.996 1429.75 Q167.825 1433.29 171.436 1433.29 Q175.07 1433.29 176.876 1429.75 Q178.704 1426.18 178.704 1419.08 Q178.704 1411.95 176.876 1408.41 Q175.07 1404.84 171.436 1404.84 M171.436 1401.14 Q177.246 1401.14 180.301 1405.74 Q183.38 1410.33 183.38 1419.08 Q183.38 1427.8 180.301 1432.41 Q177.246 1436.99 171.436 1436.99 Q165.626 1436.99 162.547 1432.41 Q159.491 1427.8 159.491 1419.08 Q159.491 1410.33 162.547 1405.74 Q165.626 1401.14 171.436 1401.14 Z" fill="#000000" fill-rule="nonzero" fill-opacity="1" /><path clip-path="url(#clip960)" d="M127.431 1024.26 Q123.82 1024.26 121.992 1027.83 Q120.186 1031.37 120.186 1038.5 Q120.186 1045.61 121.992 1049.17 Q123.82 1052.71 127.431 1052.71 Q131.066 1052.71 132.871 1049.17 Q134.7 1045.61 134.7 1038.5 Q134.7 1031.37 132.871 1027.83 Q131.066 1024.26 127.431 1024.26 M127.431 1020.56 Q133.242 1020.56 136.297 1025.17 Q139.376 1029.75 139.376 1038.5 Q139.376 1047.23 136.297 1051.83 Q133.242 1056.42 127.431 1056.42 Q121.621 1056.42 118.543 1051.83 Q115.487 1047.23 115.487 1038.5 Q115.487 1029.75 118.543 1025.17 Q121.621 1020.56 127.431 1020.56 Z" fill="#000000" fill-rule="nonzero" fill-opacity="1" /><path clip-path="url(#clip960)" d="M147.593 1049.87 L152.478 1049.87 L152.478 1055.75 L147.593 1055.75 L147.593 1049.87 Z" fill="#000000" fill-rule="nonzero" fill-opacity="1" /><path clip-path="url(#clip960)" d="M163.473 1051.81 L171.112 1051.81 L171.112 1025.45 L162.802 1027.11 L162.802 1022.85 L171.065 1021.19 L175.741 1021.19 L175.741 1051.81 L183.38 1051.81 L183.38 1055.75 L163.473 1055.75 L163.473 1051.81 Z" fill="#000000" fill-rule="nonzero" fill-opacity="1" /><path clip-path="url(#clip960)" d="M127.802 643.689 Q124.191 643.689 122.362 647.254 Q120.556 650.795 120.556 657.925 Q120.556 665.031 122.362 668.596 Q124.191 672.138 127.802 672.138 Q131.436 672.138 133.242 668.596 Q135.07 665.031 135.07 657.925 Q135.07 650.795 133.242 647.254 Q131.436 643.689 127.802 643.689 M127.802 639.985 Q133.612 639.985 136.667 644.592 Q139.746 649.175 139.746 657.925 Q139.746 666.652 136.667 671.258 Q133.612 675.842 127.802 675.842 Q121.992 675.842 118.913 671.258 Q115.857 666.652 115.857 657.925 Q115.857 649.175 118.913 644.592 Q121.992 639.985 127.802 639.985 Z" fill="#000000" fill-rule="nonzero" fill-opacity="1" /><path clip-path="url(#clip960)" d="M147.964 669.291 L152.848 669.291 L152.848 675.17 L147.964 675.17 L147.964 669.291 Z" fill="#000000" fill-rule="nonzero" fill-opacity="1" /><path clip-path="url(#clip960)" d="M167.061 671.235 L183.38 671.235 L183.38 675.17 L161.436 675.17 L161.436 671.235 Q164.098 668.48 168.681 663.851 Q173.288 659.198 174.468 657.856 Q176.714 655.332 177.593 653.596 Q178.496 651.837 178.496 650.147 Q178.496 647.393 176.551 645.657 Q174.63 643.92 171.528 643.92 Q169.329 643.92 166.876 644.684 Q164.445 645.448 161.667 646.999 L161.667 642.277 Q164.491 641.143 166.945 640.564 Q169.399 639.985 171.436 639.985 Q176.806 639.985 180.001 642.67 Q183.195 645.356 183.195 649.846 Q183.195 651.976 182.385 653.897 Q181.598 655.795 179.491 658.388 Q178.913 659.059 175.811 662.277 Q172.709 665.471 167.061 671.235 Z" fill="#000000" fill-rule="nonzero" fill-opacity="1" /><path clip-path="url(#clip960)" d="M126.853 263.113 Q123.242 263.113 121.413 266.678 Q119.607 270.22 119.607 277.349 Q119.607 284.456 121.413 288.02 Q123.242 291.562 126.853 291.562 Q130.487 291.562 132.292 288.02 Q134.121 284.456 134.121 277.349 Q134.121 270.22 132.292 266.678 Q130.487 263.113 126.853 263.113 M126.853 259.409 Q132.663 259.409 135.718 264.016 Q138.797 268.599 138.797 277.349 Q138.797 286.076 135.718 290.682 Q132.663 295.266 126.853 295.266 Q121.043 295.266 117.964 290.682 Q114.908 286.076 114.908 277.349 Q114.908 268.599 117.964 264.016 Q121.043 259.409 126.853 259.409 Z" fill="#000000" fill-rule="nonzero" fill-opacity="1" /><path clip-path="url(#clip960)" d="M147.015 288.715 L151.899 288.715 L151.899 294.594 L147.015 294.594 L147.015 288.715 Z" fill="#000000" fill-rule="nonzero" fill-opacity="1" /><path clip-path="url(#clip960)" d="M176.251 275.96 Q179.607 276.678 181.482 278.946 Q183.38 281.215 183.38 284.548 Q183.38 289.664 179.862 292.465 Q176.343 295.266 169.862 295.266 Q167.686 295.266 165.371 294.826 Q163.079 294.409 160.626 293.553 L160.626 289.039 Q162.57 290.173 164.885 290.752 Q167.2 291.331 169.723 291.331 Q174.121 291.331 176.413 289.594 Q178.727 287.858 178.727 284.548 Q178.727 281.493 176.575 279.78 Q174.445 278.044 170.626 278.044 L166.598 278.044 L166.598 274.201 L170.811 274.201 Q174.26 274.201 176.089 272.835 Q177.917 271.446 177.917 268.854 Q177.917 266.192 176.019 264.78 Q174.144 263.345 170.626 263.345 Q168.704 263.345 166.505 263.761 Q164.306 264.178 161.667 265.058 L161.667 260.891 Q164.329 260.15 166.644 259.78 Q168.982 259.409 171.042 259.409 Q176.366 259.409 179.468 261.84 Q182.57 264.247 182.57 268.368 Q182.57 271.238 180.926 273.229 Q179.283 275.196 176.251 275.96 Z" fill="#000000" fill-rule="nonzero" fill-opacity="1" /><path clip-path="url(#clip960)" d="M16.4842 1263.1 L16.4842 1233.06 L21.895 1233.06 L21.895 1256.67 L35.9632 1256.67 L35.9632 1234.04 L41.3741 1234.04 L41.3741 1256.67 L58.5933 1256.67 L58.5933 1232.48 L64.0042 1232.48 L64.0042 1263.1 L16.4842 1263.1 Z" fill="#000000" fill-rule="nonzero" fill-opacity="1" /><path clip-path="url(#clip960)" d="M28.3562 1192.54 L45.7028 1205.43 L64.0042 1191.87 L64.0042 1198.78 L49.9996 1209.15 L64.0042 1219.53 L64.0042 1226.44 L45.3526 1212.59 L28.3562 1225.26 L28.3562 1218.35 L41.0558 1208.9 L28.3562 1199.45 L28.3562 1192.54 Z" fill="#000000" fill-rule="nonzero" fill-opacity="1" /><path clip-path="url(#clip960)" d="M46.0847 1167.4 Q46.0847 1174.49 47.7079 1177.23 Q49.3312 1179.97 53.2461 1179.97 Q56.3653 1179.97 58.2114 1177.93 Q60.0256 1175.86 60.0256 1172.33 Q60.0256 1167.46 56.5881 1164.53 Q53.1188 1161.57 47.3897 1161.57 L46.0847 1161.57 L46.0847 1167.4 M43.6657 1155.71 L64.0042 1155.71 L64.0042 1161.57 L58.5933 1161.57 Q61.8398 1163.58 63.3994 1166.57 Q64.9272 1169.56 64.9272 1173.89 Q64.9272 1179.36 61.8716 1182.61 Q58.7843 1185.82 53.6281 1185.82 Q47.6125 1185.82 44.5569 1181.81 Q41.5014 1177.77 41.5014 1169.78 L41.5014 1161.57 L40.9285 1161.57 Q36.8862 1161.57 34.6901 1164.24 Q32.4621 1166.89 32.4621 1171.69 Q32.4621 1174.75 33.1941 1177.64 Q33.9262 1180.54 35.3903 1183.21 L29.9795 1183.21 Q28.7381 1180 28.1334 1176.98 Q27.4968 1173.95 27.4968 1171.09 Q27.4968 1163.35 31.5072 1159.53 Q35.5176 1155.71 43.6657 1155.71 Z" fill="#000000" fill-rule="nonzero" fill-opacity="1" /><path clip-path="url(#clip960)" d="M29.7248 1118 L35.1993 1118 Q33.8307 1120.48 33.1623 1122.99 Q32.4621 1125.48 32.4621 1128.02 Q32.4621 1133.72 36.0905 1136.87 Q39.6872 1140.02 46.212 1140.02 Q52.7369 1140.02 56.3653 1136.87 Q59.9619 1133.72 59.9619 1128.02 Q59.9619 1125.48 59.2935 1122.99 Q58.5933 1120.48 57.2247 1118 L62.6355 1118 Q63.7814 1120.45 64.3543 1123.09 Q64.9272 1125.7 64.9272 1128.66 Q64.9272 1136.71 59.8664 1141.45 Q54.8057 1146.2 46.212 1146.2 Q37.491 1146.2 32.4939 1141.42 Q27.4968 1136.62 27.4968 1128.28 Q27.4968 1125.57 28.0697 1122.99 Q28.6108 1120.42 29.7248 1118 Z" fill="#000000" fill-rule="nonzero" fill-opacity="1" /><path clip-path="url(#clip960)" d="M18.2347 1102.02 L28.3562 1102.02 L28.3562 1089.96 L32.9077 1089.96 L32.9077 1102.02 L52.2594 1102.02 Q56.6199 1102.02 57.8613 1100.84 Q59.1026 1099.63 59.1026 1095.97 L59.1026 1089.96 L64.0042 1089.96 L64.0042 1095.97 Q64.0042 1102.75 61.4897 1105.33 Q58.9434 1107.91 52.2594 1107.91 L32.9077 1107.91 L32.9077 1112.2 L28.3562 1112.2 L28.3562 1107.91 L18.2347 1107.91 L18.2347 1102.02 Z" fill="#000000" fill-rule="nonzero" fill-opacity="1" /><path clip-path="url(#clip960)" d="M35.1993 1033.78 Q31.2526 1031.58 29.3747 1028.53 Q27.4968 1025.47 27.4968 1021.33 Q27.4968 1015.76 31.4117 1012.74 Q35.2948 1009.72 42.4881 1009.72 L64.0042 1009.72 L64.0042 1015.6 L42.679 1015.6 Q37.5546 1015.6 35.072 1017.42 Q32.5894 1019.23 32.5894 1022.96 Q32.5894 1027.51 35.6131 1030.15 Q38.6368 1032.79 43.8567 1032.79 L64.0042 1032.79 L64.0042 1038.68 L42.679 1038.68 Q37.5228 1038.68 35.072 1040.49 Q32.5894 1042.31 32.5894 1046.1 Q32.5894 1050.58 35.6449 1053.23 Q38.6686 1055.87 43.8567 1055.87 L64.0042 1055.87 L64.0042 1061.76 L28.3562 1061.76 L28.3562 1055.87 L33.8944 1055.87 Q30.616 1053.86 29.0564 1051.06 Q27.4968 1048.26 27.4968 1044.41 Q27.4968 1040.53 29.4702 1037.82 Q31.4436 1035.08 35.1993 1033.78 Z" fill="#000000" fill-rule="nonzero" fill-opacity="1" /><path clip-path="url(#clip960)" d="M46.0847 981.835 Q46.0847 988.932 47.7079 991.67 Q49.3312 994.407 53.2461 994.407 Q56.3653 994.407 58.2114 992.37 Q60.0256 990.301 60.0256 986.768 Q60.0256 981.898 56.5881 978.97 Q53.1188 976.01 47.3897 976.01 L46.0847 976.01 L46.0847 981.835 M43.6657 970.154 L64.0042 970.154 L64.0042 976.01 L58.5933 976.01 Q61.8398 978.015 63.3994 981.007 Q64.9272 983.999 64.9272 988.328 Q64.9272 993.802 61.8716 997.049 Q58.7843 1000.26 53.6281 1000.26 Q47.6125 1000.26 44.5569 996.253 Q41.5014 992.211 41.5014 984.222 L41.5014 976.01 L40.9285 976.01 Q36.8862 976.01 34.6901 978.684 Q32.4621 981.325 32.4621 986.132 Q32.4621 989.187 33.1941 992.083 Q33.9262 994.98 35.3903 997.653 L29.9795 997.653 Q28.7381 994.439 28.1334 991.415 Q27.4968 988.391 27.4968 985.527 Q27.4968 977.792 31.5072 973.973 Q35.5176 970.154 43.6657 970.154 Z" fill="#000000" fill-rule="nonzero" fill-opacity="1" /><path clip-path="url(#clip960)" d="M28.3562 958.091 L28.3562 952.234 L64.0042 952.234 L64.0042 958.091 L28.3562 958.091 M14.479 958.091 L14.479 952.234 L21.895 952.234 L21.895 958.091 L14.479 958.091 Z" fill="#000000" fill-rule="nonzero" fill-opacity="1" /><path clip-path="url(#clip960)" d="M42.4881 910.348 L64.0042 910.348 L64.0042 916.204 L42.679 916.204 Q37.6183 916.204 35.1038 918.178 Q32.5894 920.151 32.5894 924.098 Q32.5894 928.84 35.6131 931.577 Q38.6368 934.315 43.8567 934.315 L64.0042 934.315 L64.0042 940.203 L28.3562 940.203 L28.3562 934.315 L33.8944 934.315 Q30.6797 932.214 29.0883 929.381 Q27.4968 926.517 27.4968 922.793 Q27.4968 916.65 31.3163 913.499 Q35.1038 910.348 42.4881 910.348 Z" fill="#000000" fill-rule="nonzero" fill-opacity="1" /><path clip-path="url(#clip960)" d="M43.5384 901.627 L43.5384 884.471 L48.7583 884.471 L48.7583 901.627 L43.5384 901.627 Z" fill="#000000" fill-rule="nonzero" fill-opacity="1" /><path clip-path="url(#clip960)" d="M44.7161 844.654 L47.5806 844.654 L47.5806 871.581 Q53.6281 871.199 56.8109 867.952 Q59.9619 864.674 59.9619 858.849 Q59.9619 855.475 59.1344 852.324 Q58.3069 849.142 56.6518 846.022 L62.1899 846.022 Q63.5267 849.173 64.227 852.484 Q64.9272 855.794 64.9272 859.199 Q64.9272 867.729 59.9619 872.726 Q54.9967 877.692 46.5303 877.692 Q37.7774 877.692 32.6531 872.981 Q27.4968 868.239 27.4968 860.218 Q27.4968 853.025 32.1438 848.855 Q36.7589 844.654 44.7161 844.654 M42.9973 850.51 Q38.1912 850.574 35.3266 853.216 Q32.4621 855.826 32.4621 860.154 Q32.4621 865.056 35.2312 868.016 Q38.0002 870.944 43.0292 871.39 L42.9973 850.51 Z" fill="#000000" fill-rule="nonzero" fill-opacity="1" /><path clip-path="url(#clip960)" d="M14.479 816.995 L19.3487 816.995 L19.3487 822.597 Q19.3487 825.748 20.6219 826.989 Q21.895 828.198 25.2052 828.198 L28.3562 828.198 L28.3562 818.554 L32.9077 818.554 L32.9077 828.198 L64.0042 828.198 L64.0042 834.087 L32.9077 834.087 L32.9077 839.688 L28.3562 839.688 L28.3562 834.087 L25.8736 834.087 Q19.9216 834.087 17.2162 831.318 Q14.479 828.548 14.479 822.533 L14.479 816.995 Z" fill="#000000" fill-rule="nonzero" fill-opacity="1" /><path clip-path="url(#clip960)" d="M14.479 794.046 L19.3487 794.046 L19.3487 799.648 Q19.3487 802.799 20.6219 804.041 Q21.895 805.25 25.2052 805.25 L28.3562 805.25 L28.3562 795.606 L32.9077 795.606 L32.9077 805.25 L64.0042 805.25 L64.0042 811.138 L32.9077 811.138 L32.9077 816.74 L28.3562 816.74 L28.3562 811.138 L25.8736 811.138 Q19.9216 811.138 17.2162 808.369 Q14.479 805.6 14.479 799.585 L14.479 794.046 Z" fill="#000000" fill-rule="nonzero" fill-opacity="1" /><path clip-path="url(#clip960)" d="M44.7161 758.653 L47.5806 758.653 L47.5806 785.58 Q53.6281 785.198 56.8109 781.952 Q59.9619 778.673 59.9619 772.849 Q59.9619 769.475 59.1344 766.324 Q58.3069 763.141 56.6518 760.022 L62.1899 760.022 Q63.5267 763.173 64.227 766.483 Q64.9272 769.793 64.9272 773.199 Q64.9272 781.729 59.9619 786.726 Q54.9967 791.691 46.5303 791.691 Q37.7774 791.691 32.6531 786.98 Q27.4968 782.238 27.4968 774.217 Q27.4968 767.024 32.1438 762.854 Q36.7589 758.653 44.7161 758.653 M42.9973 764.509 Q38.1912 764.573 35.3266 767.215 Q32.4621 769.825 32.4621 774.154 Q32.4621 779.055 35.2312 782.015 Q38.0002 784.943 43.0292 785.389 L42.9973 764.509 Z" fill="#000000" fill-rule="nonzero" fill-opacity="1" /><path clip-path="url(#clip960)" d="M29.7248 723.387 L35.1993 723.387 Q33.8307 725.87 33.1623 728.384 Q32.4621 730.867 32.4621 733.413 Q32.4621 739.11 36.0905 742.261 Q39.6872 745.412 46.212 745.412 Q52.7369 745.412 56.3653 742.261 Q59.9619 739.11 59.9619 733.413 Q59.9619 730.867 59.2935 728.384 Q58.5933 725.87 57.2247 723.387 L62.6355 723.387 Q63.7814 725.838 64.3543 728.48 Q64.9272 731.09 64.9272 734.05 Q64.9272 742.102 59.8664 746.845 Q54.8057 751.587 46.212 751.587 Q37.491 751.587 32.4939 746.813 Q27.4968 742.007 27.4968 733.668 Q27.4968 730.962 28.0697 728.384 Q28.6108 725.806 29.7248 723.387 Z" fill="#000000" fill-rule="nonzero" fill-opacity="1" /><path clip-path="url(#clip960)" d="M18.2347 707.409 L28.3562 707.409 L28.3562 695.346 L32.9077 695.346 L32.9077 707.409 L52.2594 707.409 Q56.6199 707.409 57.8613 706.231 Q59.1026 705.022 59.1026 701.362 L59.1026 695.346 L64.0042 695.346 L64.0042 701.362 Q64.0042 708.141 61.4897 710.719 Q58.9434 713.297 52.2594 713.297 L32.9077 713.297 L32.9077 717.594 L28.3562 717.594 L28.3562 713.297 L18.2347 713.297 L18.2347 707.409 Z" fill="#000000" fill-rule="nonzero" fill-opacity="1" /><path clip-path="url(#clip960)" d="M29.7248 641.269 L35.1993 641.269 Q33.8307 643.752 33.1623 646.266 Q32.4621 648.749 32.4621 651.295 Q32.4621 656.993 36.0905 660.144 Q39.6872 663.295 46.212 663.295 Q52.7369 663.295 56.3653 660.144 Q59.9619 656.993 59.9619 651.295 Q59.9619 648.749 59.2935 646.266 Q58.5933 643.752 57.2247 641.269 L62.6355 641.269 Q63.7814 643.72 64.3543 646.362 Q64.9272 648.972 64.9272 651.932 Q64.9272 659.985 59.8664 664.727 Q54.8057 669.469 46.212 669.469 Q37.491 669.469 32.4939 664.695 Q27.4968 659.889 27.4968 651.55 Q27.4968 648.845 28.0697 646.266 Q28.6108 643.688 29.7248 641.269 Z" fill="#000000" fill-rule="nonzero" fill-opacity="1" /><path clip-path="url(#clip960)" d="M32.4621 617.271 Q32.4621 621.981 36.1542 624.719 Q39.8145 627.456 46.212 627.456 Q52.6095 627.456 56.3017 624.75 Q59.9619 622.013 59.9619 617.271 Q59.9619 612.592 56.2698 609.855 Q52.5777 607.117 46.212 607.117 Q39.8781 607.117 36.186 609.855 Q32.4621 612.592 32.4621 617.271 M27.4968 617.271 Q27.4968 609.632 32.4621 605.271 Q37.4273 600.911 46.212 600.911 Q54.9649 600.911 59.9619 605.271 Q64.9272 609.632 64.9272 617.271 Q64.9272 624.941 59.9619 629.302 Q54.9649 633.631 46.212 633.631 Q37.4273 633.631 32.4621 629.302 Q27.4968 624.941 27.4968 617.271 Z" fill="#000000" fill-rule="nonzero" fill-opacity="1" /><path clip-path="url(#clip960)" d="M42.4881 561.571 L64.0042 561.571 L64.0042 567.427 L42.679 567.427 Q37.6183 567.427 35.1038 569.401 Q32.5894 571.374 32.5894 575.321 Q32.5894 580.063 35.6131 582.8 Q38.6368 585.538 43.8567 585.538 L64.0042 585.538 L64.0042 591.426 L28.3562 591.426 L28.3562 585.538 L33.8944 585.538 Q30.6797 583.437 29.0883 580.604 Q27.4968 577.74 27.4968 574.016 Q27.4968 567.873 31.3163 564.722 Q35.1038 561.571 42.4881 561.571 Z" fill="#000000" fill-rule="nonzero" fill-opacity="1" /><path clip-path="url(#clip960)" d="M18.2347 544.097 L28.3562 544.097 L28.3562 532.034 L32.9077 532.034 L32.9077 544.097 L52.2594 544.097 Q56.6199 544.097 57.8613 542.919 Q59.1026 541.71 59.1026 538.049 L59.1026 532.034 L64.0042 532.034 L64.0042 538.049 Q64.0042 544.829 61.4897 547.407 Q58.9434 549.985 52.2594 549.985 L32.9077 549.985 L32.9077 554.282 L28.3562 554.282 L28.3562 549.985 L18.2347 549.985 L18.2347 544.097 Z" fill="#000000" fill-rule="nonzero" fill-opacity="1" /><path clip-path="url(#clip960)" d="M33.8307 503.675 Q33.2578 504.661 33.0032 505.839 Q32.7167 506.985 32.7167 508.385 Q32.7167 513.351 35.9632 516.024 Q39.1779 518.666 45.2253 518.666 L64.0042 518.666 L64.0042 524.554 L28.3562 524.554 L28.3562 518.666 L33.8944 518.666 Q30.6479 516.82 29.0883 513.86 Q27.4968 510.9 27.4968 506.667 Q27.4968 506.062 27.5923 505.33 Q27.656 504.598 27.8151 503.706 L33.8307 503.675 Z" fill="#000000" fill-rule="nonzero" fill-opacity="1" /><path clip-path="url(#clip960)" d="M28.3562 497.532 L28.3562 491.675 L64.0042 491.675 L64.0042 497.532 L28.3562 497.532 M14.479 497.532 L14.479 491.675 L21.895 491.675 L21.895 497.532 L14.479 497.532 Z" fill="#000000" fill-rule="nonzero" fill-opacity="1" /><path clip-path="url(#clip960)" d="M46.212 453.831 Q39.7508 453.831 36.0905 456.505 Q32.3984 459.147 32.3984 463.793 Q32.3984 468.44 36.0905 471.114 Q39.7508 473.756 46.212 473.756 Q52.6732 473.756 56.3653 471.114 Q60.0256 468.44 60.0256 463.793 Q60.0256 459.147 56.3653 456.505 Q52.6732 453.831 46.212 453.831 M33.7671 473.756 Q30.5842 471.91 29.0564 469.109 Q27.4968 466.276 27.4968 462.361 Q27.4968 455.868 32.6531 451.826 Q37.8093 447.752 46.212 447.752 Q54.6147 447.752 59.771 451.826 Q64.9272 455.868 64.9272 462.361 Q64.9272 466.276 63.3994 469.109 Q61.8398 471.91 58.657 473.756 L64.0042 473.756 L64.0042 479.644 L14.479 479.644 L14.479 473.756 L33.7671 473.756 Z" fill="#000000" fill-rule="nonzero" fill-opacity="1" /><path clip-path="url(#clip960)" d="M49.9359 438.649 L28.3562 438.649 L28.3562 432.793 L49.7131 432.793 Q54.7739 432.793 57.3202 430.819 Q59.8346 428.846 59.8346 424.899 Q59.8346 420.157 56.8109 417.419 Q53.7872 414.65 48.5673 414.65 L28.3562 414.65 L28.3562 408.794 L64.0042 408.794 L64.0042 414.65 L58.5296 414.65 Q61.7762 416.783 63.3676 419.615 Q64.9272 422.416 64.9272 426.14 Q64.9272 432.283 61.1078 435.466 Q57.2883 438.649 49.9359 438.649 M27.4968 423.912 L27.4968 423.912 Z" fill="#000000" fill-rule="nonzero" fill-opacity="1" /><path clip-path="url(#clip960)" d="M18.2347 390.938 L28.3562 390.938 L28.3562 378.875 L32.9077 378.875 L32.9077 390.938 L52.2594 390.938 Q56.6199 390.938 57.8613 389.76 Q59.1026 388.551 59.1026 384.891 L59.1026 378.875 L64.0042 378.875 L64.0042 384.891 Q64.0042 391.67 61.4897 394.248 Q58.9434 396.826 52.2594 396.826 L32.9077 396.826 L32.9077 401.123 L28.3562 401.123 L28.3562 396.826 L18.2347 396.826 L18.2347 390.938 Z" fill="#000000" fill-rule="nonzero" fill-opacity="1" /><path clip-path="url(#clip960)" d="M28.3562 371.172 L28.3562 365.316 L64.0042 365.316 L64.0042 371.172 L28.3562 371.172 M14.479 371.172 L14.479 365.316 L21.895 365.316 L21.895 371.172 L14.479 371.172 Z" fill="#000000" fill-rule="nonzero" fill-opacity="1" /><path clip-path="url(#clip960)" d="M32.4621 339.248 Q32.4621 343.959 36.1542 346.696 Q39.8145 349.434 46.212 349.434 Q52.6095 349.434 56.3017 346.728 Q59.9619 343.991 59.9619 339.248 Q59.9619 334.57 56.2698 331.832 Q52.5777 329.095 46.212 329.095 Q39.8781 329.095 36.186 331.832 Q32.4621 334.57 32.4621 339.248 M27.4968 339.248 Q27.4968 331.61 32.4621 327.249 Q37.4273 322.889 46.212 322.889 Q54.9649 322.889 59.9619 327.249 Q64.9272 331.61 64.9272 339.248 Q64.9272 346.919 59.9619 351.28 Q54.9649 355.608 46.212 355.608 Q37.4273 355.608 32.4621 351.28 Q27.4968 346.919 27.4968 339.248 Z" fill="#000000" fill-rule="nonzero" fill-opacity="1" /><path clip-path="url(#clip960)" d="M42.4881 283.549 L64.0042 283.549 L64.0042 289.405 L42.679 289.405 Q37.6183 289.405 35.1038 291.378 Q32.5894 293.352 32.5894 297.298 Q32.5894 302.041 35.6131 304.778 Q38.6368 307.515 43.8567 307.515 L64.0042 307.515 L64.0042 313.404 L28.3562 313.404 L28.3562 307.515 L33.8944 307.515 Q30.6797 305.415 29.0883 302.582 Q27.4968 299.717 27.4968 295.993 Q27.4968 289.851 31.3163 286.7 Q35.1038 283.549 42.4881 283.549 Z" fill="#000000" fill-rule="nonzero" fill-opacity="1" /><path clip-path="url(#clip960)" d="M628.667 12.096 L636.85 12.096 L636.85 65.6895 L666.3 65.6895 L666.3 72.576 L628.667 72.576 L628.667 12.096 Z" fill="#000000" fill-rule="nonzero" fill-opacity="1" /><path clip-path="url(#clip960)" d="M695.183 49.7694 Q686.149 49.7694 682.666 51.8354 Q679.182 53.9013 679.182 58.8839 Q679.182 62.8538 681.774 65.2034 Q684.407 67.5124 688.904 67.5124 Q695.102 67.5124 698.829 63.1374 Q702.596 58.7219 702.596 51.4303 L702.596 49.7694 L695.183 49.7694 M710.05 46.6907 L710.05 72.576 L702.596 72.576 L702.596 65.6895 Q700.044 69.8214 696.236 71.8063 Q692.428 73.7508 686.919 73.7508 Q679.951 73.7508 675.82 69.8619 Q671.728 65.9325 671.728 59.3701 Q671.728 51.7138 676.832 47.825 Q681.977 43.9361 692.145 43.9361 L702.596 43.9361 L702.596 43.2069 Q702.596 38.0623 699.193 35.2672 Q695.831 32.4315 689.714 32.4315 Q685.825 32.4315 682.139 33.3632 Q678.453 34.295 675.05 36.1584 L675.05 29.2718 Q679.141 27.692 682.99 26.9223 Q686.838 26.1121 690.484 26.1121 Q700.328 26.1121 705.189 31.2163 Q710.05 36.3204 710.05 46.6907 Z" fill="#000000" fill-rule="nonzero" fill-opacity="1" /><path clip-path="url(#clip960)" d="M751.693 34.1734 Q750.437 33.4443 748.938 33.1202 Q747.48 32.7556 745.698 32.7556 Q739.378 32.7556 735.975 36.8875 Q732.613 40.9789 732.613 48.6757 L732.613 72.576 L725.119 72.576 L725.119 27.2059 L732.613 27.2059 L732.613 34.2544 Q734.963 30.1225 738.73 28.1376 Q742.497 26.1121 747.885 26.1121 Q748.655 26.1121 749.587 26.2337 Q750.518 26.3147 751.652 26.5172 L751.693 34.1734 Z" fill="#000000" fill-rule="nonzero" fill-opacity="1" /><path clip-path="url(#clip960)" d="M787.908 49.3643 Q787.908 41.2625 784.546 36.8065 Q781.224 32.3505 775.188 32.3505 Q769.193 32.3505 765.831 36.8065 Q762.509 41.2625 762.509 49.3643 Q762.509 57.4256 765.831 61.8816 Q769.193 66.3376 775.188 66.3376 Q781.224 66.3376 784.546 61.8816 Q787.908 57.4256 787.908 49.3643 M795.362 66.9452 Q795.362 78.5308 790.217 84.1616 Q785.072 89.8329 774.459 89.8329 Q770.53 89.8329 767.046 89.2252 Q763.562 88.6581 760.281 87.4428 L760.281 80.1917 Q763.562 81.9741 766.762 82.8248 Q769.963 83.6755 773.284 83.6755 Q780.616 83.6755 784.262 79.8271 Q787.908 76.0193 787.908 68.282 L787.908 64.5957 Q785.599 68.6061 781.994 70.5911 Q778.388 72.576 773.365 72.576 Q765.02 72.576 759.916 66.2161 Q754.812 59.8562 754.812 49.3643 Q754.812 38.832 759.916 32.472 Q765.02 26.1121 773.365 26.1121 Q778.388 26.1121 781.994 28.0971 Q785.599 30.082 787.908 34.0924 L787.908 27.2059 L795.362 27.2059 L795.362 66.9452 Z" fill="#000000" fill-rule="nonzero" fill-opacity="1" /><path clip-path="url(#clip960)" d="M849.522 48.0275 L849.522 51.6733 L815.252 51.6733 Q815.738 59.3701 819.87 63.421 Q824.042 67.4314 831.455 67.4314 Q835.749 67.4314 839.76 66.3781 Q843.811 65.3249 847.78 63.2184 L847.78 70.267 Q843.77 71.9684 839.557 72.8596 Q835.344 73.7508 831.01 73.7508 Q820.153 73.7508 813.793 67.4314 Q807.474 61.1119 807.474 50.3365 Q807.474 39.1965 813.469 32.6746 Q819.505 26.1121 829.713 26.1121 Q838.868 26.1121 844.175 32.0264 Q849.522 37.9003 849.522 48.0275 M842.069 45.84 Q841.988 39.7232 838.625 36.0774 Q835.304 32.4315 829.794 32.4315 Q823.556 32.4315 819.789 35.9558 Q816.062 39.4801 815.495 45.8805 L842.069 45.84 Z" fill="#000000" fill-rule="nonzero" fill-opacity="1" /><path clip-path="url(#clip960)" d="M890.68 28.5427 L890.68 35.5912 Q887.52 33.9709 884.117 33.1607 Q880.714 32.3505 877.068 32.3505 Q871.519 32.3505 868.724 34.0519 Q865.969 35.7533 865.969 39.156 Q865.969 41.7486 867.954 43.2475 Q869.939 44.7058 875.934 46.0426 L878.486 46.6097 Q886.426 48.3111 889.748 51.4303 Q893.11 54.509 893.11 60.0587 Q893.11 66.3781 888.087 70.0644 Q883.104 73.7508 874.354 73.7508 Q870.709 73.7508 866.739 73.0216 Q862.809 72.3329 858.434 70.9151 L858.434 63.2184 Q862.566 65.3654 866.577 66.4591 Q870.587 67.5124 874.516 67.5124 Q879.783 67.5124 882.618 65.73 Q885.454 63.9071 885.454 60.6258 Q885.454 57.5877 883.388 55.9673 Q881.362 54.3469 874.435 52.8481 L871.843 52.2405 Q864.916 50.7821 861.837 47.7845 Q858.758 44.7463 858.758 39.4801 Q858.758 33.0797 863.295 29.5959 Q867.832 26.1121 876.177 26.1121 Q880.309 26.1121 883.955 26.7198 Q887.601 27.3274 890.68 28.5427 Z" fill="#000000" fill-rule="nonzero" fill-opacity="1" /><path clip-path="url(#clip960)" d="M912.352 14.324 L912.352 27.2059 L927.705 27.2059 L927.705 32.9987 L912.352 32.9987 L912.352 57.6282 Q912.352 63.1779 913.851 64.7578 Q915.39 66.3376 920.049 66.3376 L927.705 66.3376 L927.705 72.576 L920.049 72.576 Q911.42 72.576 908.139 69.3758 Q904.858 66.1351 904.858 57.6282 L904.858 32.9987 L899.389 32.9987 L899.389 27.2059 L904.858 27.2059 L904.858 14.324 L912.352 14.324 Z" fill="#000000" fill-rule="nonzero" fill-opacity="1" /><path clip-path="url(#clip960)" d="M1002.69 48.0275 L1002.69 51.6733 L968.416 51.6733 Q968.902 59.3701 973.034 63.421 Q977.207 67.4314 984.62 67.4314 Q988.914 67.4314 992.924 66.3781 Q996.975 65.3249 1000.95 63.2184 L1000.95 70.267 Q996.935 71.9684 992.722 72.8596 Q988.509 73.7508 984.174 73.7508 Q973.318 73.7508 966.958 67.4314 Q960.639 61.1119 960.639 50.3365 Q960.639 39.1965 966.634 32.6746 Q972.67 26.1121 982.878 26.1121 Q992.033 26.1121 997.34 32.0264 Q1002.69 37.9003 1002.69 48.0275 M995.233 45.84 Q995.152 39.7232 991.79 36.0774 Q988.468 32.4315 982.959 32.4315 Q976.721 32.4315 972.953 35.9558 Q969.227 39.4801 968.659 45.8805 L995.233 45.84 Z" fill="#000000" fill-rule="nonzero" fill-opacity="1" /><path clip-path="url(#clip960)" d="M1051.18 27.2059 L1034.77 49.2833 L1052.03 72.576 L1043.24 72.576 L1030.03 54.752 L1016.82 72.576 L1008.03 72.576 L1025.66 48.8377 L1009.53 27.2059 L1018.32 27.2059 L1030.35 43.369 L1042.39 27.2059 L1051.18 27.2059 Z" fill="#000000" fill-rule="nonzero" fill-opacity="1" /><path clip-path="url(#clip960)" d="M1083.18 49.7694 Q1074.14 49.7694 1070.66 51.8354 Q1067.18 53.9013 1067.18 58.8839 Q1067.18 62.8538 1069.77 65.2034 Q1072.4 67.5124 1076.9 67.5124 Q1083.1 67.5124 1086.82 63.1374 Q1090.59 58.7219 1090.59 51.4303 L1090.59 49.7694 L1083.18 49.7694 M1098.05 46.6907 L1098.05 72.576 L1090.59 72.576 L1090.59 65.6895 Q1088.04 69.8214 1084.23 71.8063 Q1080.42 73.7508 1074.91 73.7508 Q1067.95 73.7508 1063.82 69.8619 Q1059.72 65.9325 1059.72 59.3701 Q1059.72 51.7138 1064.83 47.825 Q1069.97 43.9361 1080.14 43.9361 L1090.59 43.9361 L1090.59 43.2069 Q1090.59 38.0623 1087.19 35.2672 Q1083.83 32.4315 1077.71 32.4315 Q1073.82 32.4315 1070.13 33.3632 Q1066.45 34.295 1063.05 36.1584 L1063.05 29.2718 Q1067.14 27.692 1070.99 26.9223 Q1074.83 26.1121 1078.48 26.1121 Q1088.32 26.1121 1093.18 31.2163 Q1098.05 36.3204 1098.05 46.6907 Z" fill="#000000" fill-rule="nonzero" fill-opacity="1" /><path clip-path="url(#clip960)" d="M1146.05 28.9478 L1146.05 35.9153 Q1142.89 34.1734 1139.69 33.3227 Q1136.53 32.4315 1133.29 32.4315 Q1126.04 32.4315 1122.03 37.0496 Q1118.02 41.6271 1118.02 49.9314 Q1118.02 58.2358 1122.03 62.8538 Q1126.04 67.4314 1133.29 67.4314 Q1136.53 67.4314 1139.69 66.5807 Q1142.89 65.6895 1146.05 63.9476 L1146.05 70.8341 Q1142.93 72.2924 1139.57 73.0216 Q1136.25 73.7508 1132.48 73.7508 Q1122.23 73.7508 1116.19 67.3098 Q1110.16 60.8689 1110.16 49.9314 Q1110.16 38.832 1116.23 32.472 Q1122.35 26.1121 1132.96 26.1121 Q1136.41 26.1121 1139.69 26.8413 Q1142.97 27.5299 1146.05 28.9478 Z" fill="#000000" fill-rule="nonzero" fill-opacity="1" /><path clip-path="url(#clip960)" d="M1166.38 14.324 L1166.38 27.2059 L1181.74 27.2059 L1181.74 32.9987 L1166.38 32.9987 L1166.38 57.6282 Q1166.38 63.1779 1167.88 64.7578 Q1169.42 66.3376 1174.08 66.3376 L1181.74 66.3376 L1181.74 72.576 L1174.08 72.576 Q1165.45 72.576 1162.17 69.3758 Q1158.89 66.1351 1158.89 57.6282 L1158.89 32.9987 L1153.42 32.9987 L1153.42 27.2059 L1158.89 27.2059 L1158.89 14.324 L1166.38 14.324 Z" fill="#000000" fill-rule="nonzero" fill-opacity="1" /><path clip-path="url(#clip960)" d="M1218.24 12.096 L1226.42 12.096 L1226.42 65.6895 L1255.87 65.6895 L1255.87 72.576 L1218.24 72.576 L1218.24 12.096 Z" fill="#000000" fill-rule="nonzero" fill-opacity="1" /><path clip-path="url(#clip960)" d="M1244.65 12.096 L1295.81 12.096 L1295.81 18.9825 L1274.34 18.9825 L1274.34 72.576 L1266.12 72.576 L1266.12 18.9825 L1244.65 18.9825 L1244.65 12.096 Z" fill="#000000" fill-rule="nonzero" fill-opacity="1" /><path clip-path="url(#clip960)" d="M1332.39 44.2197 Q1335.02 45.1109 1337.49 48.0275 Q1340.01 50.9442 1342.52 56.0483 L1350.82 72.576 L1342.03 72.576 L1334.29 57.061 Q1331.3 50.9847 1328.46 48.9997 Q1325.67 47.0148 1320.8 47.0148 L1311.89 47.0148 L1311.89 72.576 L1303.71 72.576 L1303.71 12.096 L1322.18 12.096 Q1332.55 12.096 1337.66 16.4305 Q1342.76 20.7649 1342.76 29.5149 Q1342.76 35.2267 1340.09 38.994 Q1337.45 42.7613 1332.39 44.2197 M1311.89 18.8205 L1311.89 40.2903 L1322.18 40.2903 Q1328.1 40.2903 1331.09 37.5762 Q1334.13 34.8216 1334.13 29.5149 Q1334.13 24.2082 1331.09 21.5346 Q1328.1 18.8205 1322.18 18.8205 L1311.89 18.8205 Z" fill="#000000" fill-rule="nonzero" fill-opacity="1" /><path clip-path="url(#clip960)" d="M1361.35 12.096 L1399.59 12.096 L1399.59 18.9825 L1369.54 18.9825 L1369.54 36.8875 L1398.34 36.8875 L1398.34 43.7741 L1369.54 43.7741 L1369.54 65.6895 L1400.32 65.6895 L1400.32 72.576 L1361.35 72.576 L1361.35 12.096 Z" fill="#000000" fill-rule="nonzero" fill-opacity="1" /><path clip-path="url(#clip960)" d="M1475.14 35.9153 Q1477.94 30.8922 1481.83 28.5022 Q1485.72 26.1121 1490.98 26.1121 Q1498.07 26.1121 1501.92 31.0947 Q1505.77 36.0368 1505.77 45.1919 L1505.77 72.576 L1498.27 72.576 L1498.27 45.4349 Q1498.27 38.913 1495.97 35.7533 Q1493.66 32.5936 1488.92 32.5936 Q1483.12 32.5936 1479.76 36.4419 Q1476.4 40.2903 1476.4 46.9338 L1476.4 72.576 L1468.91 72.576 L1468.91 45.4349 Q1468.91 38.8725 1466.6 35.7533 Q1464.29 32.5936 1459.47 32.5936 Q1453.76 32.5936 1450.39 36.4824 Q1447.03 40.3308 1447.03 46.9338 L1447.03 72.576 L1439.54 72.576 L1439.54 27.2059 L1447.03 27.2059 L1447.03 34.2544 Q1449.58 30.082 1453.15 28.0971 Q1456.71 26.1121 1461.61 26.1121 Q1466.56 26.1121 1470 28.6237 Q1473.48 31.1352 1475.14 35.9153 Z" fill="#000000" fill-rule="nonzero" fill-opacity="1" /><path clip-path="url(#clip960)" d="M1541.25 49.7694 Q1532.22 49.7694 1528.74 51.8354 Q1525.25 53.9013 1525.25 58.8839 Q1525.25 62.8538 1527.85 65.2034 Q1530.48 67.5124 1534.98 67.5124 Q1541.17 67.5124 1544.9 63.1374 Q1548.67 58.7219 1548.67 51.4303 L1548.67 49.7694 L1541.25 49.7694 M1556.12 46.6907 L1556.12 72.576 L1548.67 72.576 L1548.67 65.6895 Q1546.12 69.8214 1542.31 71.8063 Q1538.5 73.7508 1532.99 73.7508 Q1526.02 73.7508 1521.89 69.8619 Q1517.8 65.9325 1517.8 59.3701 Q1517.8 51.7138 1522.9 47.825 Q1528.05 43.9361 1538.22 43.9361 L1548.67 43.9361 L1548.67 43.2069 Q1548.67 38.0623 1545.27 35.2672 Q1541.9 32.4315 1535.79 32.4315 Q1531.9 32.4315 1528.21 33.3632 Q1524.52 34.295 1521.12 36.1584 L1521.12 29.2718 Q1525.21 27.692 1529.06 26.9223 Q1532.91 26.1121 1536.56 26.1121 Q1546.4 26.1121 1551.26 31.2163 Q1556.12 36.3204 1556.12 46.6907 Z" fill="#000000" fill-rule="nonzero" fill-opacity="1" /><path clip-path="url(#clip960)" d="M1571.47 27.2059 L1578.93 27.2059 L1578.93 72.576 L1571.47 72.576 L1571.47 27.2059 M1571.47 9.54393 L1578.93 9.54393 L1578.93 18.9825 L1571.47 18.9825 L1571.47 9.54393 Z" fill="#000000" fill-rule="nonzero" fill-opacity="1" /><path clip-path="url(#clip960)" d="M1632.24 45.1919 L1632.24 72.576 L1624.78 72.576 L1624.78 45.4349 Q1624.78 38.994 1622.27 35.7938 Q1619.76 32.5936 1614.74 32.5936 Q1608.7 32.5936 1605.22 36.4419 Q1601.73 40.2903 1601.73 46.9338 L1601.73 72.576 L1594.24 72.576 L1594.24 27.2059 L1601.73 27.2059 L1601.73 34.2544 Q1604.41 30.163 1608.01 28.1376 Q1611.66 26.1121 1616.4 26.1121 Q1624.22 26.1121 1628.23 30.9732 Q1632.24 35.7938 1632.24 45.1919 Z" fill="#000000" fill-rule="nonzero" fill-opacity="1" /><path clip-path="url(#clip960)" d="M1712.28 48.0275 L1712.28 51.6733 L1678.01 51.6733 Q1678.5 59.3701 1682.63 63.421 Q1686.8 67.4314 1694.22 67.4314 Q1698.51 67.4314 1702.52 66.3781 Q1706.57 65.3249 1710.54 63.2184 L1710.54 70.267 Q1706.53 71.9684 1702.32 72.8596 Q1698.11 73.7508 1693.77 73.7508 Q1682.91 73.7508 1676.55 67.4314 Q1670.24 61.1119 1670.24 50.3365 Q1670.24 39.1965 1676.23 32.6746 Q1682.27 26.1121 1692.47 26.1121 Q1701.63 26.1121 1706.94 32.0264 Q1712.28 37.9003 1712.28 48.0275 M1704.83 45.84 Q1704.75 39.7232 1701.39 36.0774 Q1698.07 32.4315 1692.56 32.4315 Q1686.32 32.4315 1682.55 35.9558 Q1678.82 39.4801 1678.26 45.8805 L1704.83 45.84 Z" fill="#000000" fill-rule="nonzero" fill-opacity="1" /><path clip-path="url(#clip960)" d="M1747.49 9.54393 L1747.49 15.7418 L1740.36 15.7418 Q1736.35 15.7418 1734.77 17.3622 Q1733.23 18.9825 1733.23 23.1955 L1733.23 27.2059 L1745.5 27.2059 L1745.5 32.9987 L1733.23 32.9987 L1733.23 72.576 L1725.73 72.576 L1725.73 32.9987 L1718.6 32.9987 L1718.6 27.2059 L1725.73 27.2059 L1725.73 24.0462 Q1725.73 16.471 1729.26 13.0277 Q1732.78 9.54393 1740.44 9.54393 L1747.49 9.54393 Z" fill="#000000" fill-rule="nonzero" fill-opacity="1" /><path clip-path="url(#clip960)" d="M1776.69 9.54393 L1776.69 15.7418 L1769.56 15.7418 Q1765.55 15.7418 1763.97 17.3622 Q1762.43 18.9825 1762.43 23.1955 L1762.43 27.2059 L1774.71 27.2059 L1774.71 32.9987 L1762.43 32.9987 L1762.43 72.576 L1754.94 72.576 L1754.94 32.9987 L1747.81 32.9987 L1747.81 27.2059 L1754.94 27.2059 L1754.94 24.0462 Q1754.94 16.471 1758.46 13.0277 Q1761.99 9.54393 1769.64 9.54393 L1776.69 9.54393 Z" fill="#000000" fill-rule="nonzero" fill-opacity="1" /><path clip-path="url(#clip960)" d="M1821.74 48.0275 L1821.74 51.6733 L1787.47 51.6733 Q1787.95 59.3701 1792.09 63.421 Q1796.26 67.4314 1803.67 67.4314 Q1807.97 67.4314 1811.98 66.3781 Q1816.03 65.3249 1820 63.2184 L1820 70.267 Q1815.99 71.9684 1811.77 72.8596 Q1807.56 73.7508 1803.23 73.7508 Q1792.37 73.7508 1786.01 67.4314 Q1779.69 61.1119 1779.69 50.3365 Q1779.69 39.1965 1785.69 32.6746 Q1791.72 26.1121 1801.93 26.1121 Q1811.09 26.1121 1816.39 32.0264 Q1821.74 37.9003 1821.74 48.0275 M1814.29 45.84 Q1814.2 39.7232 1810.84 36.0774 Q1807.52 32.4315 1802.01 32.4315 Q1795.77 32.4315 1792.01 35.9558 Q1788.28 39.4801 1787.71 45.8805 L1814.29 45.84 Z" fill="#000000" fill-rule="nonzero" fill-opacity="1" /><path clip-path="url(#clip960)" d="M1866.62 28.9478 L1866.62 35.9153 Q1863.46 34.1734 1860.26 33.3227 Q1857.1 32.4315 1853.86 32.4315 Q1846.61 32.4315 1842.6 37.0496 Q1838.59 41.6271 1838.59 49.9314 Q1838.59 58.2358 1842.6 62.8538 Q1846.61 67.4314 1853.86 67.4314 Q1857.1 67.4314 1860.26 66.5807 Q1863.46 65.6895 1866.62 63.9476 L1866.62 70.8341 Q1863.5 72.2924 1860.14 73.0216 Q1856.82 73.7508 1853.05 73.7508 Q1842.8 73.7508 1836.77 67.3098 Q1830.73 60.8689 1830.73 49.9314 Q1830.73 38.832 1836.81 32.472 Q1842.93 26.1121 1853.54 26.1121 Q1856.98 26.1121 1860.26 26.8413 Q1863.54 27.5299 1866.62 28.9478 Z" fill="#000000" fill-rule="nonzero" fill-opacity="1" /><path clip-path="url(#clip960)" d="M1886.96 14.324 L1886.96 27.2059 L1902.31 27.2059 L1902.31 32.9987 L1886.96 32.9987 L1886.96 57.6282 Q1886.96 63.1779 1888.46 64.7578 Q1890 66.3376 1894.66 66.3376 L1902.31 66.3376 L1902.31 72.576 L1894.66 72.576 Q1886.03 72.576 1882.75 69.3758 Q1879.46 66.1351 1879.46 57.6282 L1879.46 32.9987 L1874 32.9987 L1874 27.2059 L1879.46 27.2059 L1879.46 14.324 L1886.96 14.324 Z" fill="#000000" fill-rule="nonzero" fill-opacity="1" /><path clip-path="url(#clip960)" d="M1941.04 28.5427 L1941.04 35.5912 Q1937.88 33.9709 1934.48 33.1607 Q1931.07 32.3505 1927.43 32.3505 Q1921.88 32.3505 1919.08 34.0519 Q1916.33 35.7533 1916.33 39.156 Q1916.33 41.7486 1918.31 43.2475 Q1920.3 44.7058 1926.29 46.0426 L1928.85 46.6097 Q1936.79 48.3111 1940.11 51.4303 Q1943.47 54.509 1943.47 60.0587 Q1943.47 66.3781 1938.45 70.0644 Q1933.46 73.7508 1924.71 73.7508 Q1921.07 73.7508 1917.1 73.0216 Q1913.17 72.3329 1908.79 70.9151 L1908.79 63.2184 Q1912.93 65.3654 1916.94 66.4591 Q1920.95 67.5124 1924.88 67.5124 Q1930.14 67.5124 1932.98 65.73 Q1935.81 63.9071 1935.81 60.6258 Q1935.81 57.5877 1933.75 55.9673 Q1931.72 54.3469 1924.79 52.8481 L1922.2 52.2405 Q1915.27 50.7821 1912.2 47.7845 Q1909.12 44.7463 1909.12 39.4801 Q1909.12 33.0797 1913.65 29.5959 Q1918.19 26.1121 1926.54 26.1121 Q1930.67 26.1121 1934.31 26.7198 Q1937.96 27.3274 1941.04 28.5427 Z" fill="#000000" fill-rule="nonzero" fill-opacity="1" /><path clip-path="url(#clip961)" d="M336.72 123.472 L336.72 1419.04 L598.609 1419.04 L598.609 123.472 L336.72 123.472 L336.72 123.472  Z" fill="#6a5acd" fill-rule="evenodd" fill-opacity="0.8"/>
<polyline clip-path="url(#clip961)" style="stroke:#000000; stroke-linecap:round; stroke-linejoin:round; stroke-width:4; stroke-opacity:0.8; fill:none" points="336.72,123.472 336.72,1419.04 598.609,1419.04 598.609,123.472 336.72,123.472 "/>
<path clip-path="url(#clip961)" d="M664.081 1414.57 L664.081 1419.04 L925.97 1419.04 L925.97 1414.57 L664.081 1414.57 L664.081 1414.57  Z" fill="#6a5acd" fill-rule="evenodd" fill-opacity="0.8"/>
<polyline clip-path="url(#clip961)" style="stroke:#000000; stroke-linecap:round; stroke-linejoin:round; stroke-width:4; stroke-opacity:0.8; fill:none" points="664.081,1414.57 664.081,1419.04 925.97,1419.04 925.97,1414.57 664.081,1414.57 "/>
<path clip-path="url(#clip961)" d="M991.443 1423.18 L991.443 1419.04 L1253.33 1419.04 L1253.33 1423.18 L991.443 1423.18 L991.443 1423.18  Z" fill="#6a5acd" fill-rule="evenodd" fill-opacity="0.8"/>
<polyline clip-path="url(#clip961)" style="stroke:#000000; stroke-linecap:round; stroke-linejoin:round; stroke-width:4; stroke-opacity:0.8; fill:none" points="991.443,1423.18 991.443,1419.04 1253.33,1419.04 1253.33,1423.18 991.443,1423.18 "/>
<path clip-path="url(#clip961)" d="M1318.8 1415.21 L1318.8 1419.04 L1580.69 1419.04 L1580.69 1415.21 L1318.8 1415.21 L1318.8 1415.21  Z" fill="#6a5acd" fill-rule="evenodd" fill-opacity="0.8"/>
<polyline clip-path="url(#clip961)" style="stroke:#000000; stroke-linecap:round; stroke-linejoin:round; stroke-width:4; stroke-opacity:0.8; fill:none" points="1318.8,1415.21 1318.8,1419.04 1580.69,1419.04 1580.69,1415.21 1318.8,1415.21 "/>
<path clip-path="url(#clip961)" d="M1646.17 1417.68 L1646.17 1419.04 L1908.05 1419.04 L1908.05 1417.68 L1646.17 1417.68 L1646.17 1417.68  Z" fill="#6a5acd" fill-rule="evenodd" fill-opacity="0.8"/>
<polyline clip-path="url(#clip961)" style="stroke:#000000; stroke-linecap:round; stroke-linejoin:round; stroke-width:4; stroke-opacity:0.8; fill:none" points="1646.17,1417.68 1646.17,1419.04 1908.05,1419.04 1908.05,1417.68 1646.17,1417.68 "/>
<path clip-path="url(#clip961)" d="M1973.53 1417.74 L1973.53 1419.04 L2235.42 1419.04 L2235.42 1417.74 L1973.53 1417.74 L1973.53 1417.74  Z" fill="#6a5acd" fill-rule="evenodd" fill-opacity="0.8"/>
<polyline clip-path="url(#clip961)" style="stroke:#000000; stroke-linecap:round; stroke-linejoin:round; stroke-width:4; stroke-opacity:0.8; fill:none" points="1973.53,1417.74 1973.53,1419.04 2235.42,1419.04 2235.42,1417.74 1973.53,1417.74 "/>
<circle clip-path="url(#clip961)" style="fill:#6a5acd; stroke:none; fill-opacity:0" cx="467.664" cy="123.472" r="2"/>
<circle clip-path="url(#clip961)" style="fill:#6a5acd; stroke:none; fill-opacity:0" cx="795.026" cy="1414.57" r="2"/>
<circle clip-path="url(#clip961)" style="fill:#6a5acd; stroke:none; fill-opacity:0" cx="1122.39" cy="1423.18" r="2"/>
<circle clip-path="url(#clip961)" style="fill:#6a5acd; stroke:none; fill-opacity:0" cx="1449.75" cy="1415.21" r="2"/>
<circle clip-path="url(#clip961)" style="fill:#6a5acd; stroke:none; fill-opacity:0" cx="1777.11" cy="1417.68" r="2"/>
<circle clip-path="url(#clip961)" style="fill:#6a5acd; stroke:none; fill-opacity:0" cx="2104.47" cy="1417.74" r="2"/>
</svg>
